SplineFontDB: 3.0
FontName: Khaanaa
FullName: Khaanaa
FamilyName: Khaanaa
Weight: ColorEmoji
Copyright: Copyright 2025 The Khaanaa Font Authors https://gitlab.com/mitradranirban
UComments: "2024-7-22: Created with FontForge (http://fontforge.org)"
Version: 0.015
ItalicAngle: 0
UnderlinePosition: -102
UnderlineWidth: 51
Ascent: 819
Descent: 205
InvalidEm: 0
UFOAscent: 819
UFODescent: -205
LayerCount: 2
Layer: 0 0 "Back" 1
Layer: 1 0 "public.default" 0 "glyphs"
StyleMap: 0x0040
FSType: 0
OS2Version: 0
OS2_WeightWidthSlopeOnly: 0
OS2_UseTypoMetrics: 0
CreationTime: 1732875118
ModificationTime: 1748868849
PfmFamily: 16
TTFWeight: 400
TTFWidth: 5
LineGap: 0
VLineGap: 0
OS2TypoAscent: 839
OS2TypoAOffset: 0
OS2TypoDescent: -210
OS2TypoDOffset: 0
OS2TypoLinegap: 0
OS2WinAscent: 839
OS2WinAOffset: 0
OS2WinDescent: 210
OS2WinDOffset: 0
HheadAscent: 839
HheadAOffset: 0
HheadDescent: -210
HheadDOffset: 0
OS2FamilyClass: 1283
OS2Vendor: 'anir'
Lookup: 4 0 0 "'dlig' Discretionary Ligatures in Latin lookup 0" { "'dlig' Discretionary Ligatures in Latin lookup 0-1"  } ['dlig' ('DFLT' <'dflt' > 'latn' <'dflt' > ) ]
MarkAttachClasses: 1
DEI: 91125
LangName: 1033 "" "" "" "" "" "Version 0.015" "" "" "" "" "" "" "" "Copyright 2024, The Khaanaa Font Authors. This Font Software is licensed under the SIL Open Font License, Version 1.1. This license is available with a FAQ at:https://openfontlicense.org" "https://openfontlicense.org"
Encoding: UnicodeFull
UnicodeInterp: none
NameList: AGL For New Fonts
DisplaySize: -128
AntiAlias: 1
FitToEm: 0
WinInfo: 58200 10 4
BeginPrivate: 0
EndPrivate
Grid
-512 296.96 m 0
 1536 296.96 l 1024
-512 581.632 m 0
 1536 581.632 l 1024
EndSplineSet
BeginChars: 1114112 108

StartChar: A
Encoding: 65 65 0
GlifName: A_
Width: 752
VWidth: 0
GlyphClass: 2
Flags: HW
LayerCount: 2
Fore
SplineSet
550 0 m 257
 461 228.136672974 l 257
 461 227 l 257
 261.037719727 227 l 257
 202 0 l 257
 50 0 l 257
 250 769 l 257
 402 769 l 257
 702 0 l 257
 550 0 l 257
406.827056885 367 m 257
 341.200012207 535.223999023 l 257
 297.448638916 367 l 257
 406.827056885 367 l 257
EndSplineSet
EndChar

StartChar: B
Encoding: 66 66 1
GlifName: B_
Width: 512
VWidth: 0
Flags: HW
LayerCount: 2
Fore
SplineSet
202 780 m 257
 202 779.663574219 l 257
 207.96484375 780 213.740570068 780 220 780 c 256
 363 780 478 665 478 522 c 256
 478 471.500762939 420 429 395 396 c 257
 424 361 484 314.768890381 484 260 c 256
 484 118 369 3 226 3 c 256
 218 3 210 3 202 4 c 257
 50 4 l 257
 50 780 l 257
 202 780 l 257
202 136 m 257
 210 134 218 133 226 133 c 256
 286 133 333 180 333 239 c 256
 333 299 286 346 226 346 c 256
 218 346 210 345 202 343 c 257
 202 136 l 257
202 454 m 257
 210 452 218 451 226 451 c 256
 286 451 333 498 333 557 c 256
 333 617 286 664 226 664 c 256
 218 664 210 663 202 661 c 257
 202 454 l 257
EndSplineSet
PickledDataWithLists: "(dp0
Vxyz.fontra.layer-names
p1
(dp2
VKhaanaa/public.default
p3
Vdefault
p4
ss."
EndChar

StartChar: C
Encoding: 67 67 2
GlifName: C_
Width: 555
VWidth: 0
Flags: HW
LayerCount: 2
Fore
SplineSet
432 612 m 260
 305 612 203 507 203 378 c 260
 203 248 305 143 432 143 c 260
 457.554656982 143 482.097106934 147.251296997 505 155.102142334 c 261
 505 -6.83008432388 l 261
 481.371307373 -11.5360393524 456.965667725 -14 432 -14 c 260
 221 -14 50 162 50 380 c 260
 50 597 221 773 432 773 c 260
 456.965667725 773 481.371307373 770.536010742 505 765.831726074 c 261
 505 599.906005859 l 261
 482.097106934 607.748718262 457.554656982 612 432 612 c 260
EndSplineSet
PickledDataWithLists: "(dp0
Vxyz.fontra.layer-names
p1
(dp2
VKhaanaa/public.default
p3
Vdefault
p4
ss."
EndChar

StartChar: D
Encoding: 68 68 3
GlifName: D_
Width: 630
VWidth: 0
Flags: HW
LayerCount: 2
Fore
SplineSet
50 768 m 257
 99.6211156208 760.911269197 148.382594462 773 198 773 c 256
 409 773 580 597 580 380 c 256
 580 163.379226685 411.156890869 -11.7713003159 202 -13.9788990021 c 257
 202 -14 l 257
 50 -14 l 257
 50 768 l 257
202 143.03477478 m 257
 327.134933472 145.212112427 427 249.36769104 427 378 c 256
 427 505.642822266 327.134933472 609.787963867 202 611.965209961 c 257
 202 143.03477478 l 257
EndSplineSet
PickledDataWithLists: "(dp0
Vxyz.fontra.layer-names
p1
(dp2
VKhaanaa/public.default
p3
Vdefault
p4
ss."
EndChar

StartChar: E
Encoding: 69 69 4
GlifName: E_
Width: 668
VWidth: 0
Flags: HW
LayerCount: 2
Fore
SplineSet
509 485 m 257
 510 333 l 257
 202 333 l 257
 202 149 l 257
 617 149 l 257
 618 -3 l 257
 51 -3 l 257
 50.9934196472 -2 l 257
 50 -2 l 257
 50 774 l 257
 50.0263175964 774 l 257
 50 778 l 257
 617 778 l 257
 618 626 l 257
 202 626 l 257
 202 485 l 257
 509 485 l 257
EndSplineSet
PickledDataWithLists: "(dp0
Vxyz.fontra.layer-names
p1
(dp2
VKhaanaa/public.default
p3
Vdefault
p4
ss."
EndChar

StartChar: F
Encoding: 70 70 5
GlifName: F_
Width: 668
VWidth: 0
Flags: HW
LayerCount: 2
Fore
SplineSet
509 485 m 257
 510 333 l 257
 202 333 l 257
 202 -2 l 257
 50 -2 l 257
 50 774 l 257
 50.0263175964 774 l 257
 50 778 l 257
 617 778 l 257
 618 626 l 257
 202 626 l 257
 202 485 l 257
 509 485 l 257
EndSplineSet
PickledDataWithLists: "(dp0
Vxyz.fontra.layer-names
p1
(dp2
VKhaanaa/public.default
p3
Vdefault
p4
ss."
EndChar

StartChar: G
Encoding: 71 71 6
GlifName: G_
Width: 651
VWidth: 0
Flags: HW
LayerCount: 2
Fore
SplineSet
432 612 m 256
 305 612 203 507 203 378 c 256
 203 248 305 143 432 143 c 256
 437.719726562 143 443.38873291 143.212982178 449 143.631622314 c 257
 449 313 l 257
 601 313 l 257
 601 -14 l 257
 449 -14 l 257
 449 -13.6177682877 l 257
 443.364196777 -13.8717107773 437.696685791 -14 432 -14 c 256
 221 -14 50 162 50 380 c 256
 50 597 221 773 432 773 c 256
 456.965667725 773 481.371307373 770.536010742 505 765.831726074 c 257
 505 599.906005859 l 257
 482.097106934 607.748718262 457.554656982 612 432 612 c 256
EndSplineSet
PickledDataWithLists: "(dp0
Vxyz.fontra.layer-names
p1
(dp2
VKhaanaa/public.default
p3
Vdefault
p4
ss."
EndChar

StartChar: H
Encoding: 72 72 7
GlifName: H_
Width: 652
VWidth: 0
Flags: HW
LayerCount: 2
Fore
SplineSet
450 774 m 257
 602 774 l 257
 602 -2 l 257
 450 -2 l 257
 450 333 l 257
 202 333 l 257
 202 -2 l 257
 50 -2 l 257
 50 774 l 257
 202 774 l 257
 202 485 l 257
 450 485 l 257
 450 774 l 257
EndSplineSet
PickledDataWithLists: "(dp0
Vxyz.fontra.layer-names
p1
(dp2
VKhaanaa/public.default
p3
Vdefault
p4
ss."
EndChar

StartChar: I
Encoding: 73 73 8
GlifName: I_
Width: 252
VWidth: 0
Flags: W
HStem: -2 21G<50 202> 754 20G<50 202>
VStem: 50 152<-2 774>
LayerCount: 2
Fore
SplineSet
50 774 m 257
 202 774 l 257
 202 -2 l 257
 50 -2 l 257
 50 774 l 257
EndSplineSet
PickledDataWithLists: "(dp0
Vxyz.fontra.layer-names
p1
(dp2
VKhaanaa/public.default
p3
Vdefault
p4
ss."
EndChar

StartChar: J
Encoding: 74 74 9
GlifName: J_
Width: 419
VWidth: 0
Flags: HW
LayerCount: 2
Fore
SplineSet
50 6 m 257
 50 174 l 257
 69 158 94 148 121 148 c 256
 154 148 182 162 202 185 c 257
 202 761 l 257
 369 761 l 257
 366 184 l 257
 335 75 239 -3 121 -3 c 256
 96 -3 73 0 50 6 c 257
EndSplineSet
PickledDataWithLists: "(dp0
Vxyz.fontra.layer-names
p1
(dp2
VKhaanaa/public.default
p3
Vdefault
p4
ss."
EndChar

StartChar: K
Encoding: 75 75 10
GlifName: K_
Width: 703
VWidth: 0
Flags: HW
LayerCount: 2
Fore
SplineSet
50 774 m 257
 202 774 l 257
 202 432.894744873 l 257
 447 770 l 257
 633 768 l 257
 372 387 l 257
 703 -3 l 257
 511 -2 l 257
 259.207733154 301.887695312 l 257
 202 218.504714966 l 257
 202 -2 l 257
 50 -2 l 257
 50 774 l 257
EndSplineSet
PickledDataWithLists: "(dp0
Vxyz.fontra.layer-names
p1
(dp2
VKhaanaa/public.default
p3
Vdefault
p4
ss."
EndChar

StartChar: L
Encoding: 76 76 11
GlifName: L_
Width: 718
VWidth: 0
Flags: HW
LayerCount: 2
Fore
SplineSet
50 774 m 261
 202 774 l 261
 202 149 l 261
 667 149 l 261
 668 -3 l 261
 51 -3 l 261
 50.9934196472 -2 l 261
 50 -2 l 261
 50 774 l 261
EndSplineSet
PickledDataWithLists: "(dp0
Vxyz.fontra.layer-names
p1
(dp2
VKhaanaa/public.default
p3
Vdefault
p4
ss."
EndChar

StartChar: M
Encoding: 77 77 12
GlifName: M_
Width: 1052
VWidth: 0
Flags: HW
LayerCount: 2
Fore
SplineSet
50 768 m 257
 202 768 l 257
 526 145.919998169 l 257
 850 768 l 257
 1002 768 l 257
 1002 -2 l 257
 850 -2 l 257
 850 476.160003662 l 257
 602 0 l 257
 450 0 l 257
 202 476.160003662 l 257
 202 -2 l 257
 50 -2 l 257
 50 768 l 257
EndSplineSet
PickledDataWithLists: "(dp0
Vxyz.fontra.layer-names
p1
(dp2
VKhaanaa/public.default
p3
Vdefault
p4
ss."
EndChar

StartChar: N
Encoding: 78 78 13
GlifName: N_
Width: 852
VWidth: 0
Flags: HW
LayerCount: 2
Fore
SplineSet
50 774 m 257
 202 774 l 257
 650 250.521743774 l 257
 650 774 l 257
 802 774 l 257
 802 -2 l 257
 650 -2 l 257
 202 523.10144043 l 257
 202 -2 l 257
 50 -2 l 257
 50 774 l 257
EndSplineSet
PickledDataWithLists: "(dp0
Vxyz.fontra.layer-names
p1
(dp2
VKhaanaa/public.default
p3
Vdefault
p4
ss."
EndChar

StartChar: O
Encoding: 79 79 14
GlifName: O_
Width: 864
VWidth: 0
Flags: W
HStem: -14 157<337.027 526.973> 612 161<337.027 526.973>
VStem: 50 153<278.712 478.774> 661 153<278.712 478.774>
LayerCount: 2
Fore
SplineSet
814 380 m 260
 814 162 643 -14 432 -14 c 260
 221 -14 50 162 50 380 c 260
 50 597 221 773 432 773 c 260
 643 773 814 597 814 380 c 260
661 378 m 260
 661 507 559 612 432 612 c 260
 305 612 203 507 203 378 c 260
 203 248 305 143 432 143 c 260
 559 143 661 248 661 378 c 260
EndSplineSet
PickledDataWithLists: "(dp0
Vxyz.fontra.layer-names
p1
(dp2
VKhaanaa/public.default
p3
Vdefault
p4
ss."
EndChar

StartChar: P
Encoding: 80 80 15
GlifName: P_
Width: 534
VWidth: 0
Flags: HW
LayerCount: 2
Fore
SplineSet
202 3 m 257
 50 3 l 257
 50 779 l 257
 202 779 l 257
 202 779 l 257
 210 780 218 780 226 780 c 256
 369 780 484 665 484 523 c 256
 484 380 369 265 226 265 c 256
 218 265 210 265 202 266 c 257
 202 3 l 257
202 626 m 257
 202 419 l 257
 210 417 218 416 226 416 c 256
 286 416 333 463 333 523 c 256
 333 582 286 629 226 629 c 256
 218 629 210 628 202 626 c 257
EndSplineSet
PickledDataWithLists: "(dp0
Vxyz.fontra.layer-names
p1
(dp2
VKhaanaa/public.default
p3
Vdefault
p4
ss."
EndChar

StartChar: Q
Encoding: 81 81 16
GlifName: Q_
Width: 864
VWidth: 0
Flags: HW
LayerCount: 2
Fore
SplineSet
661 378 m 256
 661 507 559 612 432 612 c 256
 305 612 203 507 203 378 c 256
 203 248 305 143 432 143 c 256
 559 143 661 248 661 378 c 256
814 380 m 256
 814 262.352966309 764.198242188 156.937973022 685.184082031 84.8159484863 c 257
 822 -52 l 257
 684 -191 l 257
 500.666381836 -7.66637468338 l 257
 478.391113281 -11.8275365829 455.44241333 -14 432 -14 c 256
 221 -14 50 162 50 380 c 256
 50 597 221 773 432 773 c 256
 643 773 814 597 814 380 c 256
EndSplineSet
PickledDataWithLists: "(dp0
Vxyz.fontra.layer-names
p1
(dp2
VKhaanaa/public.default
p3
Vdefault
p4
ss."
EndChar

StartChar: R
Encoding: 82 82 17
GlifName: R_
Width: 512
VWidth: 0
Flags: HW
LayerCount: 2
Fore
SplineSet
202 626 m 257
 202 419 l 257
 210 417 218 416 226 416 c 256
 286 416 333 463 333 523 c 256
 333 582 286 629 226 629 c 256
 218 629 210 628 202 626 c 257
202 3 m 257
 50 3 l 257
 50 779 l 257
 202 779 l 257
 210 780 218 780 226 780 c 256
 369 780 484 665 484 523 c 256
 484 410.657806396 413.023986816 315.596740723 313.255218506 280 c 257
 512 -3 l 257
 372 -3 l 257
 206.913360596 265.502990723 l 257
 205.27557373 265.632476807 203.637786865 265.795288086 202 266 c 257
 202 3 l 257
EndSplineSet
PickledDataWithLists: "(dp0
Vxyz.fontra.layer-names
p1
(dp2
VKhaanaa/public.default
p3
Vdefault
p4
ss."
EndChar

StartChar: S
Encoding: 83 83 18
GlifName: S_
Width: 512
VWidth: 0
Flags: HW
LayerCount: 2
Fore
SplineSet
55 57 m 257
 130 182 l 257
 136 177 142 172 152 167 c 256
 203 137 267 154 297 202 c 256
 329 258 279 306 227 315 c 257
 227 315 l 257
 101 383 17 498 101 639 c 256
 171 755 328 794 453 727 c 256
 459 721 467 718 474 712 c 257
 399 587 l 257
 393 592 387 597 377 602 c 256
 326 630 262 614 232 565 c 256
 199 510 232 429 296 418 c 257
 296 418 l 257
 413 355 512 270 427 130 c 256
 358 13 201 -26 76 42 c 256
 70 48 62 51 55 57 c 257
EndSplineSet
PickledDataWithLists: "(dp0
Vxyz.fontra.layer-names
p1
(dp2
VKhaanaa/public.default
p3
Vdefault
p4
ss."
EndChar

StartChar: T
Encoding: 84 84 19
GlifName: T_
Width: 676
VWidth: 0
Flags: HW
LayerCount: 2
Fore
SplineSet
53 614 m 1
 53 766 l 5
 629 766 l 5
 629 614 l 1
 417 614 l 1
 417 -2 l 1
 265 -2 l 1
 265 614 l 1
 53 614 l 1
EndSplineSet
PickledDataWithLists: "(dp0
Vxyz.fontra.layer-names
p1
(dp2
VKhaanaa/public.default
p3
Vdefault
p4
ss."
EndChar

StartChar: U
Encoding: 85 85 20
GlifName: U_
Width: 669
VWidth: 0
Flags: HW
LayerCount: 2
Fore
SplineSet
616 184 m 257
 547.931600739 -55.413201197 122.236742402 -59.4453068289 53 184 c 257
 50 761 l 257
 217 761 l 257
 217 185 l 257
 255.237263098 141.0271551 414.430937416 139.917124899 452 185 c 257
 452 761 l 257
 619 761 l 257
 616 184 l 257
EndSplineSet
PickledDataWithLists: "(dp0
Vxyz.fontra.layer-names
p1
(dp2
VKhaanaa/public.default
p3
Vdefault
p4
ss."
EndChar

StartChar: V
Encoding: 86 86 21
GlifName: V_
Width: 652
VWidth: 0
Flags: HW
LayerCount: 2
Fore
SplineSet
50 769 m 257
 202 769 l 257
 326 292.220001221 l 257
 450 769 l 257
 602 769 l 257
 402 0 l 257
 250 0 l 257
 50 769 l 257
EndSplineSet
PickledDataWithLists: "(dp0
Vxyz.fontra.layer-names
p1
(dp2
VKhaanaa/public.default
p3
Vdefault
p4
ss."
EndChar

StartChar: W
Encoding: 87 87 22
GlifName: W_
Width: 1000
VWidth: 0
Flags: HW
LayerCount: 2
Fore
SplineSet
50 769 m 1
 202 769 l 1
 326 292.220001221 l 1
 450 769 l 1
 451 769 l 1
 602 769 l 1
 603 769 l 1
 727 292 l 1
 851 769 l 1
 1003 769 l 1
 803 0 l 1
 651 0 l 1
 526.5 478.7025 l 1
 402 0 l 1
 250 0 l 1
 50 769 l 1
EndSplineSet
PickledDataWithLists: "(dp0
Vxyz.fontra.layer-names
p1
(dp2
VKhaanaa/public.default
p3
Vdefault
p4
ss."
EndChar

StartChar: X
Encoding: 88 88 23
GlifName: X_
Width: 724
VWidth: 0
Flags: HW
LayerCount: 2
Fore
SplineSet
50 770 m 257
 236 768 l 257
 365.550445557 540.843078613 l 257
 498 769 l 257
 673 768 l 257
 452.728759766 387.98248291 l 257
 674 0 l 257
 499 -2 l 257
 362.609527588 232.506546021 l 257
 229 2 l 257
 51 -1 l 257
 274.5 384 l 257
 50 770 l 257
EndSplineSet
PickledDataWithLists: "(dp0
Vxyz.fontra.layer-names
p1
(dp2
VKhaanaa/public.default
p3
Vdefault
p4
ss."
EndChar

StartChar: Y
Encoding: 89 89 24
GlifName: Y_
Width: 512
VWidth: 0
Flags: HW
LayerCount: 2
Fore
SplineSet
193 451 m 257
 193.365081787 451 l 257
 -6 765 l 257
 146 765 l 257
 270 594 l 257
 394 765 l 257
 546 765 l 257
 346 450 l 257
 345 450 l 257
 345 1 l 257
 193 1 l 257
 193 451 l 257
EndSplineSet
PickledDataWithLists: "(dp0
Vxyz.fontra.layer-names
p1
(dp2
VKhaanaa/public.default
p3
Vdefault
p4
ss."
EndChar

StartChar: Z
Encoding: 90 90 25
GlifName: Z_
Width: 783
VWidth: 0
Flags: HW
LayerCount: 2
Fore
SplineSet
50 10 m 257
 50 162 l 257
 480 610 l 261
 50 610 l 257
 50 762 l 257
 733 762 l 261
 733 610 l 261
 301 162 l 257
 733 162 l 261
 733 10 l 261
 50 10 l 257
EndSplineSet
PickledDataWithLists: "(dp0
Vxyz.fontra.layer-names
p1
(dp2
VKhaanaa/public.default
p3
Vdefault
p4
ss."
EndChar

StartChar: a
Encoding: 97 97 26
GlifName: a
Width: 512
VWidth: 0
Flags: W
HStem: 8 151<243.471 332> 372 143<243.351 331.625>
VStem: 50 151<201.471 329.671> 332 152<1 9 159.012 371.988>
LayerCount: 2
Fore
SplineSet
332 1 m 257
 332 9 l 257
 324 8 316 8 308 8 c 256
 165 8 50 123 50 266 c 256
 50 408 165 515 308 515 c 256
 316 515 324 515 332 514 c 257
 484 514 l 257
 484 1 l 257
 332 1 l 257
332 369 m 257
 324 371 316 372 308 372 c 256
 248 372 201 325 201 266 c 256
 201 206 248 159 308 159 c 256
 316 159 324 160 332 162 c 257
 332 369 l 257
EndSplineSet
PickledDataWithLists: "(dp0
Vxyz.fontra.layer-names
p1
(dp2
VKhaanaa/public.default
p3
Vdefault
p4
ss."
EndChar

StartChar: b
Encoding: 98 98 27
GlifName: b
Width: 512
VWidth: 0
Flags: W
HStem: 4 150<202.375 290.649> 367 151<202 290.529>
VStem: 50 152<154.012 366.988 517 780> 333 151<196.066 324.529>
LayerCount: 2
Fore
SplineSet
202 780 m 257
 202 517 l 257
 210 518 218 518 226 518 c 256
 369 518 484 403 484 260 c 256
 484 118 369 3 226 3 c 256
 218 3 210 3 202 4 c 257
 50 4 l 257
 50 780 l 257
 202 780 l 257
202 157 m 257
 210 155 218 154 226 154 c 256
 286 154 333 201 333 260 c 256
 333 320 286 367 226 367 c 256
 218 367 210 366 202 364 c 257
 202 157 l 257
EndSplineSet
PickledDataWithLists: "(dp0
Vxyz.fontra.layer-names
p1
(dp2
VKhaanaa/public.default
p3
Vdefault
p4
ss."
EndChar

StartChar: c
Encoding: 99 99 28
GlifName: c
Width: 384
VWidth: 0
Flags: HW
LayerCount: 2
Fore
SplineSet
334 4.29609966278 m 261
 325.446716309 3.43895053864 316.772979736 3 308 3 c 260
 165 3 50 118 50 260 c 260
 50 403 165 518 308 518 c 260
 316.772979736 518 325.446716309 517.561035156 334 516.703674316 c 261
 334 363.864593506 l 261
 325.673736572 365.915100098 316.96383667 367 308 367 c 260
 248 367 201 320 201 260 c 260
 201 201 248 154 308 154 c 260
 316.96383667 154 325.673736572 155.084884644 334 157.131896973 c 261
 334 4.29609966278 l 261
EndSplineSet
PickledDataWithLists: "(dp0
Vxyz.fontra.layer-names
p1
(dp2
VKhaanaa/public.default
p3
Vdefault
p4
ss."
EndChar

StartChar: d
Encoding: 100 100 29
GlifName: d
Width: 512
VWidth: 0
Flags: HW
HStem: 3 151<242.454 332> 367 151<243.471 332>
VStem: 50 151<196.066 324.529> 332 152<4 4.10351 154.011 366.989 516.896 780>
LayerCount: 2
Fore
SplineSet
332 780 m 257
 484 780 l 257
 484 4 l 257
 332 4 l 257
 332 4.10350751877 l 257
 324.095489502 3.37326002121 316.089935303 3 308 3 c 256
 165 3 50 118 50 260 c 256
 50 403 165 518 308 518 c 256
 316.089935303 518 324.095489502 517.626708984 332 516.89630127 c 257
 332 780 l 257
332 156.660415649 m 257
 332 364.336853027 l 257
 324.282409668 366.081298828 316.248718262 367 308 367 c 256
 248 367 201 320 201 260 c 256
 201 201 248 154 308 154 c 256
 316.248718262 154 324.282409668 154.918685913 332 156.660415649 c 257
EndSplineSet
PickledDataWithLists: "(dp0
Vxyz.fontra.layer-names
p1
(dp2
VKhaanaa/public.default
p3
Vdefault
p4
ss."
EndChar

StartChar: e
Encoding: 101 101 30
GlifName: e
Width: 617
VWidth: 0
Flags: HW
HStem: 3 151<243.073 556.239> 205.32 128.941<230.301 387.264> 367 151<242.682 372.767>
VStem: 50 517<208.188 330.811>
LayerCount: 2
Fore
SplineSet
566 260 m 256
 566 241.327877436 567 223 567 208 c 257
 215.985275269 205.320495605 l 257
 234.489715576 174.456954956 268.415710449 154 308 154 c 256
 322.516235352 154 544 157 557 162 c 257
 557 6 l 257
 544 4 321.945861816 3 308 3 c 256
 165 3 50 118 50 260 c 256
 50 403 165 518 308 518 c 256
 450 518 566 403 566 260 c 256
230.301010132 334.261138916 m 257
 387.263824463 332.201263428 l 257
 367.67300415 353.693054199 339.393707275 367 308 367 c 256
 277.106994629 367 249.660354614 354.54006958 230.301010132 334.261138916 c 257
EndSplineSet
PickledDataWithLists: "(dp0
Vxyz.fontra.layer-names
p1
(dp2
VKhaanaa/public.default
p3
Vdefault
p4
ss."
EndChar

StartChar: exclam
Encoding: 33 33 31
GlifName: exclam
Width: 252
VWidth: 0
GlyphClass: 2
Flags: HW
LayerCount: 2
Fore
SplineSet
50 258 m 257
 50 772 l 257
 202 772 l 257
 202 258 l 257
 50 258 l 257
50 -2 m 257
 50 140 l 257
 202 140 l 257
 202 -2 l 257
 50 -2 l 257
EndSplineSet
EndChar

StartChar: f
Encoding: 102 102 32
GlifName: f
Width: 512
VWidth: 0
Flags: HW
LayerCount: 2
Fore
SplineSet
464 752 m 1
 464 584 l 1
 445 600 420 610 393 610 c 0
 360 610 332 596 312 573 c 1
 312 511 l 1
 409 511 l 1
 409 359 l 1
 312 359 l 1
 312 -3 l 1
 145 -3 l 1
 146.882149047 359 l 1
 50 359 l 1
 50 511 l 1
 147.672443674 511 l 1
 148 574 l 1
 179 683 275 761 393 761 c 0
 418 761 441 758 464 752 c 1
EndSplineSet
PickledDataWithLists: "(dp0
Vxyz.fontra.layer-names
p1
(dp2
VKhaanaa/public.default
p3
Vdefault
p4
ss."
EndChar

StartChar: g
Encoding: 103 103 33
GlifName: g
Width: 620
VWidth: 0
Flags: HW
LayerCount: 2
Fore
SplineSet
309.954681396 366.982788086 m 256
 301.641906738 366.84274292 293.393859863 365.848449707 286 364 c 257
 286 364.828063965 l 257
 236.898666382 354.945495605 201 312.437438965 201 260 c 256
 201 208.436508179 236.898666382 166.038650513 286 156.169952393 c 257
 286 157 l 257
 293.393859863 155.151535034 301.641937256 154.157287598 309.954711914 154.017227173 c 257
 318.230712891 154.163162231 326.28024292 155.23399353 334 157.131896973 c 257
 334 156.169952393 l 257
 383.101318359 166.038650513 419 208.436508179 419 260 c 256
 419 312.437438965 383.101318359 354.945495605 334 364.828063965 c 257
 334 363.864593506 l 257
 326.28024292 365.76574707 318.230682373 366.83682251 309.954681396 366.982788086 c 256
308.905792236 3.00155997276 m 256
 308.603973389 3.00052022934 308.302032471 3 308 3 c 256
 306.815063477 3 305.632049561 3.00789618492 304.45123291 3.02363610268 c 256
 303.723999023 3.03060817719 302.284912109 3.03491783142 300.34942627 3.04071426392 c 256
 289.538635254 3.07309031487 263.240753174 3.15184640884 259 4 c 257
 125 13 50 123.964859009 50 260 c 256
 50 396.991333008 155.538726807 508.286254883 290.128723145 517.397338867 c 256
 295.001708984 517.795227051 299.66027832 517.930419922 304.451171875 517.976379395 c 256
 305.632171631 517.992126465 306.815124512 518 308 518 c 256
 308.302062988 518 308.604003906 517.999450684 308.905517578 517.998413086 c 257
 309.925628662 518 310.956085205 518 312 518 c 256
 454.666503906 518 569.463439941 403.535736084 569.99810791 261 c 257
 570 261 l 257
 569.998596191 260.868469238 l 258
 569.999511719 260.579101562 570 260.289611816 570 260 c 256
 570 257.823120117 569.972961426 255.652557373 569.919250488 253.488677979 c 258
 567 -18 l 257
 536 -127 443 -205 325 -205 c 256
 300 -205 143 -202 120 -196 c 257
 120 -28 l 257
 139 -44 298 -54 325 -54 c 256
 358 -54 399 -40 419 -17 c 257
 419 25.9655418396 l 257
 386.440979004 11.215256691 350.220611572 3 312 3 c 256
 310.956176758 3 309.925842285 3 308.905792236 3.00155997276 c 256
EndSplineSet
PickledDataWithLists: "(dp0
Vxyz.fontra.layer-names
p1
(dp2
VKhaanaa/public.default
p3
Vdefault
p4
ss."
EndChar

StartChar: h
Encoding: 104 104 34
GlifName: h
Width: 597
VWidth: 0
Flags: HW
LayerCount: 2
Fore
SplineSet
50 768 m 257
 219 768 l 257
 219 512 l 257
 245 520 271 524 299 524 c 256
 417 524 513 446 544 337 c 257
 547 6 l 257
 380 6 l 257
 380 336 l 257
 360 359 332 373 299 373 c 256
 267 373 239 360 219 338 c 257
 219 6 l 257
 50 6 l 257
 50 768 l 257
EndSplineSet
PickledDataWithLists: "(dp0
Vxyz.fontra.layer-names
p1
(dp2
VKhaanaa/public.default
p3
Vdefault
p4
ss."
EndChar

StartChar: i
Encoding: 105 105 35
GlifName: i
Width: 252
VWidth: 0
Flags: W
HStem: -2 21G<50 202> 492 20G<50 202> 630 142<50 202>
VStem: 50 152<-2 512 630 772>
LayerCount: 2
Fore
SplineSet
50 512 m 257
 202 512 l 257
 202 -2 l 257
 50 -2 l 257
 50 512 l 257
50 772 m 257
 202 772 l 257
 202 630 l 257
 50 630 l 257
 50 772 l 257
EndSplineSet
PickledDataWithLists: "(dp0
Vxyz.fontra.layer-names
p1
(dp2
VKhaanaa/public.default
p3
Vdefault
p4
ss."
EndChar

StartChar: j
Encoding: 106 106 36
GlifName: j
Width: 419
VWidth: 0
Flags: HW
LayerCount: 2
Fore
SplineSet
50 -195 m 257
 50 -27 l 257
 69 -43 94 -53 121 -53 c 256
 154 -53 182 -39 202 -16 c 257
 202 517 l 257
 369 517 l 257
 366 -17 l 257
 335 -126 239 -204 121 -204 c 256
 96 -204 73 -201 50 -195 c 257
214 772 m 257
 366 772 l 257
 366 630 l 257
 214 630 l 257
 214 772 l 257
EndSplineSet
PickledDataWithLists: "(dp0
Vxyz.fontra.layer-names
p1
(dp2
VKhaanaa/public.default
p3
Vdefault
p4
ss."
EndChar

StartChar: k
Encoding: 107 107 37
GlifName: k
Width: 753
VWidth: 0
Flags: HW
LayerCount: 2
Fore
SplineSet
61 774 m 257
 202 774 l 257
 202 317 l 257
 447 529 l 257
 640 527 l 257
 379 284 l 257
 649 -3 l 257
 463 -2 l 257
 259 226 l 257
 202 154 l 257
 202 -2 l 257
 61 -2 l 257
 61 774 l 257
EndSplineSet
PickledDataWithLists: "(dp0
Vxyz.fontra.layer-names
p1
(dp2
VKhaanaa/public.default
p3
Vdefault
p4
ss."
EndChar

StartChar: l
Encoding: 108 108 38
GlifName: l
Width: 419
VWidth: 0
Flags: HW
HStem: -3 151<233.008 363.885> 741 20G<50 217>
VStem: 53 164<166.215 761>
LayerCount: 2
Fore
SplineSet
369 6 m 257
 346.333333333 0 322.666666667 -3 298 -3 c 0
 240 -3 188.666666667 14.3333333333 144 49 c 0
 99.3333333333 83.6666666667 69 128.666666667 53 184 c 257
 50 761 l 257
 217 761 l 257
 217 185 l 1
 238.333333333 160.333333333 265.333333333 148 298 148 c 0
 324.666666667 148 348.333333333 156.666666667 369 174 c 257
 369 6 l 257
EndSplineSet
PickledDataWithLists: "(dp0
Vxyz.fontra.layer-names
p1
(dp2
VKhaanaa/public.default
p3
Vdefault
p4
ss."
EndChar

StartChar: m
Encoding: 109 109 39
GlifName: m
Width: 924
VWidth: 0
Flags: HW
HStem: 373 151<232.824 364.747 559.824 690.715>
VStem: 50 169<6 356.608 512 522> 380 166<6 355.109> 707 167<6 352.119>
LayerCount: 2
Fore
SplineSet
50 522 m 1
 219 522 l 1
 219 512 l 1
 245 520 271 524 299 524 c 0
 360.004988784 524 415.129814507 503.152149152 458.432670891 467.950979903 c 1
 546 512 l 1
 572 520 598 524 626 524 c 0
 744 524 840 446 871 337 c 1
 874 6 l 1
 707 6 l 1
 707 336 l 1
 687 359 659 373 626 373 c 0
 594 373 566 360 546 338 c 1
 546 116.333333333 l 1
 547 6 l 1
 546 6 l 1
 380 6 l 1
 377 6 l 1
 380 323.25 l 1
 380 336 l 1
 360 359 332 373 299 373 c 0
 267 373 239 360 219 338 c 1
 219 6 l 1
 50 6 l 1
 50 522 l 1
EndSplineSet
PickledDataWithLists: "(dp0
Vxyz.fontra.layer-names
p1
(dp2
VKhaanaa/public.default
p3
Vdefault
p4
ss."
EndChar

StartChar: n
Encoding: 110 110 40
GlifName: n
Width: 597
VWidth: 0
Flags: W
HStem: 373 151<232.824 363.715>
VStem: 50 169<6 356.608 512 522> 380 167<6 352.119>
LayerCount: 2
Fore
SplineSet
50 522 m 257
 219 522 l 257
 219 512 l 257
 245 520 271 524 299 524 c 256
 417 524 513 446 544 337 c 257
 547 6 l 257
 380 6 l 257
 380 336 l 257
 360 359 332 373 299 373 c 256
 267 373 239 360 219 338 c 257
 219 6 l 257
 50 6 l 257
 50 522 l 257
EndSplineSet
PickledDataWithLists: "(dp0
Vxyz.fontra.layer-names
p1
(dp2
VKhaanaa/public.default
p3
Vdefault
p4
ss."
EndChar

StartChar: u1F64F
Encoding: 128591 128591 41
GlifName: namaste
Width: 1024
Flags: HW
VStem: 261.673 223.215<178.643 403.108> 449.53 35.6592<789.851 806.276> 526.805 44.6611<804.851 818.47> 527.105 223.22<190.642 434.494>
LayerCount: 2
Fore
SplineSet
480.557617188 71.029296875 m 1049x00
264.524414062 -216.966796875 m 21
 265.31640625 -216.95703125 263.745117188 -216.997070312 263.345703125 -216.997070312 c 0
 256.326171875 -216.997070312 250.499023438 -214.357421875 245.864257812 -209.079101562 c 2
 106.107421875 -49.8447265625 l 2
 101.786132812 -44.91796875 99.8837890625 -39.1904296875 100.40234375 -32.66015625 c 0
 100.921875 -26.1279296875 103.703125 -20.7724609375 108.74609375 -16.5927734375 c 2
 298.129882812 140.390625 l 1
 291.666015625 155.815429688 285.813476562 172.38671875 280.5703125 190.106445312 c 0
 275.327148438 207.826171875 270.19921875 230.069335938 265.186523438 256.8359375 c 0
 260.172851562 283.602539062 259.001953125 311.634765625 261.672851562 340.93359375 c 0x80
 264.34375 370.231445312 280.353515625 394.421875 291.700195312 419.501953125 c 2
 449.530273438 789.850585938 l 2
 454.500976562 801.512695312 454.185546875 809.069335938 466.584960938 806.522460938 c 0
 472 805.41796875 476.454101562 802.724609375 479.94921875 798.444335938 c 0
 483.444335938 794.1640625 485.19140625 789.26171875 485.189453125 783.73828125 c 0x40
 485.189453125 774.396484375 485.088867188 552.385742188 484.887695312 117.704101562 c 2x80
 484.875 84.517578125 l 2
 484.87109375 79.560546875 483.703717188 75.2233952708 480.557617188 71.029296875 c 2
 264.524414062 -216.966796875 l 21
911.59765625 -20.66015625 m 0
 912.11582501 -27.1907114513 910.211853656 -32.9208546804 905.885742188 -37.8505859375 c 2
 766.129882812 -197.0859375 l 2
 761.49836068 -202.363932292 755.670886722 -205.002929688 748.647460938 -205.002929688 c 0
 748.2578125 -205.002929688 747.865234375 -204.993164063 747.469726562 -204.973632812 c 0
 739.979768187 -204.594498743 734.057567667 -201.349707077 729.703125 -195.239257812 c 2
 531.435546875 83.0224609375 l 2
 528.561297235 87.0574075629 527.122169631 91.5538268337 527.118164062 96.51171875 c 2
 527.10546875 129.697265625 l 2x10
 526.904947917 562.971908038 526.8046875 784.983301267 526.8046875 795.731445312 c 0
 526.8046875 801.258230495 528.552145 806.162205162 532.047059999 810.443369314 c 0
 535.541974998 814.724533467 539.996991457 817.417564008 545.412109375 818.522460938 c 0
 557.814924076 821.071015144 566.499494388 816.513723477 571.465820312 804.850585938 c 2x20
 729.296875 434.501953125 l 2
 740.644658257 409.421370876 747.654323976 382.231671856 750.325872157 352.932856064 c 0x10
 752.997420338 323.634040272 751.826569125 295.60180196 746.813318516 268.836141128 c 0
 741.800067908 242.070480297 736.671704441 219.827175396 731.428228114 202.106226425 c 0
 726.184751788 184.385277455 720.331071583 167.813410313 713.8671875 152.390625 c 1
 903.25390625 -4.5927734375 l 2
 908.301147336 -8.7719787131 911.082397336 -14.1277729839 911.59765625 -20.66015625 c 0
EndSplineSet
PickledDataWithLists: "(dp0
Vxyz.fontra.layer-names
p1
(dp2
VKhaanaa/public.default
p3
Vdefault
p4
ss."
Ligature2: "'dlig' Discretionary Ligatures in Latin lookup 0-1" n a m a s t e
LCarets2: 6 0 0 0 0 0 0
EndChar

StartChar: o
Encoding: 111 111 42
GlifName: o
Width: 616
VWidth: 0
Flags: W
HStem: 3 21G<307.408 308.151 311.478 383.5> 498 20G<307.408 308.151 311.478 383.5>
VStem: 50 151<197.14 323.449> 419 151<195.844 324.753>
LayerCount: 2
Fore
SplineSet
308.905792236 3.00155997276 m 260
 308.603973389 3.00052022934 308.302032471 3 308 3 c 260
 306.815063477 3 305.632049561 3.00789618492 304.45123291 3.02363610268 c 260
 299.66192627 3.0695514679 295.0050354 3.20466184616 290.134063721 3.60223269463 c 260
 155.541519165 12.7090320587 50 123.964859009 50 260 c 260
 50 396.991333008 155.538726807 508.286254883 290.128723145 517.397338867 c 260
 295.001708984 517.795227051 299.66027832 517.930419922 304.451171875 517.976379395 c 260
 305.632171631 517.992126465 306.815124512 518 308 518 c 260
 308.302062988 518 308.604003906 517.999450684 308.905517578 517.998413086 c 261
 309.925628662 518 310.956085205 518 312 518 c 260
 455 518 570 403 570 260 c 260
 570 118 455 3 312 3 c 260
 310.956176758 3 309.925842285 3 308.905792236 3.00155997276 c 260
309.954681396 366.982788086 m 260
 301.641906738 366.84274292 293.393859863 365.848449707 286 364 c 261
 286 364.828063965 l 261
 236.898666382 354.945495605 201 312.437438965 201 260 c 260
 201 208.436508179 236.898666382 166.038650513 286 156.169952393 c 261
 286 157 l 261
 293.393859863 155.151535034 301.641937256 154.157287598 309.954711914 154.017227173 c 261
 318.230712891 154.163162231 326.28024292 155.23399353 334 157.131896973 c 261
 334 156.169952393 l 261
 383.101318359 166.038650513 419 208.436508179 419 260 c 260
 419 312.437438965 383.101318359 354.945495605 334 364.828063965 c 261
 334 363.864593506 l 261
 326.28024292 365.76574707 318.230682373 366.83682251 309.954681396 366.982788086 c 260
EndSplineSet
PickledDataWithLists: "(dp0
Vxyz.fontra.layer-names
p1
(dp2
VKhaanaa/public.default
p3
Vdefault
p4
ss."
EndChar

StartChar: p
Encoding: 112 112 43
GlifName: p
Width: 512
VWidth: 0
Flags: HW
LayerCount: 2
Fore
SplineSet
202 -202 m 257
 50 -202 l 257
 50 509 l 257
 202 509 l 257
 202 509 l 257
 210 510 218 510 226 510 c 256
 369 510 484 395 484 253 c 256
 484 110 369 -5 226 -5 c 256
 218 -5 210 -5 202 -4 c 257
 202 -202 l 257
202 356 m 257
 202 149 l 257
 210 147 218 146 226 146 c 256
 286 146 333 193 333 253 c 256
 333 312 286 359 226 359 c 256
 218 359 210 358 202 356 c 257
EndSplineSet
PickledDataWithLists: "(dp0
Vxyz.fontra.layer-names
p1
(dp2
VKhaanaa/public.default
p3
Vdefault
p4
ss."
EndChar

StartChar: q
Encoding: 113 113 44
GlifName: q
Width: 512
VWidth: 0
Flags: HW
LayerCount: 2
Fore
SplineSet
332 -202 m 257
 332 -4 l 257
 324 -5 316 -5 308 -5 c 256
 165 -5 50 110 50 253 c 256
 50 395 165 510 308 510 c 256
 316 510 324 510 332 509 c 257
 332 509 l 257
 484 509 l 257
 484 -202 l 257
 332 -202 l 257
332 356 m 257
 324 358 316 359 308 359 c 256
 248 359 201 312 201 253 c 256
 201 193 248 146 308 146 c 256
 316 146 324 147 332 149 c 257
 332 356 l 257
EndSplineSet
PickledDataWithLists: "(dp0
Vxyz.fontra.layer-names
p1
(dp2
VKhaanaa/public.default
p3
Vdefault
p4
ss."
EndChar

StartChar: quotedbl
Encoding: 34 34 45
GlifName: quotedbl
Width: 452
VWidth: 0
GlyphClass: 2
Flags: HW
LayerCount: 2
Fore
SplineSet
250 532 m 261
 250 789 l 261
 402 789 l 261
 402 532 l 261
 250 532 l 261
50 532 m 257
 50 789 l 257
 202 789 l 257
 202 532 l 257
 50 532 l 257
EndSplineSet
EndChar

StartChar: quotesingle
Encoding: 39 39 46
GlifName: quotesingle
Width: 252
VWidth: 0
GlyphClass: 2
Flags: HW
LayerCount: 2
Fore
SplineSet
50 532 m 261
 50 789 l 261
 202 789 l 261
 202 532 l 261
 50 532 l 261
EndSplineSet
EndChar

StartChar: r
Encoding: 114 114 47
GlifName: r
Width: 587
VWidth: 0
Flags: W
HStem: 373 151<232.824 364.013>
VStem: 50 169<6 356.608 512 522>
LayerCount: 2
Fore
SplineSet
50 522 m 257
 219 522 l 257
 219 512 l 257
 245 520 271 524 299 524 c 256
 409.273376465 524 500 443 537 345 c 257
 372 345 l 257
 372 344.316375732 l 257
 352.808166504 362.329833984 327.80947876 373 299 373 c 256
 267 373 239 360 219 338 c 257
 219 6 l 257
 50 6 l 257
 50 522 l 257
EndSplineSet
PickledDataWithLists: "(dp0
Vxyz.fontra.layer-names
p1
(dp2
VKhaanaa/public.default
p3
Vdefault
p4
ss."
EndChar

StartChar: s
Encoding: 115 115 48
GlifName: s
Width: 508
VWidth: 0
Flags: HW
LayerCount: 2
Fore
SplineSet
68.6148213609 47 m 257
 135.614821361 159 l 257
 141.614821361 153 148.614821361 150 157.614821361 147 c 256
 210.614821361 123 254.614821361 131 280.614821361 162 c 256
 309.614821361 196 258.614821361 202 204.614821361 211 c 257
 76.6148213609 262 5.61482136094 345 80.6148213609 434 c 256
 143.614821361 510 296.614821361 527 423.614821361 473 c 256
 430.614821361 470 438.614821361 468 445.614821361 462 c 257
 378.614821361 332 l 257
 372.614821361 336 365.614821361 341 356.614821361 344 c 256
 303.614821361 366 281.614821361 359 255.614821361 328 c 256
 225.614821361 293 222.614821361 286 286.614821361 275 c 257
 405.614821361 225 508.614821361 164 432.614821361 75 c 256
 370.614821361 -1 217.614821361 -21 90.6148213609 34 c 256
 83.6148213609 36 76.6148213609 41 68.6148213609 47 c 257
EndSplineSet
PickledDataWithLists: "(dp0
Vxyz.fontra.layer-names
p1
(dp2
VKhaanaa/public.default
p3
Vdefault
p4
ss."
EndChar

StartChar: t
Encoding: 116 116 49
GlifName: t
Width: 514
VWidth: 0
Flags: HW
HStem: -3 151<328.285 459.024> 364 152<50 146.274 312 409> 741 20G<145 312>
VStem: 146.274 165.726<168.881 364 516 761>
LayerCount: 2
Fore
SplineSet
464 6 m 257
 441 0 418 -3 393 -3 c 256
 275 -3 179 75 148 184 c 257
 147.064117432 364 l 257
 50 364 l 257
 50 516 l 257
 146.273834229 516 l 257
 145 761 l 257
 312 761 l 257
 312 516 l 257
 409 516 l 257
 409 364 l 257
 312 364 l 257
 312 185 l 257
 332 162 360 148 393 148 c 256
 420 148 445 158 464 174 c 257
 464 6 l 257
EndSplineSet
PickledDataWithLists: "(dp0
Vxyz.fontra.layer-names
p1
(dp2
VKhaanaa/public.default
p3
Vdefault
p4
ss."
EndChar

StartChar: u
Encoding: 117 117 50
GlifName: u
Width: 598
VWidth: 0
Flags: HW
LayerCount: 2
Fore
SplineSet
548 8 m 257
 379 8 l 257
 379 18 l 257
 353 10 327 6 299 6 c 256
 181 6 85 84 54 193 c 257
 51 524 l 257
 218 524 l 257
 218 194 l 257
 238 171 266 157 299 157 c 256
 331 157 359 170 379 192 c 257
 379 524 l 257
 548 524 l 257
 548 8 l 257
EndSplineSet
PickledDataWithLists: "(dp0
Vxyz.fontra.layer-names
p1
(dp2
VKhaanaa/public.default
p3
Vdefault
p4
ss."
EndChar

StartChar: v
Encoding: 118 118 51
GlifName: v
Width: 652
VWidth: 0
Flags: HW
LayerCount: 2
Fore
SplineSet
50 511 m 257
 202 511 l 257
 326 144 l 257
 450 511 l 257
 602 511 l 257
 402 0 l 257
 250 0 l 257
 50 511 l 257
EndSplineSet
PickledDataWithLists: "(dp0
Vxyz.fontra.layer-names
p1
(dp2
VKhaanaa/public.default
p3
Vdefault
p4
ss."
EndChar

StartChar: w
Encoding: 119 119 52
GlifName: w
Width: 1044
VWidth: 0
Flags: HW
LayerCount: 2
Fore
SplineSet
446 511 m 257
 598 511 l 257
 718 144 l 257
 842 511 l 257
 994 511 l 257
 794 0 l 257
 646 0 l 257
 522 316.820007324 l 257
 398 0 l 257
 250 0 l 257
 50 511 l 257
 198 511 l 257
 322 144 l 257
 446 511 l 257
EndSplineSet
PickledDataWithLists: "(dp0
Vxyz.fontra.layer-names
p1
(dp2
VKhaanaa/public.default
p3
Vdefault
p4
ss."
EndChar

StartChar: x
Encoding: 120 120 53
GlifName: x
Width: 724
VWidth: 0
Flags: W
HStem: -1 20G<68.4269 229 481.563 674> 493 20G<67.4369 236 480.573 673>
LayerCount: 2
Fore
SplineSet
50 513 m 257
 236 511 l 257
 365.491546631 359.926544189 l 257
 498 512 l 257
 673 511 l 257
 452.585205078 258.317260742 l 257
 674 0 l 257
 499 -2 l 257
 362.290985107 154.804321289 l 257
 229 2 l 257
 51 -1 l 257
 274.5 255.5 l 257
 50 513 l 257
EndSplineSet
PickledDataWithLists: "(dp0
Vxyz.fontra.layer-names
p1
(dp2
VKhaanaa/public.default
p3
Vdefault
p4
ss."
EndChar

StartChar: y
Encoding: 121 121 54
GlifName: y
Width: 652
VWidth: 0
Flags: W
HStem: 491 20G<50 227.757 450 627.185>
LayerCount: 2
Fore
SplineSet
50 511 m 257
 221 511 l 257
 345 144 l 257
 450 511 l 257
 635 514 l 257
 356 -200 l 257
 208 -204 l 257
 277.328125 0 l 257
 277 0 l 257
 50 511 l 257
EndSplineSet
PickledDataWithLists: "(dp0
Vxyz.fontra.layer-names
p1
(dp2
VKhaanaa/public.default
p3
Vdefault
p4
ss."
EndChar

StartChar: z
Encoding: 122 122 55
GlifName: z
Width: 512
VWidth: 0
Flags: HW
LayerCount: 2
Fore
SplineSet
50 10 m 257
 50 162 l 257
 293 366 l 257
 50 366 l 257
 50 518 l 257
 503 518 l 257
 503 366 l 257
 301 162 l 257
 503 162 l 257
 503 10 l 257
 50 10 l 257
EndSplineSet
PickledDataWithLists: "(dp0
Vxyz.fontra.layer-names
p1
(dp2
VKhaanaa/public.default
p3
Vdefault
p4
ss."
EndChar

StartChar: three
Encoding: 51 51 56
Width: 435
VWidth: 0
Flags: HW
LayerCount: 2
Fore
SplineSet
50 -5.0703125 m 5
 50 118.7265625 l 5
 58.326171875 117.068359375 67.0361328125 116.189453125 76 116.189453125 c 4
 164.59765625 116.189453125 234 154.260742188 234 202.049804688 c 0
 234 247.192382812 193.44921875 283.25 139.595703125 288.15234375 c 0
 135.422851562 287.991210938 131.223632812 287.91015625 127 287.91015625 c 0
 122.829101562 287.91015625 118.681640625 287.990234375 114.55859375 288.149414062 c 0
 109.943359375 287.72265625 105.41796875 287.061523438 101 286.1796875 c 1
 101 288.959960938 l 1
 101 409.979492188 l 1
 101 412.756835938 l 1
 105.41796875 411.876953125 109.943359375 411.216796875 114.557617188 410.790039062 c 0
 118.681640625 410.94921875 122.829101562 411.030273438 127 411.030273438 c 0
 131.224609375 411.030273438 135.423828125 410.948242188 139.59765625 410.787109375 c 0
 193.450195312 415.686523438 234 451.690429688 234 496.080078125 c 0
 234 544.6796875 167.233398438 582.75 82 582.75 c 0
 73.0361328125 582.75 64.326171875 581.87109375 56 580.209960938 c 1
 56 704.009765625 l 1
 64.5537109375 704.704101562 73.2265625 705.060546875 82 705.060546875 c 0
 249.94140625 705.060546875 385 611.91015625 385 496.080078125 c 0
 385 438.852539062 356.532226562 387.0390625 310.310546875 349.418945312 c 1
 356.532226562 311.696289062 385 259.680664062 385 202.049804688 c 0
 385 87.0302734375 247.267578125 -6.1201171875 76 -6.1201171875 c 4
 67.2265625 -6.1201171875 58.5537109375 -5.7646484375 50 -5.0703125 c 5
EndSplineSet
EndChar

StartChar: eight
Encoding: 56 56 57
Width: 616
VWidth: 0
Flags: HW
LayerCount: 2
Fore
SplineSet
309.954681396 366.982788086 m 256
 301.641906738 366.84274292 293.393859863 365.848449707 286 364 c 257
 286 364.828063965 l 257
 236.898666382 354.945495605 201 312.437438965 201 260 c 256
 201 208.436508179 236.898666382 166.038650513 286 156.169952393 c 257
 286 157 l 257
 293.393859863 155.151535034 301.641937256 154.157287598 309.954711914 154.017227173 c 257
 318.230712891 154.163162231 326.28024292 155.23399353 334 157.131896973 c 257
 334 156.169952393 l 257
 383.101318359 166.038650513 419 208.436508179 419 260 c 256
 419 312.437438965 383.101318359 354.945495605 334 364.828063965 c 257
 334 363.864593506 l 257
 326.28024292 365.76574707 318.230682373 366.83682251 309.954681396 366.982788086 c 256
309.955078125 671.982421875 m 256
 301.641601562 671.842773438 293.393554688 670.848632812 286 669 c 257
 286 669.828125 l 257
 236.8984375 659.9453125 201 617.4375 201 565 c 256
 201 513.436523438 236.8984375 471.0390625 286 461.169921875 c 257
 286 462 l 257
 293.393554688 460.151367188 301.641601562 459.157226562 309.955078125 459.017578125 c 257
 318.23046875 459.163085938 326.280273438 460.234375 334 462.131835938 c 257
 334 461.169921875 l 257
 383.1015625 471.0390625 419 513.436523438 419 565 c 256
 419 617.4375 383.1015625 659.9453125 334 669.828125 c 257
 334 668.864257812 l 257
 326.280273438 670.765625 318.23046875 671.836914062 309.955078125 671.982421875 c 256
308.905792236 3.00155997276 m 0
 308.603973389 3.00155997276 308.302032471 3 308 3 c 0
 306.815063477 3 305.632049561 3.00789618492 304.45123291 3.02363610268 c 0
 299.66192627 3.0695514679 295.0050354 3.20466184616 290.134063721 3.60223269463 c 0
 155.541519165 12.7090320587 50 123.964859009 50 260 c 0
 50 317.334387881 68.486556728 370.167696619 99.8523353604 412.892593626 c 1
 68.4865907285 455.473557736 50 508.066625025 50 565 c 0
 50 701.991210938 155.5390625 813.286132812 290.12890625 822.397460938 c 0
 295.001953125 822.794921875 299.66015625 822.930664062 304.451171875 822.9765625 c 0
 305.631835938 822.9921875 306.815429688 823 308 823 c 0
 308.301757812 823 308.603515625 822.999023438 308.905273438 822.998046875 c 0
 309.92578125 823 310.956054688 823 312 823 c 0
 455 823 570 708 570 565 c 0
 570 508.066593082 551.513465846 455.473502878 520.147722665 412.892506528 c 1
 551.513465846 370.167623622 570 317.334346404 570 260 c 0
 570 118 455 3 312 3 c 0
 310.956176758 3 309.925842285 3.00155997276 308.905792236 3.00155997276 c 0
EndSplineSet
EndChar

StartChar: seven
Encoding: 55 55 58
Width: 610
VWidth: 0
Flags: HW
LayerCount: 2
Fore
SplineSet
213 0 m 257
 51 0 l 257
 389 610 l 257
 50 610 l 261
 50 762 l 261
 560 762 l 257
 560 610 l 257
 213 0 l 257
EndSplineSet
EndChar

StartChar: six
Encoding: 54 54 59
Width: 729
VWidth: 0
Flags: HW
LayerCount: 2
Fore
SplineSet
432 612 m 0
 317.670328662 612.000000062 223.601172199 526.905837875 205.969256783 415.812511233 c 1
 249.354779686 463.501108786 310.460782675 494.748835245 379.12890625 499.397460938 c 0
 384.006835938 499.727539062 388.66015625 499.930664062 393.451171875 499.9765625 c 0
 394.631835938 499.98828125 395.815429688 500 397 500 c 0
 397.301757812 500 397.603515625 499.999023438 397.905273438 499.998046875 c 0
 398.92578125 500 399.956054688 500 401 500 c 0
 524.041992188 500 626.35546875 414.859375 652.516601562 300 c 0
 656.759765625 281.370117188 659 261.958007812 659 242 c 0
 659 214.854492188 654.797851562 188.6953125 647 164.138671875 c 0
 627.598271266 103.033822211 585.939717489 51.8443866011 531.387759945 20.0410419676 c 0
 499.19846793 -2.30765230769 465.974024761 -14 432 -14 c 0
 429.58559311 -13.999995273 427.176423534 -13.9769506975 424.772687632 -13.9310623118 c 0
 416.946690964 -14.6385164443 409.01735085 -15 401 -15 c 0
 399.956054688 -15 398.92578125 -14.998046875 397.90625 -14.998046875 c 0
 397.604492188 -14.998046875 397.301757812 -15 397 -15 c 0
 395.815429688 -15 394.631835938 -14.9921875 393.451171875 -14.9765625 c 0
 388.662109375 -14.9130859375 384.004882812 -14.794921875 379.133789062 -14.3974609375 c 0
 325.603809587 -10.0245965702 276.634264559 9.94501177464 237.078901235 40.9840052466 c 1
 125.058137298 109.575386262 50 235.570027147 50 380 c 0
 50 597 221 773 432 773 c 0
 456.965667725 773 527.37109375 770.536132812 551 765.83203125 c 1
 551 599.90625 l 1
 528.096679688 607.749023438 457.554656982 612 432 612 c 0
382.955078125 366.982421875 m 0
 374.64227937 367.129037445 366.393982318 365.848222764 359 364 c 1
 359 364.828125 l 1
 309.898666382 354.945550887 274 312.437469496 274 260 c 0
 273.999999576 224.543768392 290.973779003 193.421277828 317.542301242 174.228595904 c 0
 327.941962956 168.082459008 338.862464818 162.750704809 350.222734557 158.317562061 c 0
 353.096623042 157.485658526 356.024062585 156.768044868 359 156.169921875 c 1
 359 157 l 1
 366.393972898 155.151752524 374.642176384 154.15762207 382.955078125 154.017578125 c 0
 391.230953058 154.16349388 399.280360492 155.234183537 407 157.131835938 c 1
 407 156.169921875 l 1
 456.101318359 166.038622896 492 208.436493023 492 260 c 0
 492 312.437469496 456.101318359 354.945550887 407 364.828125 c 1
 407 363.864257812 l 1
 399.28037029 365.76539277 391.230942554 366.836457727 382.955078125 366.982421875 c 0
EndSplineSet
EndChar

StartChar: nine
Encoding: 57 57 60
Width: 729
VWidth: 0
Flags: HW
LayerCount: 2
Fore
SplineSet
277 146 m 0
 391.330078125 146 485.3984375 231.09375 503.030273438 342.1875 c 1
 459.645507812 294.499023438 398.5390625 263.250976562 329.87109375 258.602539062 c 0
 324.993164062 258.272460938 320.33984375 258.069335938 315.548828125 258.0234375 c 0
 314.368164062 258.01171875 313.184570312 258 312 258 c 0
 311.698242188 258 311.396484375 258.000976562 311.094726562 258.001953125 c 0
 310.07421875 258 309.043945312 258 308 258 c 0
 184.958007812 258 82.64453125 343.140625 56.4833984375 458 c 0
 52.240234375 476.629882812 50 496.041992188 50 516 c 0
 50 543.145507812 54.2021484375 569.3046875 62 593.861328125 c 0
 81.4013671875 654.965820312 123.060546875 706.155273438 177.612304688 737.958984375 c 0
 209.801757812 760.307617188 243.026367188 772 277 772 c 0
 279.4140625 772 281.823242188 771.9765625 284.227539062 771.930664062 c 0
 292.053710938 772.638671875 299.982421875 773 308 773 c 0
 309.043945312 773 310.07421875 772.998046875 311.09375 772.998046875 c 0
 311.395507812 772.998046875 311.698242188 773 312 773 c 0
 313.184570312 773 314.368164062 772.9921875 315.548828125 772.9765625 c 0
 320.337890625 772.913085938 324.995117188 772.794921875 329.866210938 772.397460938 c 0
 383.396484375 768.024414062 432.366210938 748.0546875 471.920898438 717.015625 c 1
 583.94140625 648.424804688 659 522.4296875 659 378 c 0
 659 161 488 -15 277 -15 c 0
 252.034179688 -15 181.62890625 -12.5361328125 158 -7.83203125 c 1
 158 158.09375 l 1
 180.903320312 150.250976562 251.4453125 146 277 146 c 0
326.044921875 391.017578125 m 0
 334.357421875 390.87109375 342.606445312 392.151367188 350 394 c 1
 350 393.171875 l 1
 399.1015625 403.0546875 435 445.5625 435 498 c 0
 435 533.456054688 418.026367188 564.579101562 391.458007812 583.771484375 c 0
 381.057617188 589.91796875 370.137695312 595.249023438 358.77734375 599.682617188 c 0
 355.903320312 600.514648438 352.975585938 601.232421875 350 601.830078125 c 1
 350 601 l 1
 342.606445312 602.848632812 334.357421875 603.842773438 326.044921875 603.982421875 c 0
 317.76953125 603.836914062 309.719726562 602.765625 302 600.868164062 c 1
 302 601.830078125 l 1
 252.8984375 591.9609375 217 549.563476562 217 498 c 0
 217 445.5625 252.8984375 403.0546875 302 393.171875 c 1
 302 394.135742188 l 1
 309.719726562 392.234375 317.76953125 391.163085938 326.044921875 391.017578125 c 0
EndSplineSet
EndChar

StartChar: two
Encoding: 50 50 61
Width: 555
VWidth: 0
Flags: HW
LayerCount: 2
Fore
SplineSet
130 586 m 4
 257 586 359 502 359 398.80078125 c 4
 359 294.80078125 257 226 130 226 c 4
 104.4453125 226 79.9033203125 229.401367188 57 235.682617188 c 5
 54 0 l 5
 557 4.80078125 l 5
 557 126.400390625 l 5
 281.891601562 123.775390625 l 5
 417.301757812 167.858398438 512 270.616210938 512 400.400390625 c 4
 512 574 341 714.80078125 130 714.80078125 c 4
 105.034179688 714.80078125 80.62890625 712.829101562 57 709.06640625 c 5
 57 576.325195312 l 5
 79.9033203125 582.599609375 104.4453125 586 130 586 c 4
EndSplineSet
EndChar

StartChar: four
Encoding: 52 52 62
Width: 752
VWidth: 0
Flags: HW
LayerCount: 2
Fore
SplineSet
393.763671875 0 m 257
 393.763671875 192.014648438 l 257
 392.764648438 191.014648438 l 257
 57.7646484375 191.014648438 l 257
 379.764648438 774 l 257
 522.765625 774 l 257
 522.765625 0 l 257
 393.763671875 0 l 257
385.764648438 341.014648438 m 257
 385.764648438 521.014648438 l 257
 287.764648438 344.014648438 l 261
 385.764648438 341.014648438 l 257
EndSplineSet
EndChar

StartChar: period
Encoding: 46 46 63
Width: 252
VWidth: 0
Flags: HW
LayerCount: 2
Fore
SplineSet
50 -2 m 257
 50 140 l 257
 202 140 l 257
 202 -2 l 257
 50 -2 l 257
EndSplineSet
EndChar

StartChar: colon
Encoding: 58 58 64
Width: 252
VWidth: 0
Flags: HW
LayerCount: 2
Fore
SplineSet
50 398 m 261
 50 540 l 261
 202 540 l 261
 202 398 l 261
 50 398 l 261
50 -2 m 257
 50 140 l 257
 202 140 l 257
 202 -2 l 257
 50 -2 l 257
EndSplineSet
EndChar

StartChar: one
Encoding: 49 49 65
Width: 252
VWidth: 0
Flags: HW
LayerCount: 2
Fore
SplineSet
50 774 m 257
 202 774 l 257
 202 -2 l 257
 50 -2 l 257
 50 774 l 257
EndSplineSet
EndChar

StartChar: zero
Encoding: 48 48 66
Width: 864
VWidth: 0
Flags: HW
LayerCount: 2
Fore
SplineSet
737.5 380 m 256
 737.5 162 601.5 -14 432.5 -14 c 256
 263.5 -14 126.5 162 126.5 380 c 256
 126.5 597 263.5 773 432.5 773 c 256
 601.5 773 737.5 597 737.5 380 c 256
615.5 378 m 256
 615.5 507 534.5 612 432.5 612 c 256
 330.5 612 248.5 507 248.5 378 c 256
 248.5 248 330.5 143 432.5 143 c 256
 534.5 143 615.5 248 615.5 378 c 256
EndSplineSet
EndChar

StartChar: dollar
Encoding: 36 36 67
Width: 512
VWidth: 0
Flags: HW
LayerCount: 2
Fore
SplineSet
60 57 m 1
 135 182 l 1
 140.333333333 178 147.666666667 173 157 167 c 0
 182.333333333 152.333333333 209.333333333 148.333333333 238 155 c 0
 243.245543236 156.219893776 248.245543236 157.741136069 253 159.563726878 c 1
 253 309.608321509 l 1
 246.412287954 311.996122309 239.412287954 313.793348473 232 315 c 0
 199.333333333 333 171 353 147 375 c 128
 123 397 104 421.666666667 90 449 c 128
 76 476.333333333 70 506.333333333 72 539 c 128
 74 571.666666667 85.3333333333 605 106 639 c 0
 140.18626834 695.16315513 189.18626834 734.835552375 253 758.017191734 c 1
 253 1030 l 1
 332 1030 l 1
 332 774.489432646 l 1
 379.18066614 775.872802808 421.18066614 760.042991926 458 727 c 0
 460 725 463.5 722.5 468.5 719.5 c 128
 473.5 716.5 477 714 479 712 c 1
 404 587 l 1
 396 593.666666667 388.666666667 598.666666667 382 602 c 0
 365.936434903 610.877233343 349.269768237 615.532755695 332 615.966567057 c 1
 332 400.544512926 l 1
 351.361329682 388.93680017 368.361329682 377.255295861 383 365.5 c 0
 405 347.833333333 424.166666667 327.333333333 440.5 304 c 128
 456.833333333 280.666666667 464.5 254.333333333 463.5 225 c 128
 462.5 195.666666667 452 164 432 130 c 0
 408.666666667 90.6666666667 375.5 58.1666666667 332.5 32.5 c 0
 332.333343348 32.4005227733 332.166676681 32.3012358169 332 32.2021391306 c 2
 332 -182 l 1
 253 -182 l 1
 253 -0.345529008978 l 1
 235.934473186 -4.31867653794 218.767806519 -6.37016686828 201.5 -6.5 c 0
 157.166666667 -6.83333333333 117 9.33333333333 81 42 c 0
 79 44 75.5 46.5 70.5 49.5 c 128
 65.5 52.5 62 55 60 57 c 1
253 585.786987628 m 1
 246.98060167 579.74485626 241.647268336 572.815860384 237 565 c 0
 220.333333333 537.666666667 218.833333333 507.666666667 232.5 475 c 0
 237.901451462 462.089213579 244.734784795 451.313232858 253 442.672057836 c 1
 253 585.786987628 l 1
EndSplineSet
EndChar

StartChar: percent
Encoding: 37 37 68
Width: 691
VWidth: 0
Flags: HW
LayerCount: 2
Fore
SplineSet
204 483 m 260
 204 483 l 260
 203 483 203 483 202 483 c 260
 200 483 197 483 195 483 c 260
 128 488 75 543 75 611 c 260
 75 679 128 735 195 740 c 260
 197 740 200 740 202 740 c 260
 203 740 203 740 204 740 c 260
 204 740 l 261
 205 740 205 740 206 740 c 260
 278 740 335 683 335 611 c 260
 335 540 278 483 206 483 c 260
 205 483 205 483 204 483 c 260
205 665 m 260
 201 665 197 664 193 663 c 261
 193 664 l 261
 168 659 151 637 151 611 c 260
 151 585 168 564 193 559 c 261
 193 560 l 261
 197 559 201 558 205 558 c 261
 209 558 213 559 217 560 c 261
 217 559 l 261
 242 564 259 585 259 611 c 260
 259 637 242 659 217 664 c 261
 217 663 l 261
 213 664 209 665 205 665 c 260
509 82 m 256
 509 82 l 256
 508 82 508 82 507 82 c 256
 505 82 502 82 500 82 c 256
 433 87 380 142 380 210 c 256
 380 278 433 334 500 339 c 256
 502 339 505 339 507 339 c 256
 508 339 508 339 509 339 c 256
 509 339 l 257
 510 339 510 339 511 339 c 256
 583 339 640 282 640 210 c 256
 640 139 583 82 511 82 c 256
 510 82 510 82 509 82 c 256
510 264 m 256
 506 264 502 263 498 262 c 257
 498 263 l 257
 473 258 456 236 456 210 c 256
 456 184 473 163 498 158 c 257
 498 159 l 257
 502 158 506 157 510 157 c 257
 514 157 518 158 522 159 c 257
 522 158 l 257
 547 163 564 184 564 210 c 256
 564 236 547 258 522 263 c 257
 522 262 l 257
 518 263 514 264 510 264 c 256
535 818 m 257
 641 757 l 257
 156 -83 l 257
 50 -22 l 257
 535 818 l 257
EndSplineSet
EndChar

StartChar: semicolon
Encoding: 59 59 69
Width: 252
VWidth: 0
Flags: HW
LayerCount: 2
Fore
SplineSet
50 -2 m 5
 50 140 l 5
 202 140 l 5
 202 -2 l 5
 142 -134 l 5
 84 -130 l 5
 92.7671232877 -2 l 5
 50 -2 l 5
50 398 m 257
 50 540 l 257
 202 540 l 257
 202 398 l 257
 50 398 l 257
EndSplineSet
EndChar

StartChar: comma
Encoding: 44 44 70
Width: 252
VWidth: 0
Flags: HW
LayerCount: 2
Fore
SplineSet
50 -2 m 5
 50 140 l 5
 202 140 l 5
 202 -2 l 5
 142 -134 l 5
 84 -130 l 5
 92.7671232877 -2 l 5
 50 -2 l 5
EndSplineSet
EndChar

StartChar: slash
Encoding: 47 47 71
Width: 691
VWidth: 0
Flags: HW
LayerCount: 2
Fore
SplineSet
535 818 m 257
 641 757 l 257
 156 -83 l 257
 50 -22 l 257
 535 818 l 257
EndSplineSet
EndChar

StartChar: plus
Encoding: 43 43 72
Width: 644
VWidth: 0
Flags: HW
LayerCount: 2
Fore
SplineSet
594 496 m 261
 594 344 l 261
 50 344 l 261
 50 496 l 261
 594 496 l 261
246 692 m 261
 398 692 l 261
 398 149 l 261
 246 149 l 261
 246 692 l 261
EndSplineSet
EndChar

StartChar: hyphen
Encoding: 45 45 73
Width: 644
VWidth: 0
Flags: HW
LayerCount: 2
Fore
SplineSet
594 496 m 261
 594 344 l 261
 50 344 l 261
 50 496 l 261
 594 496 l 261
EndSplineSet
EndChar

StartChar: equal
Encoding: 61 61 74
Width: 644
VWidth: 0
Flags: HW
LayerCount: 2
Fore
SplineSet
594 296 m 261
 594 144 l 261
 50 144 l 261
 50 296 l 261
 594 296 l 261
594 546 m 257
 594 394 l 257
 50 394 l 257
 50 546 l 257
 594 546 l 257
EndSplineSet
EndChar

StartChar: five
Encoding: 53 53 75
Width: 384
VWidth: 0
Flags: HW
LayerCount: 2
Fore
SplineSet
50 4 m 1
 50 157 l 1
 58 155 67 154 76 154 c 0
 136 154 183 201 183 260 c 0
 183 320 136 367 76 367 c 0
 67 367 58 366 50 364 c 1
 50 397 l 1
 50 517 l 1
 50 773 l 1
 51 773 l 1
 51 774 l 1
 368 774 l 5
 367 622 l 5
 202 622 l 1
 202 485 l 1
 281 441 334 357 334 260 c 0
 334 118 219 3 76 3 c 0
 67 3 59 3 50 4 c 1
EndSplineSet
EndChar

StartChar: asterisk
Encoding: 42 42 76
Width: 644
VWidth: 0
Flags: HW
LayerCount: 2
Fore
SplineSet
594 496 m 1
 594 344 l 1
 505 344 l 1
 568 281 l 1
 461 174 l 1
 398 237 l 1
 398 149 l 1
 246 149 l 1
 246 237 l 1
 183 174 l 1
 76 281 l 1
 139 344 l 1
 50 344 l 1
 50 496 l 1
 139 496 l 1
 76 559 l 1
 183 666 l 1
 246 603 l 1
 246 692 l 1
 398 692 l 1
 398 603 l 1
 461 666 l 1
 568 559 l 1
 505 496 l 1
 594 496 l 1
EndSplineSet
EndChar

StartChar: numbersign
Encoding: 35 35 77
Width: 644
VWidth: 0
Flags: HW
LayerCount: 2
Fore
SplineSet
149 692 m 1
 301 692 l 1
 287.917127072 618 l 1
 435.917127072 618 l 1
 449 692 l 1
 601 692 l 1
 587.917127072 618 l 1
 599 618 l 1
 599 466 l 1
 561.044198895 466 l 1
 543.718232044 368 l 1
 599 368 l 1
 599 216 l 1
 516.845303867 216 l 1
 505 149 l 1
 353 149 l 1
 364.845303867 216 l 1
 216.845303867 216 l 1
 205 149 l 1
 53 149 l 1
 64.8453038674 216 l 1
 55 216 l 1
 55 368 l 1
 91.7182320442 368 l 1
 109.044198895 466 l 1
 55 466 l 1
 55 618 l 1
 135.917127072 618 l 1
 149 692 l 1
409.044198895 466 m 1
 261.044198895 466 l 1
 243.718232044 368 l 1
 391.718232044 368 l 1
 409.044198895 466 l 1
EndSplineSet
EndChar

StartChar: ampersand
Encoding: 38 38 78
Width: 649
VWidth: 0
Flags: HW
LayerCount: 2
Fore
SplineSet
388.892578125 810 m 1
 385.892578125 691 l 1
 360.892578125 689 242.892578125 624 223.892578125 605 c 0
 200.892578125 582 190.892578125 551 192.892578125 521 c 1
 215.551757812 498.340820312 l 1
 246.095703125 511.012695312 279.643554688 518 314.892578125 518 c 0
 323.666015625 518 332.338867188 517.560546875 340.892578125 516.704101562 c 1
 340.892578125 373 l 1
 452.024414062 261.868164062 l 1
 509.897460938 309.09375 564.953125 354.163085938 568.892578125 355.131835938 c 1
 568.892578125 202.295898438 l 2
 567.041015625 202.110351562 554.50390625 192.668945312 535.904296875 177.98828125 c 1
 599.892578125 114 l 1
 481.892578125 -4 l 1
 405.688476562 72.955078125 l 1
 358.41015625 34.77734375 318.403320312 3 314.892578125 3 c 0
 171.892578125 3 56.892578125 118 56.892578125 260 c 0
 56.892578125 307.479492188 69.5703125 351.873046875 91.7412109375 389.995117188 c 1
 75.892578125 406 l 1
 20.81640625 505.021484375 62.6962890625 608.463867188 116.892578125 712 c 0
 143.875 763.546875 356.1484375 829.728515625 388.892578125 810 c 1
321.578125 157.893554688 m 1
 208.534179688 272.051757812 l 1
 208.110351562 268.1015625 207.892578125 264.081054688 207.892578125 260 c 0
 207.892578125 201 254.892578125 154 314.892578125 154 c 0
 315.63671875 154 317.953125 155.373046875 321.578125 157.893554688 c 1
EndSplineSet
EndChar

StartChar: backslash
Encoding: 92 92 79
Width: 691
VWidth: 0
Flags: HW
LayerCount: 2
Fore
SplineSet
156 818 m 257
 641 -22 l 257
 535 -83 l 257
 50 757 l 257
 156 818 l 257
EndSplineSet
EndChar

StartChar: question
Encoding: 63 63 80
Width: 384
VWidth: 0
Flags: HW
LayerCount: 2
Fore
SplineSet
50 -2 m 257
 50 140 l 257
 202 140 l 257
 202 -2 l 257
 50 -2 l 257
50 828 m 1
 59 829 67 829 76 829 c 0
 219 829 334 714 334 572 c 0
 334 474.830761529 280.901364171 390.589886565 202 346.573282595 c 1
 202 230 l 1
 50 230 l 1
 50 315 l 1
 50 440 l 1
 50 468 l 1
 58 466 67 465 76 465 c 0
 136 465 183 512 183 572 c 0
 183 631 136 678 76 678 c 0
 67 678 58 677 50 675 c 1
 50 828 l 1
EndSplineSet
EndChar

StartChar: bracketleft
Encoding: 91 91 81
Width: 362
VWidth: 0
Flags: HW
LayerCount: 2
Fore
SplineSet
51 -80 m 6
 50 -80 l 5
 50 -79 l 5
 50 773 l 1
 50 774 l 1
 51 774 l 2
 312 774 l 1
 311 689 l 1
 144 689 l 1
 144 5 l 5
 311 5 l 5
 312 -80 l 5
 51 -80 l 6
EndSplineSet
EndChar

StartChar: bracketright
Encoding: 93 93 82
Width: 362
VWidth: 0
Flags: HW
LayerCount: 2
Fore
SplineSet
311 -81 m 2
 50 -81 l 1
 51 4 l 1
 218 4 l 1
 218 689 l 1
 51 689 l 1
 50 774 l 1
 311 774 l 2
 312 774 l 1
 312 773 l 1
 312 -80 l 1
 312 -81 l 1
 311 -81 l 2
EndSplineSet
EndChar

StartChar: less
Encoding: 60 60 83
Width: 644
VWidth: 0
Flags: HW
LayerCount: 2
Fore
SplineSet
594 546 m 5
 594 394 l 5
 379.895582329 337.718875502 l 5
 594 296 l 5
 594 144 l 5
 50 250 l 5
 50 251 l 5
 50 402 l 5
 50 403 l 5
 594 546 l 5
EndSplineSet
EndChar

StartChar: greater
Encoding: 62 62 84
Width: 644
VWidth: 0
Flags: HW
LayerCount: 2
Fore
SplineSet
50 546 m 5
 594 403 l 5
 594 402 l 5
 594 251 l 5
 594 250 l 5
 50 144 l 5
 50 296 l 5
 264 338 l 5
 50 394 l 5
 50 546 l 5
EndSplineSet
EndChar

StartChar: asciicircum
Encoding: 94 94 85
Width: 644
VWidth: 0
Flags: HW
LayerCount: 2
Fore
SplineSet
121 283 m 1
 264 617 l 1
 265 617 l 1
 416 617 l 1
 417 617 l 1
 523 283 l 1
 371 283 l 1
 329 497 l 1
 273 283 l 1
 121 283 l 1
EndSplineSet
EndChar

StartChar: grave
Encoding: 96 96 86
Width: 252
VWidth: 0
Flags: HW
LayerCount: 2
Fore
SplineSet
163 516 m 261
 -19 698 l 261
 89 805 l 261
 271 623 l 261
 163 516 l 261
EndSplineSet
EndChar

StartChar: at
Encoding: 64 64 87
Width: 864
VWidth: 0
Flags: HW
LayerCount: 2
Fore
SplineSet
524 166 m 1025
485 420 m 257
 481 421 477 421 473 421 c 256
 443 421 419 398 419 368 c 256
 419 338 443 314 473 314 c 256
 477 314 481 315 485 316 c 257
 485 420 l 257
561 236 m 1025
487 228 m 1
 473 239 l 1
 401 239 343 296 343 368 c 0
 343 439 401 492 473 492 c 0
 477 492 481 492 485 492 c 2
 561 492 l 1
 568.010742188 318.353515625 l 1
 572.831054688 287.021484375 653.69921875 219.975585938 662 326 c 2
 661.986328125 327.467773438 657.757707957 340.566438744 658 342 c 0
 670 413 649 487 595 541 c 0
 505 631 359 628 268 537 c 0
 176 445 174 299 264 209 c 0
 334 139 438 125 524 166 c 0
 548 177 637 54 637 54 c 1
 485 -46 283 -32 153 98 c 0
 4 247 7 493 161 647 c 0
 314 800 560 804 709 655 c 0
 823 541 850 362 787 220 c 1
 679.654298086 157.57419036 584.089114196 199.539097811 487 228 c 1
EndSplineSet
EndChar

StartChar: underscore
Encoding: 95 95 88
Width: 544
VWidth: 0
Flags: HW
LayerCount: 2
Fore
SplineSet
544 196 m 261
 544 44 l 261
 0 44 l 261
 0 196 l 261
 544 196 l 261
EndSplineSet
EndChar

StartChar: bar
Encoding: 124 124 89
Width: 252
VWidth: 0
Flags: HW
LayerCount: 2
Fore
SplineSet
65 871 m 257
 187 871 l 257
 187 -99 l 257
 65 -99 l 257
 65 871 l 257
EndSplineSet
EndChar

StartChar: braceright
Encoding: 125 125 90
Width: 419
VWidth: 0
Flags: HW
LayerCount: 2
Fore
SplineSet
179 -85 m 1
 179 50 l 1
 189 37 202 29 216 29 c 0
 233 29 247 40 257 58 c 1
 257 228 l 1
 338 369 l 5
 256 470 l 1
 257 654 l 1
 247 672 233 684 216 684 c 0
 202 684 189 676 179 663 c 1
 179 798 l 1
 190 803 203 805 216 805 c 0
 276 805 325 742 341 655 c 1
 342 485 l 1
 342 485 l 1
 451 358 l 1
 342 228 l 1
 342 228 l 1
 341 58 l 1
 325 -29 276 -92 216 -92 c 0
 203 -92 190 -90 179 -85 c 1
EndSplineSet
EndChar

StartChar: braceleft
Encoding: 123 123 91
Width: 419
VWidth: 0
Flags: HW
LayerCount: 2
Fore
SplineSet
451 -85 m 1
 440 -90 427 -92 414 -92 c 0
 354 -92 305 -29 289 58 c 1
 288 228 l 1
 288 228 l 1
 179 358 l 1
 288 485 l 1
 288 485 l 1
 289 655 l 1
 305 742 354 805 414 805 c 0
 427 805 440 803 451 798 c 1
 451 663 l 1
 441 676 428 684 414 684 c 0
 397 684 383 672 373 654 c 1
 374 470 l 1
 292 369 l 5
 373 228 l 1
 373 58 l 1
 383 40 397 29 414 29 c 0
 428 29 441 37 451 50 c 1
 451 -85 l 1
EndSplineSet
EndChar

StartChar: parenleft
Encoding: 40 40 92
Width: 555
VWidth: 0
Flags: HW
LayerCount: 2
Fore
SplineSet
432 744 m 256
 304 744 154 579 154 378 c 260
 154 176 304 11 432 11 c 256
 505 -7 l 257
 481 -12 457 -14 432 -14 c 256
 221 -14 50 162 50 380 c 256
 50 597 221 773 432 773 c 256
 457 773 481 771 505 766 c 257
 432 744 l 256
EndSplineSet
EndChar

StartChar: parenright
Encoding: 41 41 93
Width: 555
VWidth: 0
Flags: HW
LayerCount: 2
Fore
SplineSet
123 744 m 260
 50 766 l 261
 74 771 98 773 123 773 c 260
 334 773 505 597 505 380 c 260
 505 162 334 -14 123 -14 c 260
 98 -14 74 -12 50 -7 c 261
 123 11 l 260
 251 11 401 176 401 378 c 260
 401 579 251 744 123 744 c 260
EndSplineSet
EndChar

StartChar: asciitilde
Encoding: 126 126 95
Width: 644
VWidth: 0
Flags: HW
LayerCount: 2
Fore
SplineSet
549 577 m 257
 549 425 l 257
 548.596972099 423.50077041 492.831054688 344 421 344 c 11
 373 344 369 344 321 344 c 27
 257 344 232 400 168 400 c 27
 117 400 50 344 50 344 c 257
 50 496 l 257
 50 496 114 552 164 552 c 27
 230 552 258 497 324 497 c 27
 368 497 369 497 413 496.581054688 c 24
 482 497 549 577 549 577 c 257
EndSplineSet
EndChar

StartChar: .notdef
Encoding: 0 0 96
Width: 512
VWidth: 1000
Flags: W
HStem: -27 5<12.0634 499.937> 22 5<49 463> 81 5<240.057 259.943> 174 5<240.057 259.943> 185 5<236.057 255.943> 373 5<273 349.823> 422 5<236.063 325.882> 543 5<162.057 181.943> 611 5<240.905 262.944> 660 5<236.027 281.959> 773 5<49 463> 822 5<12.0634 499.937>
VStem: -5 5<-9.93662 809.937> 44 5<27 773> 145 5<560.063 614.162> 194 5<560.063 591.292> 219 5<202.063 409.937> 223 5<98.0634 161.937> 268 5<202.063 373> 272 5<98.0634 161.937> 351 5<488.786 529.411> 401 5<486.868 535.134> 463 5<27 773> 512 5<-9.93662 809.937>
LayerCount: 2
Fore
SplineSet
512 800 m 2xffff0f
 512 812 502 822 490 822 c 2
 22 822 l 2
 10 822 0 812 -0 800 c 2
 -0 0 l 2
 -0 -12 10 -22 22 -22 c 2
 490 -22 l 2
 502 -22 512 -12 512 -0 c 2
 512 800 l 2xffff0f
-5 800 m 2
 -5 815 7 827 22 827 c 2
 490 827 l 2
 505 827 517 815 517 800 c 2
 517 -0 l 2
 517 -15 505 -27 490 -27 c 2
 22 -27 l 2
 7 -27 -5 -15 -5 0 c 2
 -5 800 l 2
463 773 m 1
 49 773 l 1
 49 27 l 1
 463 27 l 1
 463 773 l 1
468 775 m 2
 468 25 l 2
 468 24 466 22 465 22 c 2
 47 22 l 2
 46 22 44 24 44 25 c 2
 44 775 l 2
 44 776 46 778 47 778 c 2
 465 778 l 2
 466 778 468 776 468 775 c 2
356 508 m 0
 356 507 348 422 326 422 c 2
 246 422 l 2
 234 422 224 412 224 400 c 2
 224 212 l 2
 224 200 234 190 246 190 c 0
 258 190 268 200 268 212 c 2
 268 375 l 2xffffaf
 268 376 270 378 271 378 c 2
 340 378 l 2
 384 378 401 489 401 508 c 0
 401 591 337 660 258 660 c 0
 231 660 150 642 150 604 c 2
 150 570 l 2
 150 558 160 548 172 548 c 0
 184 548 194 558 194 570 c 2
 194 591 l 2
 194 607 250 616 258 616 c 0
 311 616 356 563 356 508 c 0
250 174 m 0
 238 174 228 164 228 152 c 2
 228 108 l 2
 228 96 238 86 250 86 c 0
 262 86 272 96 272 108 c 2
 272 152 l 2xffff5f
 272 164 262 174 250 174 c 0
250 81 m 0
 235 81 223 93 223 108 c 2
 223 152 l 2
 223 167 235 179 250 179 c 0
 265 179 277 167 277 152 c 2
 277 108 l 2
 277 93 265 81 250 81 c 0
258 611 m 1
 237 611 220 604 199 590 c 1
 199 570 l 2
 199 555 187 543 172 543 c 0
 157 543 145 555 145 570 c 2
 145 604 l 2
 145 645 227 665 258 665 c 0
 340 665 406 594 406 508 c 0
 406 485 387 373 340 373 c 2
 273 373 l 1
 273 212 l 2
 273 197 261 185 246 185 c 0
 231 185 219 197 219 212 c 2
 219 400 l 2xffffaf
 219 415 231 427 246 427 c 2
 325 427 l 1
 344 459 351 486 351 508 c 0
 351 573 299 594 258 611 c 1
EndSplineSet
EndChar

StartChar: uniE366
Encoding: 58214 58214 97
Width: 1024
Flags: HW
HStem: 1.48242 50.0947<382.887 731.282> 10.0146 49.9766<359.097 598.79> 127.31 50.0576<306.942 478.001> 226.005 49.9902<630 657.745> 484.355 49.9775<343.409 415.186 421.432 497.12> 496.353 50.0693<426.166 501.866 533.873 596.821> 724.213 49.9971<351.951 418.894 426 541.07>
VStem: 100.808 50.1875<270.032 407 431.29 542.783> 223.554 53.4414<220.765 254.34 300.009 410.789> 239 37.3555<254.585 402.106> 689.808 49.8584<299.885 413 421.091 437.384> 785.005 49.9902<226.686 437 470.172 532.226> 806.895 50.0615<122.118 443.485>
LayerCount: 2
Fore
SplineSet
561.466796875 749.2734375 m 0
 554.901041667 749.2734375 545.396158854 748.991210938 532.952148438 748.426757812 c 128
 520.507486979 747.862955729 511.001953125 747.581054688 504.435546875 747.581054688 c 0
 499.068359375 747.581054688 491.018554688 747.691731771 480.286132812 747.913085938 c 128
 469.554361979 748.135091146 461.5703125 748.251627604 456.333984375 748.262695312 c 0
 455.3203125 748.336263021 453.686848958 748.396158854 451.43359375 748.442382812 c 0
 446.62890625 748.444335938 436.103515625 746.508463542 419.857421875 742.634765625 c 0
 418.345703125 742.274088542 416.888346354 741.802083333 415.485351562 741.21875 c 0
 409.318684896 738.651692708 399.7265625 734.787434896 386.708984375 729.625976562 c 0
 367.162109375 721.875976562 352.899414062 716.063802083 343.920898438 712.189453125 c 128
 334.942382812 708.314453125 322.232747396 702.24609375 305.791992188 693.984375 c 128
 289.351888021 685.72265625 275.393880208 676.902994792 263.91796875 667.525390625 c 128
 252.44140625 658.1484375 242.376627604 647.762044271 233.723632812 636.366210938 c 0
 209.883138021 606.105143229 195.345052083 568.564778646 190.109375 523.745117188 c 0
 187.369791667 500.293945312 186 474.600260417 186 446.6640625 c 0
 186 446.501302083 186.002278646 446.339192708 186.006835938 446.177734375 c 0
 186.200846354 439.692708333 186.840820312 432.890950521 187.926757812 425.772460938 c 128
 189.012044271 418.653971354 190.063151042 412.627929688 191.080078125 407.694335938 c 128
 192.097005208 402.760091146 193.905924479 396.179036458 196.506835938 387.951171875 c 128
 199.107747396 379.723307292 200.940104167 374.061848958 202.00390625 370.966796875 c 128
 203.068359375 367.871744792 205.342773438 361.612630208 208.827148438 352.189453125 c 128
 212.311523438 342.765625 214.365885417 337.1953125 214.990234375 335.478515625 c 0
 258.313802083 222.2109375 320.977539062 141.080403646 402.981445312 92.0869140625 c 0
 455.112304688 60.9417317708 512.54296875 45.369140625 575.2734375 45.369140625 c 0
 595.162109375 45.369140625 615.466471354 46.9573567708 636.186523438 50.1337890625 c 1
 645.368815104 48.3675130208 654.573893229 47.484375 663.801757812 47.484375 c 0
 692.523111979 47.484375 717.432291667 55.1559244792 738.529296875 70.4990234375 c 128
 759.626302083 85.8421223958 771.597330729 104.84765625 774.442382812 127.515625 c 0
 776.678059896 127.481119792 778.863932292 127.463867188 781 127.463867188 c 0
 802.513020833 127.463867188 820.770182292 137.163411458 835.771484375 156.5625 c 0
 844.290364583 167.579427083 853.963216146 186.289713542 864.790039062 212.693359375 c 0
 870.584309896 226.822916667 874.536783854 235.345052083 876.647460938 238.259765625 c 0
 878.405273438 240.686848958 879.473632812 243.294270833 879.852539062 246.08203125 c 2
 889.852539062 319.682617188 l 2
 889.872070312 319.825195312 889.889648438 319.968424479 889.905273438 320.112304688 c 2
 897.905273438 393.711914062 l 2
 897.968424479 394.293294271 898 394.877278646 898 395.463867188 c 0
 898 395.609049479 897.998046875 395.753580729 897.994140625 395.897460938 c 2
 895.994140625 471.096679688 l 2
 895.95703125 472.506835938 895.737955729 473.893229167 895.336914062 475.255859375 c 0
 895.086263021 476.108072917 893.283203125 481.301106771 889.927734375 490.834960938 c 128
 886.572916667 500.368164062 884.599934896 507.482747396 884.008789062 512.178710938 c 0
 884.008789062 512.178710938 884.008789062 512.178710938 884.077148438 515.928710938 c 0
 884.077148438 529.718424479 878.593098958 553.2109375 867.625 586.40625 c 1
 861.946614583 623.77734375 841.947916667 655.653971354 807.62890625 682.036132812 c 0
 777.757161458 704.999674479 740.861653646 721.946614583 696.942382812 732.876953125 c 128
 653.023111979 743.807942708 607.864583333 749.2734375 561.466796875 749.2734375 c 0
834.077148438 515.928710938 m 0
 834.077148438 515.519856771 834.064453125 514.908528646 834.0390625 514.094726562 c 128
 834.013020833 513.281575521 834 512.671549479 834 512.264648438 c 0
 834 508.031575521 834.937174479 502.568359375 836.811523438 495.875 c 0
 837.863606771 492.120442708 839.558268229 486.876627604 841.895507812 480.143554688 c 128
 844.232747396 473.411132812 845.622721354 469.360677083 846.065429688 467.9921875 c 2
 847.9765625 396.12890625 l 1
 842.987630208 346.998046875 837.217773438 299.7109375 830.666992188 254.267578125 c 0
 827.818033854 249.694010417 823.352213542 239.990559896 817.26953125 225.157226562 c 0
 807.671875 201.752278646 799.654947917 185.888020833 793.21875 177.564453125 c 0
 788.01171875 170.830729167 783.938802083 167.463867188 781 167.463867188 c 0
 777.354166667 167.463867188 773.41796875 167.52734375 769.19140625 167.654296875 c 1
 763.520833333 190.37890625 760.685546875 216.750651042 760.685546875 246.76953125 c 0
 760.685546875 256.541015625 761.088867188 264.959635417 761.895507812 272.025390625 c 0
 761.965169271 272.635416667 762 273.248372396 762 273.864257812 c 0
 762 276.085611979 761.555338542 278.23828125 760.666015625 280.322265625 c 2
 751.34375 302.161132812 l 1
 759.9609375 308.021809896 767.141276042 315.099609375 772.884765625 323.39453125 c 0
 781.483723958 335.8125 789.676106771 348.374023438 797.461914062 361.079101562 c 0
 798.358398438 362.541992188 799.01953125 364.069010417 799.4453125 365.66015625 c 2
 811.4453125 410.459960938 l 2
 811.845052083 411.952148438 812.03125 413.353515625 812.00390625 414.6640625 c 2
 809.99609375 509.409179688 l 2
 809.9375 512.178710938 809.196289062 514.816731771 807.772460938 517.323242188 c 2
 787.772460938 552.5234375 l 2
 786.924153646 554.016276042 785.860026042 555.406575521 784.580078125 556.694335938 c 2
 722.580078125 619.094726562 l 2
 719.722005208 621.971028646 716.157877604 624.059895833 711.887695312 625.361328125 c 2
 669.887695312 638.161132812 l 2
 667.980794271 638.742513021 666.012044271 639.129882812 663.981445312 639.323242188 c 2
 579.981445312 647.323242188 l 2
 579.688476562 647.351236979 563.39453125 648.441731771 531.099609375 650.594726562 c 0
 530.402994792 650.640950521 529.703125 650.6640625 529 650.6640625 c 2
 517 650.6640625 l 2
 512.802083333 650.6640625 508.864583333 649.873372396 505.1875 648.291992188 c 0
 503.33984375 647.497070312 499.840169271 646.589518229 494.688476562 645.569335938 c 0
 487.131835938 644.073242188 481.064778646 642.487630208 476.487304688 640.8125 c 0
 409.913085938 616.065104167 365.814453125 584.48046875 344.19140625 546.05859375 c 0
 328.493489583 518.166015625 320.200846354 503.170572917 319.313476562 501.072265625 c 0
 318.870768229 500.02734375 318.539388021 498.959309896 318.319335938 497.868164062 c 2
 308.319335938 448.267578125 l 2
 308.193033854 447.639322917 308.104166667 447.006510417 308.052734375 446.369140625 c 2
 304.052734375 396.768554688 l 2
 304.017578125 396.337565104 304 395.902669271 304 395.463867188 c 0
 304 395.180664062 304.007486979 394.899088542 304.022460938 394.619140625 c 2
 306.022460938 356.21875 l 2
 306.077148438 355.160807292 306.235026042 354.115559896 306.49609375 353.083007812 c 0
 311.983723958 331.382486979 318.446614583 314.150065104 325.884765625 301.385742188 c 0
 345.509114583 258.482096354 375.153320312 221.262695312 414.817382812 189.727539062 c 0
 433.466471354 172.936523438 459.677083333 160.225585938 493.44921875 151.594726562 c 128
 527.220703125 142.964518229 560.844075521 137.378580729 594.319335938 134.836914062 c 128
 627.793945312 132.294596354 644.999023438 130.903971354 645.934570312 130.665039062 c 0
 650.060221354 130.665039062 656.227864583 130.679361979 664.4375 130.708007812 c 128
 672.646484375 130.736653646 678.783854167 130.750976562 682.849609375 130.750976562 c 0
 698.746744792 130.750976562 712.612630208 130.444661458 724.447265625 129.83203125 c 1
 722.409505208 117.673177083 715.668619792 107.575520833 704.224609375 99.5390625 c 128
 692.780598958 91.5026041667 679.306315104 87.484375 663.801757812 87.484375 c 0
 657.296549479 87.484375 650.734375 88.2698567708 644.115234375 89.8408203125 c 0
 641.804036458 90.3896484375 639.432291667 90.6640625 637 90.6640625 c 0
 635.262369792 90.6640625 633.550455729 90.5231119792 631.864257812 90.2412109375 c 0
 612.453450521 86.9931640625 593.58984375 85.369140625 575.2734375 85.369140625 c 0
 523.609375 85.369140625 476.137369792 98.2978515625 432.857421875 124.155273438 c 0
 394.667317708 146.971679688 361.244140625 178.180013021 332.587890625 217.780273438 c 128
 303.931640625 257.380533854 280.72265625 300.382161458 262.9609375 346.78515625 c 0
 245.588541667 394.572265625 236.6015625 427.948567708 236 446.9140625 c 0
 236.0078125 473.48828125 237.3046875 497.844726562 239.890625 519.983398438 c 0
 244.395833333 558.548502604 256.483398438 590.289388021 276.153320312 615.206054688 c 0
 288.271158854 631.204101562 304.811848958 644.883789062 325.775390625 656.245117188 c 128
 346.738932292 667.606445312 374.435221354 680.112304688 408.864257812 693.762695312 c 0
 421.273111979 698.682617188 430.491536458 702.389322917 436.51953125 704.8828125 c 0
 445.775390625 707.2578125 450.706705729 708.4453125 451.313476562 708.4453125 c 0
 451.715169271 708.4453125 452.325520833 708.415039062 453.14453125 708.354492188 c 128
 453.962890625 708.294596354 454.581380208 708.264648438 455 708.264648438 c 0
 460.353515625 708.264648438 468.538736979 708.150716146 479.555664062 707.922851562 c 128
 490.572591146 707.694986979 498.865885417 707.581054688 504.435546875 707.581054688 c 0
 510.761067708 707.581054688 520.231119792 707.862955729 532.845703125 708.426757812 c 128
 545.460286458 708.991210938 555.000651042 709.2734375 561.466796875 709.2734375 c 0
 601.97265625 709.2734375 641.435546875 704.476888021 679.85546875 694.883789062 c 128
 718.275390625 685.291341146 749.322591146 671.395182292 772.997070312 653.1953125 c 0
 799.099283854 633.130208333 814.152994792 608.8671875 818.158203125 580.40625 c 0
 818.321614583 579.244791667 819.721354167 574.786132812 822.357421875 567.030273438 c 0
 830.170572917 544.045898438 834.077148438 527.012044271 834.077148438 515.928710938 c 0
558.0234375 487.405273438 m 0
 558.778645833 487.048502604 560.383789062 486.194010417 562.838867188 484.841796875 c 128
 565.293945312 483.488932292 567.4140625 482.383789062 569.19921875 481.526367188 c 128
 570.985026042 480.668294271 573.353190104 479.843424479 576.303710938 479.051757812 c 128
 579.254882812 478.260091146 582.153645833 477.864257812 585 477.864257812 c 0
 591.666666667 477.864257812 597.5 479.864257812 602.5 483.864257812 c 128
 607.5 487.864257812 610 492.530924479 610 497.864257812 c 0
 610 507.181966146 604.530273438 513.444010417 593.590820312 516.650390625 c 0
 592.478190104 517.115885417 590.257161458 518.296223958 586.927734375 520.19140625 c 128
 583.598958333 522.086588542 580.1484375 523.639648438 576.576171875 524.850585938 c 128
 573.003255208 526.060872396 568.759765625 526.889322917 563.845703125 527.3359375 c 0
 562.902994792 527.421223958 561.954427083 527.463867188 561 527.463867188 c 0
 546.989583333 527.463867188 534.803059896 525.254231771 524.440429688 520.834960938 c 0
 516.515299479 517.454752604 508.163411458 511.625976562 499.384765625 503.348632812 c 0
 495.033203125 499.245768229 491.797200521 496.658528646 489.676757812 495.586914062 c 0
 484.006184896 492.721679688 480.361979167 488.700520833 478.744140625 483.5234375 c 2
 468.744140625 451.5234375 l 2
 468.248046875 449.935546875 468 448.315755208 468 446.6640625 c 0
 468 446.48046875 468.002929688 446.297526042 468.008789062 446.115234375 c 2
 470.008789062 386.915039062 l 2
 470.112304688 383.851236979 471.044270833 380.965494792 472.8046875 378.2578125 c 2
 498.8046875 338.2578125 l 2
 499.284505208 337.51953125 502.463216146 334.368164062 508.340820312 328.803710938 c 0
 517.147460938 320.466471354 525.818033854 314.783854167 534.352539062 311.755859375 c 0
 555.598632812 303.092447917 573.768229167 297.752929688 588.861328125 295.737304688 c 0
 590.162760417 295.563476562 591.478190104 295.47265625 592.807617188 295.46484375 c 0
 602.995768229 295.403645833 618.480143229 294.088216146 639.260742188 291.518554688 c 128
 660.041992188 288.949544271 675.909830729 287.603190104 686.864257812 287.479492188 c 0
 690.808919271 287.007486979 695.060872396 286.750976562 699.620117188 286.709960938 c 0
 701.176757812 286.696289062 702.981119792 286.744466146 705.033203125 286.854492188 c 2
 711.66015625 271.327148438 l 1
 711.010416667 264.062174479 710.685546875 255.876302083 710.685546875 246.76953125 c 0
 710.685546875 218.795572917 713.038411458 193.278645833 717.744140625 170.21875 c 1
 709.077473958 170.573567708 697.445963542 170.750976562 682.849609375 170.750976562 c 0
 678.751953125 170.750976562 672.598307292 170.736653646 664.388671875 170.708007812 c 128
 656.1796875 170.679361979 650.028320312 170.665039062 645.934570312 170.665039062 c 0
 598.944986979 170.665039062 560.043945312 173.603190104 529.231445312 179.479492188 c 128
 498.419596354 185.355794271 472.597330729 197.754231771 451.764648438 216.674804688 c 0
 451.383138021 217.020507812 450.987630208 217.355794271 450.578125 217.680664062 c 0
 415.690755208 245.290690104 389.668294271 278.022135417 372.510742188 315.875 c 0
 372.242513021 316.466145833 371.940104167 317.046223958 371.603515625 317.615234375 c 0
 365.7578125 327.477864583 360.521484375 341.442382812 355.89453125 359.508789062 c 1
 354.034179688 395.232421875 l 1
 357.870117188 442.802734375 l 1
 367.336914062 489.754882812 l 2
 368.980143229 493.462565104 371.069335938 497.567382812 373.604492188 502.069335938 c 128
 376.139648438 506.571940104 379.075846354 511.58984375 382.413085938 517.123046875 c 128
 385.750325521 522.65625 388.215494792 526.838541667 389.80859375 529.669921875 c 0
 406.32421875 559.014973958 442.225585938 583.963541667 497.512695312 604.515625 c 0
 499.890950521 605.386067708 503.861328125 606.360677083 509.423828125 607.439453125 c 128
 514.986328125 608.518880208 519.370768229 609.59375 522.577148438 610.6640625 c 2
 527.9453125 610.6640625 l 2
 547.667317708 609.595703125 590.009765625 606.006184896 654.97265625 599.895507812 c 1
 687.70703125 589.918945312 l 1
 743.5 533.765625 l 1
 760.091796875 504.564453125 l 1
 761.955078125 416.629882812 l 1
 751.197265625 376.467773438 l 1
 745.040364583 366.487304688 738.679361979 356.695638021 732.114257812 347.092773438 c 1
 731.490559896 348.299804688 729.391276042 351.048177083 725.81640625 355.337890625 c 0
 720.857421875 361.2890625 713.918619792 364.264648438 705 364.264648438 c 0
 698.333333333 364.264648438 692.5 362.264648438 687.5 358.264648438 c 128
 682.5 354.264648438 680 349.597981771 680 344.264648438 c 0
 680 340.228841146 682.126953125 335.658528646 686.380859375 330.553710938 c 2
 687.6953125 327.474609375 l 1
 677.796223958 327.586588542 662.6484375 328.902669271 642.251953125 331.422851562 c 128
 621.856119792 333.942382812 606.238932292 335.281575521 595.400390625 335.440429688 c 0
 585.704427083 336.931966146 572.685221354 341.014973958 556.342773438 347.689453125 c 0
 553.411783854 348.886067708 550.145833333 351.189127604 546.544921875 354.598632812 c 0
 544.389973958 356.638346354 542.728515625 358.16796875 541.560546875 359.1875 c 2
 519.8359375 392.609375 l 1
 518.083984375 444.455078125 l 1
 525.130859375 467.005859375 l 2
 528.392578125 469.282552083 532.523763021 472.778320312 537.524414062 477.493164062 c 0
 542.158528646 481.862955729 545.620442708 484.536132812 547.91015625 485.512695312 c 0
 550.457682292 486.599283854 553.828776042 487.230143229 558.0234375 487.405273438 c 0
EndSplineSet
LCarets2: 5 0 0 0 0 0
Ligature2: "'dlig' Discretionary Ligatures in Latin lookup 0-1" j a l e b i
EndChar

StartChar: uniE367
Encoding: 58215 58215 98
Width: 1024
Flags: HW
HStem: 296.96 5.54<487.442 492.499>
LayerCount: 2
Fore
SplineSet
470.5 881.509765625 m 6
 470.5 883.580078125 472.180664062 885.259765625 474.25 885.259765625 c 4
 476.319335938 885.259765625 478 883.580078125 478 881.509765625 c 6
 478 270.64453125 l 5
 495.372070312 244.5859375 l 6
 495.66015625 244.155273438 495.860351562 243.661132812 495.94921875 243.129882812 c 6
 504.94921875 189.129882812 l 6
 504.982421875 188.928710938 505 188.720703125 505 188.509765625 c 4
 505 186.440429688 503.319335938 184.759765625 501.25 184.759765625 c 4
 499.391601562 184.759765625 497.846679688 186.115234375 497.55078125 187.889648438 c 6
 488.682617188 241.1015625 l 5
 471.127929688 267.43359375 l 6
 470.731445312 268.028320312 470.5 268.7421875 470.5 269.509765625 c 6
 470.5 881.509765625 l 6
37.75 176.450195312 m 1053
37.75 176.450195312 m 29
 897.25 176.450195312 l 29
 474.25 899.509765625 l 29
 37.75 176.450195312 l 29
EndSplineSet
LCarets2: 5 0 0 0 0 0
Ligature2: "'dlig' Discretionary Ligatures in Latin lookup 0-1" s a m o s a
EndChar

StartChar: uniE368
Encoding: 58216 58216 99
Width: 1024
Flags: H
HStem: 96 131<380.037 646.025> 232 192<475.943 598.057> 246 192<279.943 402.057> 413 192<562.943 685.057> 423 192<364.943 487.057>
VStem: 245 192<280.943 403.057> 330 192<457.943 580.057> 441 192<266.943 389.057> 528 192<447.943 570.057> 644 192<280.943 403.057>
LayerCount: 2
Fore
SplineSet
330 519 m 0x8a
 330 572 373 615 426 615 c 0
 479 615 522 572 522 519 c 0
 522 466 479 423 426 423 c 0
 373 423 330 466 330 519 c 0x8a
528 509 m 0x9080
 528 562 571 605 624 605 c 0
 677 605 720 562 720 509 c 0
 720 456 677 413 624 413 c 0
 571 413 528 456 528 509 c 0x9080
644 342 m 0xa040
 644 395 687 438 740 438 c 0
 793 438 836 395 836 342 c 0
 836 289 793 246 740 246 c 0
 687 246 644 289 644 342 c 0xa040
441 328 m 0xc1
 441 381 484 424 537 424 c 0
 590 424 633 381 633 328 c 0
 633 275 590 232 537 232 c 0
 484 232 441 275 441 328 c 0xc1
245 342 m 0xa4
 245 395 288 438 341 438 c 0
 394 438 437 395 437 342 c 0
 437 289 394 246 341 246 c 0
 288 246 245 289 245 342 c 0xa4
790 277 m 0
 790 177 666 96 514 96 c 0
 362 96 220 179 220 279 c 0
 220 250 348 227 505 227 c 0
 662 227 790 248 790 277 c 0
EndSplineSet
Ligature2: "'dlig' Discretionary Ligatures in Latin lookup 0-1" l a d d o o
EndChar

StartChar: uniE369
Encoding: 58217 58217 100
Width: 1090
Flags: HW
HStem: 71 56.768<444.587 644.467> 320.6 86.4<647.456 739.079> 358.168 48.832<422.52 541.615> 407.8 244.8<4.11046 1087.24> 653.25 97.7504<442.271 606.147>
VStem: 215.667 151.2<221.4 306.168> 597.267 21.6<197.144 279.256> 767.667 120<221.4 283.8>
LayerCount: 2
Fore
SplineSet
616.8671875 238.200195312 m 0
 616.8671875 284.735351562 651.193359375 322.599609375 693.267578125 322.599609375 c 0
 735.341796875 322.599609375 769.66796875 284.735351562 769.66796875 238.200195312 c 0
 769.66796875 191.665039062 735.341796875 153.799804688 693.267578125 153.799804688 c 0
 651.193359375 153.799804688 616.8671875 191.665039062 616.8671875 238.200195312 c 0
620.8671875 238.200195312 m 0
 620.8671875 193.53515625 653.741210938 157.799804688 693.267578125 157.799804688 c 0
 732.79296875 157.799804688 765.66796875 193.53515625 765.66796875 238.200195312 c 0
 765.66796875 282.864257812 732.79296875 318.599609375 693.267578125 318.599609375 c 0
 653.741210938 318.599609375 620.8671875 282.864257812 620.8671875 238.200195312 c 0
364.8671875 242.967773438 m 0
 364.8671875 307.276367188 417.758789062 360.16796875 482.067382812 360.16796875 c 0
 546.375976562 360.16796875 599.267578125 307.276367188 599.267578125 242.967773438 c 0
 599.267578125 178.659179688 546.375976562 125.767578125 482.067382812 125.767578125 c 0
 417.758789062 125.767578125 364.8671875 178.659179688 364.8671875 242.967773438 c 0
368.8671875 242.967773438 m 0
 368.8671875 180.876953125 419.975585938 129.767578125 482.067382812 129.767578125 c 0
 544.159179688 129.767578125 595.267578125 180.876953125 595.267578125 242.967773438 c 0
 595.267578125 305.059570312 544.159179688 356.16796875 482.067382812 356.16796875 c 0
 419.975585938 356.16796875 368.8671875 305.059570312 368.8671875 242.967773438 c 0
217.673828125 405 m 1
 218.749023438 221.423828125 367.837890625 73 551.66796875 73 c 0
 735.497070312 73 884.5859375 221.423828125 885.662109375 405 c 1
 217.673828125 405 l 1
546.8671875 753 m 0
 639.885742188 753 724.116210938 715.4453125 785.2265625 654.666992188 c 0
 785.249023438 654.645507812 785.270507812 654.623046875 785.291015625 654.599609375 c 2
 1078.06738281 654.599609375 l 2
 1078.328125 654.599609375 1079.72851562 655.583007812 1081.19042969 658.688476562 c 0
 1083.40039062 663.384765625 1084.51757812 668.8515625 1086.03613281 673.416992188 c 0
 1086.3125 674.24609375 1086.3515625 675.600585938 1088.32910156 675.600585938 c 0
 1089.9453125 675.600585938 1090.49511719 674.23046875 1090.49511719 673.272460938 c 0
 1090.49511719 673.053710938 1090.46777344 672.848632812 1090.46777344 672.599609375 c 2
 1090.46777344 419.799804688 l 2
 1090.46777344 412.26953125 1083.99804688 405.799804688 1076.46777344 405.799804688 c 2
 889.665039062 405.799804688 l 1
 889.018554688 219.649414062 737.970703125 69 551.66796875 69 c 0
 365.364257812 69 214.31640625 219.649414062 213.669921875 405.799804688 c 1
 14.0673828125 405.799804688 l 2
 6.537109375 405.799804688 0.0673828125 412.26953125 0.0673828125 419.799804688 c 2
 0.0673828125 672.599609375 l 1
 0.0673828125 672.599609375 0 672.899414062 0 673.309570312 c 0
 0 674.197265625 0.3154296875 675.600585938 2.3095703125 675.600585938 c 0
 4.5712890625 675.600585938 4.783203125 673.66015625 4.951171875 673.330078125 c 0
 7.9248046875 667.498046875 13.2373046875 654.599609375 15.66796875 654.599609375 c 2
 315.64453125 654.599609375 l 1
 315.62890625 654.599609375 315.62109375 654.600585938 315.62109375 654.600585938 c 0
 314.5390625 654.625 313.66796875 655.51171875 313.66796875 656.599609375 c 0
 313.66796875 657.166015625 313.90234375 657.676757812 314.280273438 658.041015625 c 0
 375.030273438 716.538085938 455.813476562 753 546.8671875 753 c 0
779.040039062 655.1328125 m 1
 718.9453125 713.24609375 637.091796875 749 546.8671875 749 c 0
 458.654296875 749 380.2109375 714.376953125 320.5625 658.4921875 c 1
 344.756835938 657.963867188 455.83984375 655.624023438 571.188476562 654.599609375 c 2
 749.962890625 654.599609375 l 2
 760.15234375 654.7421875 769.87890625 654.918945312 779.040039062 655.1328125 c 1
1086.46777344 661.053710938 m 1
 1085.0625 657.133789062 1082.82226562 650.599609375 1078.06738281 650.599609375 c 2
 749.995117188 650.599609375 l 2
 725.669921875 650.260742188 698.715820312 650.1171875 670.489257812 650.1171875 c 0
 638.360351562 650.1171875 604.583007812 650.303710938 571.165039062 650.599609375 c 2
 15.66796875 650.599609375 l 2
 10.2841796875 650.599609375 6.53515625 659.467773438 4.0673828125 665.404296875 c 1
 4.0673828125 419.799804688 l 2
 4.0673828125 414.530273438 8.7978515625 409.799804688 14.0673828125 409.799804688 c 2
 1076.46777344 409.799804688 l 2
 1081.73730469 409.799804688 1086.46777344 414.530273438 1086.46777344 419.799804688 c 2
 1086.46777344 661.053710938 l 1
EndSplineSet
LCarets2: 3 0 0 0
Ligature2: "'dlig' Discretionary Ligatures in Latin lookup 0-1" d o s a
EndChar

StartChar: uniE36A
Encoding: 58218 58218 101
Width: 1024
Flags: H
LayerCount: 2
Fore
SplineSet
449.200195312 398 m 4
 449.200195312 344.299804688 494.5 300.799804688 550 300.799804688 c 4
 605.5 300.799804688 650.799804688 344.299804688 650.799804688 398 c 4
 650.799804688 451.700195312 605.5 495.200195312 550 495.200195312 c 4
 494.5 495.200195312 449.200195312 451.700195312 449.200195312 398 c 4
214 398 m 4
 214 577 365 722 550 722 c 4
 735 722 886 577 886 398 c 4
 886 219 735 74 550 74 c 4
 365 74 214 219 214 398 c 4
EndSplineSet
Ligature2: "'dlig' Discretionary Ligatures in Latin lookup 0-1" m e d u b a d a
EndChar

StartChar: uniE36B
Encoding: 58219 58219 102
Width: 1024
Flags: H
LayerCount: 2
Fore
SplineSet
863 531 m 0
 850.275390625 524.655273438 838.49609375 529.793945312 825 531 c 0
 812 532.161132812 797.24609375 531.529296875 785 535 c 0
 774.419921875 535 763.505859375 530.759765625 755 529 c 0
 695 529 l 0
 579 531 l 0
 531 519 l 0
 467 513 l 0
 417.524414062 498.974609375 449.03515625 500.979492188 485 501 c 0
 545.454101562 501.034179688 608.040720351 478.81801305 665 499 c 0
 708.30520757 514.344034184 805.401500482 545.598000453 865 518 c 0
 866.623901424 517.248027508 860.75 530.625 863 531 c 0
201 455 m 0
 201 442 209 431 219 431 c 0
 229 431 237 442 237 455 c 0
 237 468 229 479 219 479 c 0
 209 479 201 468 201 455 c 0
209 523 m 0
 209 516 214 511 221 511 c 0
 228 511 233 516 233 523 c 0
 233 530 228 535 221 535 c 0
 214 535 209 530 209 523 c 0
337 417 m 0
 337 408 344 401 353 401 c 0
 362 401 369 408 369 417 c 0
 369 426 362 433 353 433 c 0
 344 433 337 426 337 417 c 0
453 457 m 0
 443 457 435 451 435 443 c 0
 435 435 443 429 453 429 c 1024
360 492 m 0
 360 482 367 474 376 474 c 0
 385 474 392 482 392 492 c 0
 392 502 385 510 376 510 c 0
 367 510 360 502 360 492 c 0
171 443 m 1024
551 335 m 0
 551 322 559 311 569 311 c 0
 579 311 587 322 587 335 c 0
 587 348 579 359 569 359 c 0
 559 359 551 348 551 335 c 0
559 403 m 0
 559 396 564 391 571 391 c 0
 578 391 583 396 583 403 c 0
 583 410 578 415 571 415 c 0
 564 415 559 410 559 403 c 0
687 297 m 0
 687 288 694 281 703 281 c 0
 712 281 719 288 719 297 c 0
 719 306 712 313 703 313 c 0
 694 313 687 306 687 297 c 0
803 337 m 0
 793 337 785 331 785 323 c 0
 785 315 793 309 803 309 c 1024
710 372 m 0
 710 362 717 354 726 354 c 0
 735 354 742 362 742 372 c 0
 742 382 735 390 726 390 c 0
 717 390 710 382 710 372 c 0
521 323 m 1024
651 335 m 0
 651 322 659 311 669 311 c 0
 679 311 687 322 687 335 c 0
 687 348 679 359 669 359 c 0
 659 359 651 348 651 335 c 0
659 403 m 0
 659 396 664 391 671 391 c 0
 678 391 683 396 683 403 c 0
 683 410 678 415 671 415 c 0
 664 415 659 410 659 403 c 0
351 335 m 0
 351 322 359 311 369 311 c 0
 379 311 387 322 387 335 c 0
 387 348 379 359 369 359 c 0
 359 359 351 348 351 335 c 0
359 403 m 0
 359 396 364 391 371 391 c 0
 378 391 383 396 383 403 c 0
 383 410 378 415 371 415 c 0
 364 415 359 410 359 403 c 0
487 297 m 0
 487 288 494 281 503 281 c 0
 512 281 519 288 519 297 c 0
 519 306 512 313 503 313 c 0
 494 313 487 306 487 297 c 0
585 323 m 0
 585 315 593 309 603 309 c 0
 613 309 621 315 621 323 c 0
 621 331 613 337 603 337 c 0
 593 337 585 331 585 323 c 0
510 372 m 0
 510 362 517 354 526 354 c 0
 535 354 542 362 542 372 c 0
 542 382 535 390 526 390 c 0
 517 390 510 382 510 372 c 0
187 297 m 0
 187 288 194 281 203 281 c 0
 212 281 219 288 219 297 c 0
 219 306 212 313 203 313 c 0
 194 313 187 306 187 297 c 0
51 335 m 0
 51 322 59 311 69 311 c 0
 79 311 87 322 87 335 c 0
 87 348 79 359 69 359 c 0
 59 359 51 348 51 335 c 0
59 403 m 0
 59 396 64 391 71 391 c 0
 78 391 83 396 83 403 c 0
 83 410 78 415 71 415 c 0
 64 415 59 410 59 403 c 0
285 323 m 0
 285 315 293 309 303 309 c 0
 313 309 321 315 321 323 c 0
 321 331 313 337 303 337 c 0
 293 337 285 331 285 323 c 0
210 372 m 0
 210 362 217 354 226 354 c 0
 235 354 242 362 242 372 c 0
 242 382 235 390 226 390 c 0
 217 390 210 382 210 372 c 0
67 527 m 2
 138 460 l 2
 139.253579475 458.81704472 126 452.395507812 126 442 c 2
 126 225 l 2
 126 217.000490953 134 210 126 210 c 2
 63 210 l 2
 55 210 47.888517297 217.001116063 48 225 c 2
 52 512 l 2
 52 529.869140625 67 527 67 527 c 2
77.5400390625 537 m 2
 798 555 l 2
 810.885742188 555.322265625 857 554 857 554 c 2
 891.74609375 472 l 2
 895.066070402 464.16492975 890.206054688 457 882.206054688 457 c 2
 147.206054688 457 l 2
 139.206054688 457 126.805203798 463.522814518 126.74609375 472 c 2
 70 522 l 2
 64.0419921875 538.369140625 77.5400390625 537 77.5400390625 537 c 2
141 459 m 2
 888 459 l 2
 896 459 903 452 903 444 c 2
 903 225 l 2
 903 217 896 210 888 210 c 2
 141 210 l 2
 133 210 126 217 126 225 c 2
 126 444 l 2
 126 452 133 459 141 459 c 2
EndSplineSet
LCarets2: 5 0 0 0 0 0
Ligature2: "'dlig' Discretionary Ligatures in Latin lookup 0-1" d h o k l a
EndChar

StartChar: uniE36C
Encoding: 58220 58220 103
Width: 1024
Flags: HMW
LayerCount: 2
Fore
SplineSet
76 272 m 4
 75.6218050604 273.231947504 277.521512026 202.751988498 496 206 c 4
 706.934897208 212.036958729 768.867346939 279.125 870 296 c 4
 870 296 741.727272727 -22 496 -22 c 4
 262.64821671 -22 104.438605718 192.573309056 76 272 c 4
728 609 m 1
 737 612 l 0
 743 612 l 0
 748.912109375 612 761 603.719726562 761 597 c 0
 761 566.385742188 746.237424182 533.076108507 734 510 c 0
 722.431640625 488.185546875 720.230355915 464.806836108 710 444 c 0
 690.71875 404.78515625 684.42986154 361.802554069 650 330 c 0
 636.421875 317.458007812 624.392894868 300 608 300 c 0
 594.46484375 300 580.758726143 297.700850058 569 300 c 0
 526.556640625 308.298828125 447.862624918 295.363210949 443 360 c 0
 437.873046875 428.150390625 500.271278646 454.684407611 563 471 c 0
 620.809570312 486.036132812 703.426757811 486.657226562 719 561 c 0
 722.311287096 576.80725859 731.444335938 590.391601562 728 609 c 1
454 293 m 0
 456.451988104 298.149175017 444.685995249 293.846151401 442 296 c 0
 442 296 423.129640188 266 463 266 c 0
 473.280308646 266 484 260.64801828 484 275 c 0
 484 281.170238271 467.743892216 287 463 287 c 0
 442 287 l 0
 438.556109617 287 430 289.488511524 430 290 c 0
 430 290.003294479 448.005524446 299.002148396 448 299 c 1024
276 376 m 0
 283 371 l 0
 297.835488194 355.265368829 316 368.310257922 316 335 c 0
 316 328.014689523 312.516038553 323 307 323 c 0
 281.511546839 323 274 331.365069181 274 353 c 0
 274 360.515976219 266.279296875 374.159179688 276 376 c 0
189 409 m 0
 169 386 l 0
 155.106038492 379.824890557 124 384.194577094 124 365 c 0
 124 332.872123775 198.279155343 304.757937277 226 290 c 0
 271.723307758 265.657967269 321.657469928 249.523324976 376 236 c 0
 441.365264766 219.733629693 507.792429662 265.056170342 574 248 c 0
 654.383228902 227.291944444 679.859920795 307.88353 748 320 c 0
 769 320 l 0
 782.325888569 320 811 336.061460556 811 353 c 0
 811 367.580674302 800.438515586 375.346641632 790 386 c 0
 777.720174868 398.532565263 766.595729987 407 748 407 c 0
 733.343100634 407 715.314414489 411.090575545 703 416 c 0
 690.22222851 421.094152377 676.094403244 419 664 419 c 0
 642.945359942 419 623.454696982 429.62547592 604 431 c 0
 568.041752273 433.540542133 538.349915008 446.685388147 502 452 c 0
 463.488430238 457.6306609 422.687056724 437.386210364 388 440 c 0
 359.445591686 442.151673378 318.285381251 410.803813216 301 428 c 0
 273.570677658 455.287784025 219.076171875 434.338867188 189 409 c 0
73 347 m 0
 73 415 251 473 466 473 c 0
 681 473 856 418 856 350 c 0
 856 282 678 224 463 224 c 0
 248 224 73 279 73 347 c 0
EndSplineSet
Ligature2: "'dlig' Discretionary Ligatures in Latin lookup 0-1" b i r y a n i
LCarets2: 6 0 0 0 0 0 0
EndChar

StartChar: uniE36D
Encoding: 58221 58221 104
Width: 1024
Flags: HW
LayerCount: 2
Fore
SplineSet
271 440 m 29
 253 476 l 25
 286 491 l 25
 325 473 l 25
 307 455 l 25
 337 446 l 25
 325 419 l 25
 292 407 l 25
 271 440 l 29
76 512 m 0
 76 419 265.0078125 345.885742188 502 344 c 0
 738.01171875 342.122070312 924.771484375 407.161132812 931 512 c 0
 936.515625 604.8359375 742 680 505 680 c 0
 268 680 76 605 76 512 c 0
13 404 m 0
 13 556 232 680 502 680 c 0
 772 680 991 556 991 404 c 0
 991 252 772 128 502 128 c 0
 232 128 13 252 13 404 c 0
614.010742188 509.2578125 m 0
 323 531.2890625 l 1
 372 557.64453125 l 1
 321 602 l 1
 358.689453125 592.29296875 358.177734375 589.192382812 402.202148438 589.192382812 c 0
 614.010742188 579.96875 l 0
 642.329101562 579.96875 671.037109375 574.18359375 687.55859375 557.661132812 c 2
 722.9140625 522.306640625 l 2
 745.246964553 499.974355435 746.020943904 447.228182206 724.419921875 423.323242188 c 0
 691.798273782 387.222240117 636.840421833 378.3122542 586.518608371 363.758578862 c 1
 528 391 l 1
 567 403 l 1
 539 431 l 1
 554.666666667 431 570.342678923 431.54105559 586 431 c 0
 643.427858272 429.015518517 692.055334394 434.350934481 665.3984375 502.305664062 c 1
 650.484375 508.0078125 631.671875 509.2578125 614.010742188 509.2578125 c 0
EndSplineSet
Ligature2: "'dlig' Discretionary Ligatures in Latin lookup 0-1" c h i n g r i m
EndChar

StartChar: uniE36E
Encoding: 58222 58222 105
Width: 1024
Flags: HW
LayerCount: 2
Fore
SplineSet
420 70 m 28
 415.333333333 69.3333333333 411.5 67.5 408.5 64.5 c 132
 405.5 61.5 402.333333333 57 399 51 c 132
 395.666666667 45 393.333333333 41 392 39 c 4
 383.333333333 27 376 14 370 0 c 4
 362.666666667 -14.6666666667 358 -27.3333333333 356 -38 c 4
 354 -50 354.666666667 -61 358 -71 c 4
 362.666666667 -85 368.666666667 -94.3333333333 376 -99 c 4
 384.0390625 -103.384765625 394.422851562 -103.51171875 407.151367188 -99.380859375 c 4
 411.632486979 -98.05859375 415.522135417 -96.4954427083 418.8203125 -94.69140625 c 132
 422.117838542 -92.88671875 426.143554688 -90.24609375 430.897460938 -86.76953125 c 132
 435.650716146 -83.2923177083 439.3515625 -80.7024739583 442 -79 c 4
 448.666666667 -75 460.666666667 -66.6666666667 478 -54 c 4
 491.333333333 -44.6666666667 499.333333333 -38.6666666667 502 -36 c 132
 504.666666667 -33.3333333333 505.333333333 -30.6666666667 504 -28 c 4
 501.333333333 -22.6666666667 496.666666667 -18 490 -14 c 4
 487.333333333 -12 483.333333333 -9.66666666667 478 -7 c 132
 472.666666667 -4.33333333333 468.666666667 -2 466 0 c 4
 458.666666667 4.66666666667 454 8.66666666667 452 12 c 6
 444 28 l 6
 442.666666667 30 440.666666667 32.8333333333 438 36.5 c 132
 435.333333333 40.1666666667 433.333333333 43.3333333333 432 46 c 4
 431.333333333 47.3333333333 430.666666667 49.3333333333 430 52 c 132
 429.333333333 54.6666666667 428.833333333 57 428.5 59 c 132
 428.166666667 61 427.666666667 63 427 65 c 132
 426.333333333 67 425.5 68.5 424.5 69.5 c 132
 423.5 70.5 422 70.6666666667 420 70 c 28
504 145 m 1
 479.333333333 159.666666667 463.666666667 179.5 457 204.5 c 128
 450.333333333 229.5 448 259.666666667 450 295 c 0
 452 332.333333333 456 397.333333333 462 490 c 1
 504 544 l 1
 504.666666667 542 505.833333333 533.666666667 507.5 519 c 128
 509.166666667 504.333333333 512 493.666666667 516 487 c 1
 513.333333333 444.333333333 520.333333333 397.333333333 537 346 c 0
 547 315.333333333 552 268.333333333 552 205 c 0
 552 195 549.833333333 182.5 545.5 167.5 c 128
 541.166666667 152.5 536.333333333 145 531 145 c 2
 525 145 l 1
 504 145 l 1
871.110351562 266.705078125 m 0
 873.488245888 269.341269391 874.963709755 270.57141262 875.536743164 270.395507812 c 128
 876.109776573 270.219603005 875.988804893 268.573769672 875.173828125 265.458007812 c 0
 874.232825998 261.857287773 875.169349436 256.941597669 877.983398438 250.7109375 c 0
 880.093751738 246.037597463 881.012005319 243.247639781 880.73815918 242.341064453 c 128
 880.464313041 241.434489125 878.623533418 241.170410349 875.215820312 241.548828125 c 0
 872.584983119 241.84104843 871.66343364 240.533431243 872.451171875 237.625976562 c 0
 873.134270108 235.102077516 873.220614509 233.714544964 872.710205078 233.463378906 c 128
 872.199795647 233.212212849 870.542487705 233.826633422 867.73828125 235.306640625 c 0
 861.923151602 238.375329948 862.130833894 241.072595573 868.361328125 243.3984375 c 0
 871.407660129 244.534237024 872.965602838 247.283260461 873.03515625 251.645507812 c 2
 871.99609375 256.942382812 l 1
 871.234375 256.111219618 870.853515625 255.07280816 870.853515625 253.827148438 c 128
 870.853515625 252.580403646 870.334309896 251.95703125 869.295898438 251.95703125 c 2
 865.24609375 251.95703125 l 2
 863.584852317 251.95703125 863.584852317 252.788085938 865.24609375 254.450195312 c 128
 866.907552083 256.111653646 867.73828125 257.946289062 867.73828125 259.954101562 c 128
 867.73828125 261.961741289 868.862304688 264.21206681 871.110351562 266.705078125 c 0
893.805664062 292.044921875 m 0
 894.180664062 293.083496094 894.620646159 293.855265299 895.125610352 294.360229492 c 128
 895.630574544 294.865193685 896.056152344 294.958984375 896.40234375 294.641601562 c 0
 897.232882693 293.879692588 896.78268738 292.633273318 895.051757812 290.90234375 c 0
 894.042027582 289.89261352 893.450678298 289.46707641 893.277709961 289.625732422 c 128
 893.104741624 289.784388434 893.280726324 290.590784918 893.805664062 292.044921875 c 0
827 236 m 1
 828.333333333 230 835.101888021 223.497395833 847.305664062 216.4921875 c 0
 847.903526669 216.252634185 850.837120419 218.865915435 856.106445312 224.33203125 c 0
 856.702148438 224.77734375 858.3984375 224.015950521 861.1953125 222.047851562 c 0
 863.731770833 220.015950521 865.635742188 218.954752604 866.907226562 218.864257812 c 0
 871.635742188 218.288085938 873.989908854 216.787434896 873.969726562 214.362304688 c 0
 873.989908854 211.454101562 875.374674479 210.361328125 878.124023438 211.083984375 c 0
 884.041341146 211.694661458 884.263020833 208.079427083 878.7890625 200.23828125 c 0
 876.9296875 197.412760417 876.199101058 196.054286941 876.597303173 196.162860824 c 0
 876.865767724 196.054286941 877.859375 196.256510417 879.578125 196.76953125 c 0
 886.916666667 198.845103739 890.5859375 196.95480426 890.5859375 191.098632812 c 2
 890.5859375 186.737304688 l 1
 894.740234375 190.891601562 l 2
 895.580078125 191.630533854 896.21840984 192.397435641 896.655229519 193.192306922 c 0
 900.885076506 201.064102307 901.562174479 204.728190104 898.686523438 204.184570312 c 0
 897.562174479 204.061523438 896.939127604 206.103841146 896.817382812 210.311523438 c 0
 896.939127604 214.103841146 896.246744792 216.561848958 894.740234375 217.685546875 c 0
 893.580078125 218.561848958 893.614583333 220.327473958 894.84375 222.982421875 c 0
 896.28125 225.660807292 896.627604167 227.010742188 895.8828125 227.032226562 c 0
 895.294270833 227.010742188 895.941731771 229.503255208 897.825195312 234.509765625 c 0
 900.608398438 240.836588542 901.034179688 243.883138021 899.102539062 243.649414062 c 0
 897.938934987 243.843438151 895.896291758 240.519870443 892.974609375 233.678710938 c 2
 888.716796875 223.708984375 l 1
 878.747070312 224.133789062 l 2
 872.915690104 224.044596354 868.553702409 225.346864479 865.661107227 228.040593436 c 0
 861.220369076 232.013531145 859.143229167 234.446940104 859.4296875 235.340820312 c 0
 859.809895833 237.113606771 857.680989583 238.01574707 853.04296875 238.047241211 c 0
 847.680989583 238.01574707 844.409505208 237.396158854 843.228515625 236.188476562 c 0
 827 236 l 1
849 258 m 1
 846.333333333 255.333333333 845.586588542 252.626627604 846.759765625 249.879882812 c 0
 847.586588542 247.293294271 845.833333333 246 841.5 246 c 0
 841.166666667 246 840.239583333 243.347005208 838.71875 238.041015625 c 0
 851 243 l 0
 849 251 l 1
 851 251 852.320714945 252.002760195 852.962144834 254.008280586 c 0
 854.987381611 256.669426862 855.944986979 259.862955729 855.834960938 263.588867188 c 0
 855.944986979 265.196289062 856.797200521 265.715494792 858.391601562 265.146484375 c 0
 860.130533854 264.382161458 864.215494792 267.151692708 870.646484375 273.455078125 c 0
 876.882161458 279.818359375 880.967122396 281.895507812 882.901367188 279.686523438 c 0
 884.300455729 277.895507812 886.342773438 275.645182292 889.028320312 272.935546875 c 128
 891.676106771 270.311848958 893.9609375 265.5 895.8828125 258.5 c 0
 898.627604167 250.166666667 900.393229167 246.601236979 901.1796875 247.803710938 c 0
 904.393229167 251.267903646 904.323893229 253.682617188 900.971679688 255.047851562 c 0
 899.657226562 255.682617188 898.96484375 257.525716146 898.89453125 260.577148438 c 0
 898.960025706 263.323670595 897.505924144 266.750753928 894.532226562 270.858398438 c 2
 890.170898438 276.8828125 l 1
 895.051757812 280.932617188 l 2
 898.350585938 283.644205729 899.354492188 285.028971354 898.063476562 285.086914062 c 128
 896.687825521 285.028971354 894.818684896 283.955729167 892.456054688 281.8671875 c 0
 890.152018229 279.955729167 888.074869792 280.648111979 886.224609375 283.944335938 c 0
 884.741536458 287.314778646 883.391276042 289.114908854 882.173828125 289.344726562 c 0
 881.290369344 289.085274857 879.282556844 291.577787878 876.150390625 296.822265625 c 2
 871.684570312 304.299804688 l 1
 878.227539062 316.03515625 l 2
 882.742513021 324.01171875 886.03125 329.169921875 888.09375 331.509765625 c 0
 889.364583333 333.169921875 890.119066327 334.10121427 890.357198981 334.303642809 c 0
 890.785732994 334.767880936 889.927408854 334.6328125 887.782226562 333.8984375 c 0
 885.260742188 333.299479167 883 330.833333333 881 326.5 c 128
 879 322.166666667 877.985042259 320.221580693 877.955126778 320.664742078 c 0
 866 278 l 2
 841 292 l 1
 853.666666667 287.333333333 856.333333333 276 849 258 c 1
873 352 m 1
 862 370 l 1
 860.371582031 371.849487305 l 0
 861.45719401 375.949829102 863.220377604 378.747395833 865.661132812 380.2421875 c 0
 868.553710938 382.080729167 869.938476562 381.553059896 869.815429688 378.659179688 c 0
 869.938476562 375.553059896 871.600260417 374.168294271 874.80078125 374.504882812 c 0
 877.600260417 374.834960938 880.02351672 372.947676325 882.070550159 368.843028976 c 0
 884.02351672 364.947676325 884.395507812 361.919270833 883.186523438 359.7578125 c 0
 882.395507812 357.919270833 882.958007812 357.50390625 884.874023438 358.51171875 c 0
 886.958007812 359.50390625 888.8984375 357.842122396 890.6953125 353.526367188 c 0
 892.231770833 349.175455729 892.340291341 346.230102539 891.020874023 344.690307617 c 0
 889.617103174 342.821524425 886.702918604 342.209911469 882.278320312 342.85546875 c 2
 876.046875 343.764648438 l 1
 873 352 l 1
853 363.509765625 m 1
 852.31640625 364.950195312 l 2
 852.10546875 365.650065104 851.774682798 366.559736469 851.324048395 367.679209408 c 0
 851.108016132 368.559736469 849.794270833 367.927083333 847.3828125 365.78125 c 0
 845.794270833 363.927083333 844.985392253 361.44132487 844.956176758 358.323974609 c 0
 844.985392253 355.44132487 846.140625 353.296875 848.421875 351.890625 c 0
 850.807291667 350.630208333 850.807291667 349.479166667 848.421875 348.4375 c 128
 846.140625 347.479166667 846.313476562 346.025390625 848.940429688 344.076171875 c 128
 851.646809896 342.025390625 852.685546875 340.363606771 852.056640625 339.090820312 c 128
 851.352213542 337.696940104 851.733072917 337.0390625 853.19921875 337.1171875 c 0
 854.399739583 337.0390625 854.987955729 335.827473958 854.963867188 333.482421875 c 0
 854.321289062 331.160807292 854.944661458 328.495442708 856.833984375 325.486328125 c 0
 858.277994792 322.495442708 858.658528646 320.591471354 857.975585938 319.774414062 c 1
 860.364257812 318.423828125 l 2
 862.788085938 318.141276042 863.688151042 320.218424479 863.064453125 324.655273438 c 0
 862.354817708 328.885091146 862.735677083 330.962239583 864.20703125 330.88671875 c 0
 865.40234375 330.962239583 865.713867188 331.377604167 865.141601562 332.1328125 c 0
 864.380533854 332.7109375 864.978841146 335.895833333 866.936523438 341.6875 c 0
 869.645507812 349.895833333 870.120442708 353.826497396 868.361328125 353.479492188 c 0
 864.120442708 352.493164062 863.222330729 353.616536458 865.666992188 356.849609375 c 0
 867.222330729 358.949869792 866.874348958 361.234700521 864.623046875 363.704101562 c 0
 862.207682292 365.901367188 861.515299479 366.040039062 862.545898438 364.120117188 c 0
 863.515299479 362.040039062 863.23828125 361.773763021 861.71484375 363.321289062 c 0
 853 363.509765625 l 1
822.930664062 336.3671875 m 0
 822.976888021 342.7890625 822.976888021 345.731445312 822.930664062 345.194335938 c 0
 820.976888021 340.398111979 819.568359375 337.9921875 818.705078125 337.9765625 c 0
 768.047268605 351.859936645 746.365953501 348.519441854 753.661132812 327.955078125 c 0
 753.804333315 327.551475556 753.111950502 325.820681285 751.583984375 322.762695312 c 2
 750.857421875 321.30859375 l 1
 752.285807292 319.76953125 753.635742188 318.903971354 754.907226562 318.711914062 c 0
 797.285218171 295.741436525 818.955791088 295.222230796 819.918945312 317.154296875 c 0
 819.972981771 318.384765625 820.319335938 320.461914062 820.958007812 323.385742188 c 0
 821.652669271 326.461914062 822.310221354 330.7890625 822.930664062 336.3671875 c 0
859 300 m 1
 858.333333333 300 857.922851562 299.979166667 857.768554688 299.9375 c 0
 857.256184896 299.979166667 854.815695714 301.941394751 850.447087141 305.824184254 c 0
 848.815695714 307.274728085 847.101888021 306.593424479 845.305664062 303.780273438 c 0
 843.768554688 301.260091146 843.630208333 299.91015625 844.890625 299.73046875 c 0
 846.296875 299.91015625 846.989257812 299.287109375 846.967773438 297.861328125 c 0
 853 299 l 0
 853 296.333333333 848.569586599 295.562968631 839.708759798 296.688905894 c 0
 837.902919933 296.896301965 836.735677083 297.494791667 836.20703125 298.484375 c 0
 835.40234375 300.161458333 835.735026042 301.407552083 837.205078125 302.22265625 c 0
 839.068359375 303.407552083 839.033854167 303.961588542 837.1015625 303.884765625 c 0
 835.033854167 303.961588542 834.168294271 304.688476562 834.504882812 306.065429688 c 128
 834.834960938 307.355143229 835.492838542 307.701171875 836.478515625 307.103515625 c 0
 837.492838542 306.367838542 838.842773438 307.198893229 840.528320312 309.596679688 c 128
 842.176106771 311.865559896 840.722330729 313.804036458 836.166992188 315.412109375 c 0
 832.055664062 317.137369792 831.016927083 318.9375 833.05078125 320.8125 c 0
 835.016927083 322.9375 835.328450521 324.806966146 833.985351562 326.420898438 c 128
 832.661783854 328.140299479 832.419596354 328.936523438 833.258789062 328.809570312 c 0
 834.419596354 328.936523438 834.111979167 329.974934896 832.3359375 331.924804688 c 0
 831.4453125 333.308268229 831.227988046 334.247378494 831.683964138 334.742135482 c 0
 833.894654713 336.247378494 837.396809896 335.038085938 842.190429688 331.114257812 c 0
 845.396809896 328.371419271 846.989257812 326.149088542 846.967773438 324.447265625 c 128
 846.989257812 322.815755208 848.165564854 320.704064335 850.496694562 318.112193005 c 0
 852.832231521 315.370731002 854.771484375 314.08984375 856.314453125 314.26953125 c 0
 858.104817708 314.08984375 860.250976562 311.597330729 862.752929688 306.791992188 c 0
 863.584309896 305.597330729 862.333333333 303.333333333 859 300 c 1
504 145 m 1
 479.333333333 159.666666667 463.666666667 179.5 457 204.5 c 128
 450.333333333 229.5 448 259.666666667 450 295 c 0
 452 332.333333333 456 397.333333333 462 490 c 1
 504 544 l 1
 504.666666667 542 505.833333333 533.666666667 507.5 519 c 128
 509.166666667 504.333333333 512 493.666666667 516 487 c 1
 513.333333333 444.333333333 520.333333333 397.333333333 537 346 c 0
 547 315.333333333 552 268.333333333 552 205 c 0
 552 195 549.833333333 182.5 545.5 167.5 c 128
 541.166666667 152.5 536.333333333 145 531 145 c 2
 525 145 l 1
 504 145 l 1
871.110351562 266.705078125 m 0
 873.488245888 269.341269391 874.963709755 270.57141262 875.536743164 270.395507812 c 128
 876.109776573 270.219603005 875.988804893 268.573769672 875.173828125 265.458007812 c 0
 874.232825998 261.857287773 875.169349436 256.941597669 877.983398438 250.7109375 c 0
 880.093751738 246.037597463 881.012005319 243.247639781 880.73815918 242.341064453 c 128
 880.464313041 241.434489125 878.623533418 241.170410349 875.215820312 241.548828125 c 0
 872.584983119 241.84104843 871.66343364 240.533431243 872.451171875 237.625976562 c 0
 873.134270108 235.102077516 873.220614509 233.714544964 872.710205078 233.463378906 c 128
 872.199795647 233.212212849 870.542487705 233.826633422 867.73828125 235.306640625 c 0
 861.923151602 238.375329948 862.130833894 241.072595573 868.361328125 243.3984375 c 0
 871.407660129 244.534237024 872.965602838 247.283260461 873.03515625 251.645507812 c 2
 871.99609375 256.942382812 l 1
 871.234375 256.111219618 870.853515625 255.07280816 870.853515625 253.827148438 c 128
 870.853515625 252.580403646 870.334309896 251.95703125 869.295898438 251.95703125 c 2
 865.24609375 251.95703125 l 2
 863.584852317 251.95703125 863.584852317 252.788085938 865.24609375 254.450195312 c 128
 866.907552083 256.111653646 867.73828125 257.946289062 867.73828125 259.954101562 c 128
 867.73828125 261.961741289 868.862304688 264.21206681 871.110351562 266.705078125 c 0
893.805664062 292.044921875 m 0
 894.180664062 293.083496094 894.620646159 293.855265299 895.125610352 294.360229492 c 128
 895.630574544 294.865193685 896.056152344 294.958984375 896.40234375 294.641601562 c 0
 897.232882693 293.879692588 896.78268738 292.633273318 895.051757812 290.90234375 c 0
 894.042027582 289.89261352 893.450678298 289.46707641 893.277709961 289.625732422 c 128
 893.104741624 289.784388434 893.280726324 290.590784918 893.805664062 292.044921875 c 0
827 236 m 1
 828.333333333 230 835.101888021 223.497395833 847.305664062 216.4921875 c 0
 847.903526669 216.252634185 850.837120419 218.865915435 856.106445312 224.33203125 c 0
 856.702148438 224.77734375 858.3984375 224.015950521 861.1953125 222.047851562 c 0
 863.731770833 220.015950521 865.635742188 218.954752604 866.907226562 218.864257812 c 0
 871.635742188 218.288085938 873.989908854 216.787434896 873.969726562 214.362304688 c 0
 873.989908854 211.454101562 875.374674479 210.361328125 878.124023438 211.083984375 c 0
 884.041341146 211.694661458 884.263020833 208.079427083 878.7890625 200.23828125 c 0
 876.9296875 197.412760417 876.199101058 196.054286941 876.597303173 196.162860824 c 0
 876.865767724 196.054286941 877.859375 196.256510417 879.578125 196.76953125 c 0
 886.916666667 198.845103739 890.5859375 196.95480426 890.5859375 191.098632812 c 2
 890.5859375 186.737304688 l 1
 894.740234375 190.891601562 l 2
 895.580078125 191.630533854 896.21840984 192.397435641 896.655229519 193.192306922 c 0
 900.885076506 201.064102307 901.562174479 204.728190104 898.686523438 204.184570312 c 0
 897.562174479 204.061523438 896.939127604 206.103841146 896.817382812 210.311523438 c 0
 896.939127604 214.103841146 896.246744792 216.561848958 894.740234375 217.685546875 c 0
 893.580078125 218.561848958 893.614583333 220.327473958 894.84375 222.982421875 c 0
 896.28125 225.660807292 896.627604167 227.010742188 895.8828125 227.032226562 c 0
 895.294270833 227.010742188 895.941731771 229.503255208 897.825195312 234.509765625 c 0
 900.608398438 240.836588542 901.034179688 243.883138021 899.102539062 243.649414062 c 0
 897.938934987 243.843438151 895.896291758 240.519870443 892.974609375 233.678710938 c 2
 888.716796875 223.708984375 l 1
 878.747070312 224.133789062 l 2
 872.915690104 224.044596354 868.553702409 225.346864479 865.661107227 228.040593436 c 0
 861.220369076 232.013531145 859.143229167 234.446940104 859.4296875 235.340820312 c 0
 859.809895833 237.113606771 857.680989583 238.01574707 853.04296875 238.047241211 c 0
 847.680989583 238.01574707 844.409505208 237.396158854 843.228515625 236.188476562 c 0
 827 236 l 1
849 258 m 1
 846.333333333 255.333333333 845.586588542 252.626627604 846.759765625 249.879882812 c 0
 847.586588542 247.293294271 845.833333333 246 841.5 246 c 0
 841.166666667 246 840.239583333 243.347005208 838.71875 238.041015625 c 0
 851 243 l 0
 849 251 l 1
 851 251 852.320714945 252.002760195 852.962144834 254.008280586 c 0
 854.987381611 256.669426862 855.944986979 259.862955729 855.834960938 263.588867188 c 0
 855.944986979 265.196289062 856.797200521 265.715494792 858.391601562 265.146484375 c 0
 860.130533854 264.382161458 864.215494792 267.151692708 870.646484375 273.455078125 c 0
 876.882161458 279.818359375 880.967122396 281.895507812 882.901367188 279.686523438 c 0
 884.300455729 277.895507812 886.342773438 275.645182292 889.028320312 272.935546875 c 128
 891.676106771 270.311848958 893.9609375 265.5 895.8828125 258.5 c 0
 898.627604167 250.166666667 900.393229167 246.601236979 901.1796875 247.803710938 c 0
 904.393229167 251.267903646 904.323893229 253.682617188 900.971679688 255.047851562 c 0
 899.657226562 255.682617188 898.96484375 257.525716146 898.89453125 260.577148438 c 0
 898.960025706 263.323670595 897.505924144 266.750753928 894.532226562 270.858398438 c 2
 890.170898438 276.8828125 l 1
 895.051757812 280.932617188 l 2
 898.350585938 283.644205729 899.354492188 285.028971354 898.063476562 285.086914062 c 128
 896.687825521 285.028971354 894.818684896 283.955729167 892.456054688 281.8671875 c 0
 890.152018229 279.955729167 888.074869792 280.648111979 886.224609375 283.944335938 c 0
 884.741536458 287.314778646 883.391276042 289.114908854 882.173828125 289.344726562 c 0
 881.290369344 289.085274857 879.282556844 291.577787878 876.150390625 296.822265625 c 2
 871.684570312 304.299804688 l 1
 878.227539062 316.03515625 l 2
 882.742513021 324.01171875 886.03125 329.169921875 888.09375 331.509765625 c 0
 889.364583333 333.169921875 890.119066327 334.10121427 890.357198981 334.303642809 c 0
 890.785732994 334.767880936 889.927408854 334.6328125 887.782226562 333.8984375 c 0
 885.260742188 333.299479167 883 330.833333333 881 326.5 c 128
 879 322.166666667 877.985042259 320.221580693 877.955126778 320.664742078 c 0
 866 278 l 2
 841 292 l 1
 853.666666667 287.333333333 856.333333333 276 849 258 c 1
873 352 m 1
 862 370 l 1
 860.371582031 371.849487305 l 0
 861.45719401 375.949829102 863.220377604 378.747395833 865.661132812 380.2421875 c 0
 868.553710938 382.080729167 869.938476562 381.553059896 869.815429688 378.659179688 c 0
 869.938476562 375.553059896 871.600260417 374.168294271 874.80078125 374.504882812 c 0
 877.600260417 374.834960938 880.02351672 372.947676325 882.070550159 368.843028976 c 0
 884.02351672 364.947676325 884.395507812 361.919270833 883.186523438 359.7578125 c 0
 882.395507812 357.919270833 882.958007812 357.50390625 884.874023438 358.51171875 c 0
 886.958007812 359.50390625 888.8984375 357.842122396 890.6953125 353.526367188 c 0
 892.231770833 349.175455729 892.340291341 346.230102539 891.020874023 344.690307617 c 0
 889.617103174 342.821524425 886.702918604 342.209911469 882.278320312 342.85546875 c 2
 876.046875 343.764648438 l 1
 873 352 l 1
853 363.509765625 m 1
 852.31640625 364.950195312 l 2
 852.10546875 365.650065104 851.774682798 366.559736469 851.324048395 367.679209408 c 0
 851.108016132 368.559736469 849.794270833 367.927083333 847.3828125 365.78125 c 0
 845.794270833 363.927083333 844.985392253 361.44132487 844.956176758 358.323974609 c 0
 844.985392253 355.44132487 846.140625 353.296875 848.421875 351.890625 c 0
 850.807291667 350.630208333 850.807291667 349.479166667 848.421875 348.4375 c 128
 846.140625 347.479166667 846.313476562 346.025390625 848.940429688 344.076171875 c 128
 851.646809896 342.025390625 852.685546875 340.363606771 852.056640625 339.090820312 c 128
 851.352213542 337.696940104 851.733072917 337.0390625 853.19921875 337.1171875 c 0
 854.399739583 337.0390625 854.987955729 335.827473958 854.963867188 333.482421875 c 0
 854.321289062 331.160807292 854.944661458 328.495442708 856.833984375 325.486328125 c 0
 858.277994792 322.495442708 858.658528646 320.591471354 857.975585938 319.774414062 c 1
 860.364257812 318.423828125 l 2
 862.788085938 318.141276042 863.688151042 320.218424479 863.064453125 324.655273438 c 0
 862.354817708 328.885091146 862.735677083 330.962239583 864.20703125 330.88671875 c 0
 865.40234375 330.962239583 865.713867188 331.377604167 865.141601562 332.1328125 c 0
 864.380533854 332.7109375 864.978841146 335.895833333 866.936523438 341.6875 c 0
 869.645507812 349.895833333 870.120442708 353.826497396 868.361328125 353.479492188 c 0
 864.120442708 352.493164062 863.222330729 353.616536458 865.666992188 356.849609375 c 0
 867.222330729 358.949869792 866.874348958 361.234700521 864.623046875 363.704101562 c 0
 862.207682292 365.901367188 861.515299479 366.040039062 862.545898438 364.120117188 c 0
 863.515299479 362.040039062 863.23828125 361.773763021 861.71484375 363.321289062 c 0
 853 363.509765625 l 1
822.930664062 336.3671875 m 0
 822.976888021 342.7890625 822.976888021 345.731445312 822.930664062 345.194335938 c 0
 820.976888021 340.398111979 819.568359375 337.9921875 818.705078125 337.9765625 c 0
 768.047268605 351.859936645 746.365953501 348.519441854 753.661132812 327.955078125 c 0
 753.804333315 327.551475556 753.111950502 325.820681285 751.583984375 322.762695312 c 2
 750.857421875 321.30859375 l 1
 752.285807292 319.76953125 753.635742188 318.903971354 754.907226562 318.711914062 c 0
 797.285218171 295.741436525 818.955791088 295.222230796 819.918945312 317.154296875 c 0
 819.972981771 318.384765625 820.319335938 320.461914062 820.958007812 323.385742188 c 0
 821.652669271 326.461914062 822.310221354 330.7890625 822.930664062 336.3671875 c 0
859 300 m 1
 858.333333333 300 857.922851562 299.979166667 857.768554688 299.9375 c 0
 857.256184896 299.979166667 854.815695714 301.941394751 850.447087141 305.824184254 c 0
 848.815695714 307.274728085 847.101888021 306.593424479 845.305664062 303.780273438 c 0
 843.768554688 301.260091146 843.630208333 299.91015625 844.890625 299.73046875 c 0
 846.296875 299.91015625 846.989257812 299.287109375 846.967773438 297.861328125 c 0
 853 299 l 0
 853 296.333333333 848.569586599 295.562968631 839.708759798 296.688905894 c 0
 837.902919933 296.896301965 836.735677083 297.494791667 836.20703125 298.484375 c 0
 835.40234375 300.161458333 835.735026042 301.407552083 837.205078125 302.22265625 c 0
 839.068359375 303.407552083 839.033854167 303.961588542 837.1015625 303.884765625 c 0
 835.033854167 303.961588542 834.168294271 304.688476562 834.504882812 306.065429688 c 128
 834.834960938 307.355143229 835.492838542 307.701171875 836.478515625 307.103515625 c 0
 837.492838542 306.367838542 838.842773438 307.198893229 840.528320312 309.596679688 c 128
 842.176106771 311.865559896 840.722330729 313.804036458 836.166992188 315.412109375 c 0
 832.055664062 317.137369792 831.016927083 318.9375 833.05078125 320.8125 c 0
 835.016927083 322.9375 835.328450521 324.806966146 833.985351562 326.420898438 c 128
 832.661783854 328.140299479 832.419596354 328.936523438 833.258789062 328.809570312 c 0
 834.419596354 328.936523438 834.111979167 329.974934896 832.3359375 331.924804688 c 0
 831.4453125 333.308268229 831.227988046 334.247378494 831.683964138 334.742135482 c 0
 833.894654713 336.247378494 837.396809896 335.038085938 842.190429688 331.114257812 c 0
 845.396809896 328.371419271 846.989257812 326.149088542 846.967773438 324.447265625 c 128
 846.989257812 322.815755208 848.165564854 320.704064335 850.496694562 318.112193005 c 0
 852.832231521 315.370731002 854.771484375 314.08984375 856.314453125 314.26953125 c 0
 858.104817708 314.08984375 860.250976562 311.597330729 862.752929688 306.791992188 c 0
 863.584309896 305.597330729 862.333333333 303.333333333 859 300 c 1
453.745117188 814.7890625 m 1
 453.915039062 814.9296875 454.627278646 815.398763021 455.881835938 816.196289062 c 2
 457.799804688 817.6640625 l 1
 451.727539062 818.791992188 l 2
 447.784086875 819.524492554 436.741118125 814.608802449 418.598632812 804.044921875 c 0
 402.199544271 794.681640625 391.121744792 788.271809896 385.365234375 784.815429688 c 0
 374.455078125 778.938476562 358.100260417 768.663085938 336.30078125 753.989257812 c 0
 314.100260417 739.329752604 299.645182292 729.278971354 292.935546875 723.836914062 c 0
 266.978515625 703.278971354 245.437825521 674.903320312 228.313476562 638.709960938 c 0
 221.437825521 624.903320312 217.326497396 613.202148438 215.979492188 603.606445312 c 0
 214.659830729 594.535481771 213.344401042 589.169921875 212.033203125 587.509765625 c 0
 211.344401042 587.169921875 210.340494792 580.903971354 209.021484375 568.711914062 c 0
 206.44921875 535.478515625 l 2
 196 521 l 1
 202 512.333333333 204.471028646 494.257486979 203.413085938 466.772460938 c 0
 203.137695312 457.590820312 202.895507812 452.536783854 202.686523438 451.610351562 c 0
 201.562174479 447.203450521 202.305013021 439.502929688 204.915039062 428.508789062 c 0
 205.638346354 424.836263021 206.349283854 413.412434896 207.047851562 394.237304688 c 0
 207.682617188 374.745768229 206.574869792 359.513997396 203.724609375 348.541992188 c 0
 200.574869792 337.513997396 198.740234375 330.244140625 198.220703125 326.732421875 c 0
 197.406901042 323.577473958 194.721028646 312.153320312 190.163085938 292.459960938 c 0
 180.054361979 251.486653646 174.393229167 224.484700521 173.1796875 211.454101562 c 0
 172.393229167 205.818033854 171.713541667 202.010091146 171.140625 200.030273438 c 0
 168.380208333 192.676757812 167.090494792 172.944661458 167.271484375 140.833984375 c 0
 167.090494792 94.9446614583 168.851888021 62.7496744792 172.555664062 44.2490234375 c 0
 173.518554688 39.4163411458 174.526692708 34.6393229167 175.580078125 29.91796875 c 128
 176.526692708 25.3059895833 177.49609375 21.8440755208 178.48828125 19.5322265625 c 128
 179.49609375 17.1774088542 181.964192708 9.4921875 185.892578125 -3.5234375 c 0
 192.630859375 -27.1744791667 201.486653646 -46.7682291667 212.459960938 -62.3046875 c 0
 283.014648438 -136.810546875 l 0
 294.338216146 -143.603515625 303.876302083 -149.059895833 311.62890625 -153.1796875 c 0
 337.876302083 -167.059895833 366.263020833 -174.575846354 396.7890625 -175.727539062 c 0
 407.596354167 -175.909179688 426.429036458 -172.212239583 453.287109375 -164.63671875 c 0
 479.762369792 -156.87890625 504.963867188 -147.770507812 528.891601562 -137.311523438 c 0
 533.630533854 -135.103841146 536.295898438 -134.126302083 536.887695312 -134.37890625 c 0
 537.629231771 -134.126302083 546.076171875 -130.318359375 562.228515625 -122.955078125 c 0
 578.742838542 -114.985026042 587.085611979 -111.177083333 587.256835938 -111.53125 c 0
 587.752278646 -111.84375 595.160807292 -107.703450521 609.482421875 -99.1103515625 c 0
 642.494140625 -79.7034505208 670.627929688 -53.8170572917 693.883789062 -21.451171875 c 0
 717.294596354 11.5162760417 731.818359375 45.1175130208 737.455078125 79.3525390625 c 24
 745.818359375 127.784179688 742.643880208 244.704101562 727.931640625 430.112304688 c 0
 727.310546875 438.037434896 725.595377604 448.615559896 722.786132812 461.846679688 c 0
 720.262044271 475.282226562 718.658203125 483.209635417 717.974609375 485.62890625 c 0
 705.324869792 529.876302083 695.426106771 560.6171875 688.278320312 577.8515625 c 0
 677.426106771 603.950520833 666.223307292 625.13671875 654.669921875 641.41015625 c 0
 646.889973958 651.803385417 637.712239583 663.230794271 627.13671875 675.692382812 c 0
 626.37890625 676.564127604 623.402018229 680.887695312 618.206054688 688.663085938 c 0
 613.402018229 696.887695312 607.499023438 704.469075521 600.497070312 711.407226562 c 0
 589.499023438 723.135742188 581.341145833 732.205729167 576.0234375 738.6171875 c 0
 572.674479167 742.205729167 568.180013021 745.944335938 562.540039062 749.833007812 c 0
 556.846679688 753.944335938 553.00390625 757.059895833 551.01171875 759.1796875 c 0
 549.00390625 761.7265625 546.99609375 764.046223958 544.98828125 766.138671875 c 0
 542.99609375 768.712890625 542.823242188 770.478190104 544.469726562 771.434570312 c 0
 544.823242188 771.811523438 543.542317708 772.434895833 540.626953125 773.3046875 c 0
 536.208984375 774.434895833 533.958658854 775.023111979 533.875976562 775.069335938 c 0
 532.625325521 775.689778646 529.475260417 777.905598958 524.42578125 781.716796875 c 0
 513.475260417 789.905598958 504.85546875 796.932942708 498.56640625 802.798828125 c 0
 487.522135417 813.599609375 480.736979167 819 478.2109375 819 c 0
 475.403645833 819 480.388346354 812.872721354 493.165039062 800.618164062 c 0
 505.721679688 788.206054688 516.176432292 779.078776042 524.529296875 773.236328125 c 0
 546.176432292 757.745442708 566.602539062 739.73046875 585.807617188 719.19140625 c 0
 605.269205729 698.397135417 618.859375 680.431966146 626.578125 665.295898438 c 0
 642.192708333 635.098632812 655.273111979 588.641276042 665.819335938 525.923828125 c 0
 671.273111979 493.307942708 671.364583333 469.560221354 666.09375 454.680664062 c 0
 660.03125 437.560221354 646.9765625 421.434244792 626.9296875 406.302734375 c 0
 606.9765625 390.767578125 590.369791667 380.780924479 577.109375 376.342773438 c 0
 574.369791667 375.447591146 557.673828125 369.637044271 527.021484375 358.911132812 c 2
 520.063476562 356.538085938 l 1
 520.687825521 356.179361979 524.73828125 356.622070312 532.21484375 357.866210938 c 0
 543.404947917 359.955403646 552.7265625 361.717447917 560.1796875 363.15234375 c 0
 567.393229167 364.384114583 573.531901042 365.228190104 578.595703125 365.684570312 c 0
 583.531901042 365.894856771 586.973632812 365.885742188 588.920898438 365.657226562 c 0
 590.973632812 365.219075521 592.011393229 364.360351562 592.034179688 363.081054688 c 0
 592.011393229 361.027018229 592.703776042 359.988606771 594.111328125 359.965820312 c 0
 595.370442708 359.988606771 596.062825521 360.992513021 596.188476562 362.977539062 c 0
 596.062825521 364.992513021 599.663085938 364.943033854 606.989257812 362.829101562 c 0
 631.663085938 355.609700521 649.800455729 337.346028646 661.401367188 308.038085938 c 0
 663.800455729 302.012695312 665.360677083 290.51953125 666.08203125 273.55859375 c 2
 667.016601562 248.426757812 l 1
 660.681640625 245.7265625 l 2
 656.281978526 243.851263332 655.001054047 241.947291978 656.838867188 240.014648438 c 0
 658.279622396 238.004882812 660.599283854 237.3125 663.797851562 237.9375 c 0
 665.932617188 238.645833333 667.273763021 237.978841146 667.821289062 235.936523438 c 0
 668.607096354 233.978841146 669.196614583 228.310546875 669.58984375 218.931640625 c 0
 671.86328125 164.310546875 668.826822917 123.945963542 660.48046875 97.837890625 c 0
 657.493489583 88.6126302083 654.999023438 84.1471354167 652.997070312 84.44140625 c 128
 650.999023438 84.8138020833 649.544921875 84.0520833333 648.634765625 82.15625 c 0
 648.211588542 80.71875 649.0078125 79.8531901042 651.0234375 79.5595703125 c 128
 653.0078125 79.1865234375 652.277669271 74.2014973958 648.833007812 64.6044921875 c 0
 646.944335938 60.2014973958 645.013997396 56.1927083333 643.041992188 52.578125 c 0
 639.680664062 46.1927083333 637.91015625 44.6627604167 637.73046875 47.98828125 c 0
 637.243489583 50.6627604167 636.551106771 51.4934895833 635.653320312 50.48046875 c 0
 633.217773438 47.4934895833 633.356119792 45.2705078125 636.068359375 43.8115234375 c 0
 637.356119792 43.2705078125 636.478841146 40.6145833333 633.436523438 35.84375 c 0
 630.478841146 30.6145833333 626.67578125 24.9567057292 622.02734375 18.8701171875 c 0
 617.342447917 12.2900390625 612.952799479 7.1103515625 608.858398438 3.3310546875 c 0
 602.952799479 -2.8896484375 595.683268229 -8.84765625 587.049804688 -14.54296875 c 0
 579.683268229 -19.5143229167 568.666666667 -26.52734375 554 -35.58203125 c 128
 539.333333333 -44.52734375 526.221679688 -52.2506510417 514.665039062 -58.751953125 c 0
 502.888346354 -65.583984375 496.932942708 -68.568359375 496.798828125 -67.705078125 c 0
 496.266276042 -65.9016927083 494.926106771 -65.2776692708 492.778320312 -65.8330078125 c 0
 490.926106771 -66.6110026042 490.3828125 -67.7890625 491.1484375 -69.3671875 c 0
 491.716145833 -71.1223958333 489.819335938 -73.3111979167 485.458007812 -75.93359375 c 128
 481.152669271 -78.64453125 472.055664062 -83.7945963542 458.166992188 -91.3837890625 c 0
 435.388997396 -103.794596354 423.099609375 -109.763671875 421.298828125 -109.291015625 c 0
 415.766276042 -108.430338542 413.135091146 -109.315755208 413.405273438 -111.947265625 c 0
 413.135091146 -113.982421875 408.842447917 -116.602213542 400.52734375 -119.806640625 c 0
 384.842447917 -125.935546875 365.022135417 -126.360351562 341.06640625 -121.081054688 c 128
 317.022135417 -115.693684896 293.847005208 -105.819661458 271.541015625 -91.458984375 c 0
 261.847005208 -85.1529947917 250.819661458 -75.8346354167 238.458984375 -63.50390625 c 128
 226.152994792 -51.16796875 216.973307292 -40.3134765625 210.919921875 -30.9404296875 c 0
 196.973307292 -8.98014322917 187.022786458 12.9114583333 181.068359375 34.734375 c 0
 175.022786458 56.2447916667 172.154947917 82.9567057292 172.46484375 114.870117188 c 0
 172.821614583 143.623372396 175.166341146 174.433268229 179.499023438 207.299804688 c 0
 179.833007812 209.766601562 181.226888021 217.3828125 183.680664062 230.1484375 c 0
 185.893554688 242.716145833 189.493815104 259.574869792 194.481445312 280.724609375 c 0
 199.493815104 302.241536458 204.360677083 315.500325521 209.08203125 320.500976562 c 0
 216.360677083 328.166992188 225.730143229 333.688151042 237.190429688 337.064453125 c 0
 249.063476562 340.354817708 273.806966146 344.496744792 311.420898438 349.490234375 c 0
 319.140299479 350.496744792 325.637369792 351.405598958 330.912109375 352.216796875 c 0
 346.304036458 354.738932292 348.115234375 355.937174479 336.345703125 355.811523438 c 0
 330.115234375 355.937174479 316.68359375 356.629557292 296.05078125 357.888671875 c 0
 275.350260417 359.296223958 260.672200521 362.082356771 252.016601562 366.247070312 c 0
 238.005533854 373.415690104 227.139322917 384.268880208 219.41796875 398.806640625 c 0
 217.139322917 402.935546875 216.099283854 405.328125 216.297851562 405.984375 c 0
 216.099283854 406.661458333 217.135416667 406.992838542 219.40625 406.978515625 c 128
 221.802083333 406.992838542 223.271484375 407.730794271 223.814453125 409.192382812 c 0
 223.938151042 410.397460938 223.639322917 411.432942708 222.91796875 412.298828125 c 0
 221.639322917 413.432942708 220.405273438 413.860351562 219.215820312 413.581054688 c 0
 217.738606771 413.860351562 216.672200521 413.297526042 216.016601562 411.892578125 c 0
 214.672200521 409.964192708 213.62109375 410.345052083 212.86328125 413.03515625 c 0
 212.287760417 415.678385417 211.21484375 418.620768229 209.64453125 421.862304688 c 0
 207.881510417 426.620768229 207.258138021 430.844075521 207.774414062 434.532226562 c 0
 209.924804688 449.510742188 213.666666667 463.666666667 219 477 c 1
 212 490 l 1
 211 497 l 1
 210.333333333 511 209.924153646 524.864908854 209.772460938 538.594726562 c 0
 209.257486979 556.198242188 214.860026042 580.984700521 226.580078125 612.954101562 c 0
 229.526692708 622.318033854 231.834635417 628.770507812 233.50390625 632.311523438 c 0
 235.834635417 638.103841146 237.484049479 639.544270833 238.452148438 636.6328125 c 0
 239.484049479 634.2109375 240.405273438 633.379882812 241.215820312 634.139648438 c 0
 243.071940104 636.046549479 242.794921875 638.337565104 240.384765625 641.012695312 c 0
 238.794921875 641.670898438 239.390299479 644.667643229 242.170898438 650.002929688 c 0
 244.723632812 655.334309896 248.414713542 661.94140625 253.244140625 669.82421875 c 0
 258.414713542 677.274739583 263.407877604 684.28125 268.223632812 690.84375 c 0
 280.074544271 705.614583333 291.701497396 717.304036458 303.104492188 725.912109375 c 0
 314.368164062 734.637369792 336.595703125 748.514322917 369.787109375 767.54296875 c 0
 388.595703125 778.514322917 409.020182292 790.00390625 431.060546875 802.01171875 c 0
 453.745117188 814.7890625 l 1
389.625976562 166.173828125 m 2
 391.803710938 174.482421875 l 1
 392.358398438 173.927734375 395.716471354 159.526692708 401.877929688 131.279296875 c 128
 408.036132812 103.044921875 411.878580729 86.2552083333 413.405273438 80.91015625 c 0
 414.507486979 77.0514322917 414.72265625 74.208984375 414.05078125 72.3828125 c 128
 413.37890625 70.5559895833 410.730794271 66.7864583333 406.106445312 61.07421875 c 0
 384.245768229 34.0690104167 370.036458333 14.0595703125 363.478515625 1.0458984375 c 0
 343.590494792 -38.4182942708 344.482096354 -69.5052083333 366.153320312 -92.21484375 c 0
 369.328450521 -96.6022135417 370.055013021 -98.8870442708 368.333007812 -99.0693359375 c 0
 360.050455729 -99.0693359375 347.130533854 -92.2408854167 329.573242188 -78.583984375 c 128
 312.016601562 -64.9270833333 300.904296875 -53.0618489583 296.236328125 -42.98828125 c 0
 289.05078125 -27.478515625 289.205729167 -8.64615885417 296.701171875 13.5087890625 c 0
 304.853515625 37.6038411458 321.819661458 63.4287109375 347.599609375 90.9833984375 c 0
 355.955729167 99.9150390625 364.747721354 112.635742188 373.975585938 129.145507812 c 128
 383.203450521 145.655924479 388.420247396 157.998697917 389.625976562 166.173828125 c 2
EndSplineSet
LCarets2: 4 0 0 0 0
Ligature2: "'dlig' Discretionary Ligatures in Latin lookup 0-1" i l i s h
EndChar

StartChar: uniE36F
Encoding: 58223 58223 106
Width: 810
Flags: HW
LayerCount: 2
Fore
SplineSet
228 -50 m 128
 228 -39.3333333333 244.666666667 -30.6666666667 278 -24 c 128
 311.333333333 -17.3333333333 351.666666667 -14 399 -14 c 128
 446.333333333 -14 486.666666667 -17.3333333333 520 -24 c 128
 553.333333333 -30.6666666667 570 -39.1666666667 570 -49.5 c 0
 570 -60.5 553.333333333 -69.3333333333 520 -76 c 128
 486.666666667 -82.6666666667 446.333333333 -86 399 -86 c 128
 351.666666667 -86 311.333333333 -82.6666666667 278 -76 c 128
 244.666666667 -69.3333333333 228 -60.6666666667 228 -50 c 128
18 432.959960938 m 1
 314 -9.0400390625 l 1
 466 -9.0400390625 l 1
 170 432.959960938 l 1
 18 432.959960938 l 1
346 822 m 1
 36 440 l 1
 172 440 l 1
 482 822 l 1
 346 822 l 1
493 815 m 29
 178 431 l 5
 466 0 l 5
 751 395 l 5
 493 815 l 29
EndSplineSet
Ligature2: "'dlig' Discretionary Ligatures in Latin lookup 0-1" b a r f i
EndChar

StartChar: uniE370
Encoding: 58224 58224 107
Width: 1024
Flags: HW
LayerCount: 2
Back
Fore
SplineSet
592.207020007 662.433212158 m 4
 581.204279786 662.433212158 561.551186294 660.742363535 561.551186294 653.268673356 c 4
 561.551186294 652.373103869 580.998692416 641.264563143 583.0090249 639.477785013 c 4
 591.454458326 639.477785013 605.117705864 653.908062707 605.117705864 658.640034467 c 4
 605.117705864 660.184369397 603.179619827 662.433212158 592.207020007 662.433212158 c 4
556.551186294 653.268673356 m 4
 556.551186294 665.497441823 578.154450306 667.433212158 592.207020007 667.433212158 c 4
 602.247975145 667.433212158 610.117705864 665.686099526 610.117705864 658.640034467 c 4
 610.117705864 649.874195027 594.098017976 634.477785013 583.0090249 634.477785013 c 4
 580.60524426 634.477785013 579.118547085 635.99567375 577.825072095 637.31111193 c 4
 573.3688163 641.843034894 556.551186294 646.250394736 556.551186294 653.268673356 c 4
484.224847848 658.201988149 m 4
 484.224847848 666.312016132 465.09416549 677.786612366 459.646293461 677.786612366 c 4
 458.852122374 677.786612366 458.519079451 676.917592837 457.257006206 676.917592837 c 4
 455.068395318 676.917592837 454.439665512 678.22421577 454.276445438 679.301313475 c 5
 448.415254352 676.978455203 441.537109375 660.432431594 441.537109375 651.919921875 c 4
 441.537109375 642.042130028 447.269227088 648.478224449 447.955730168 641.169847734 c 4
 449.179757393 640.125155367 456.458965072 637.469726562 462.868164062 637.469726562 c 4
 472.751001383 637.469726562 484.224847848 649.589960512 484.224847848 658.201988149 c 4
459.646293461 682.786612366 m 6
 468.401831582 682.786612366 489.224847848 670.088807279 489.224847848 658.201988149 c 4
 489.224847848 646.477512349 475.820390735 632.469726562 462.868164062 632.469726562 c 4
 456.35916556 632.469726562 443.161209657 634.166045221 442.979492646 640.562921528 c 4
 442.854467708 640.764558067 442.263433835 641.360227346 441.52707793 641.584930424 c 4
 437.388553315 642.847823643 436.537109375 646.434183249 436.537109375 651.919921875 c 4
 436.537109375 661.688616827 439.404058845 662.283778324 442.208836315 671.102314164 c 4
 444.478255738 678.237624086 448.208777765 684.760437033 455.591164813 684.760437033 c 4
 457.197247432 684.760437033 458.194761104 683.81077133 458.734653579 682.733258726 c 4
 459.047165028 682.772060202 459.646293461 682.786612366 459.646293461 682.786612366 c 6
390.084704031 496.477854933 m 4
 379.504138409 496.477854933 373.5841924 490.598718628 373.5841924 479.298812183 c 4
 373.5841924 476.189669943 375.44122745 475.362259881 376.431760618 473.771569129 c 4
 380.792203701 466.769162038 385.20527322 453.667093264 386.667456966 445.097595946 c 4
 389.547972296 428.215607979 398.253976182 419.760128364 414.633667557 419.760128364 c 4
 418.588827479 419.760128364 419.996074069 420.847561801 419.996074069 424.111326762 c 4
 419.996074069 426.028448642 419.182586912 428.483215625 417.468394494 430.700332265 c 4
 412.714171042 436.849389872 409.893924874 448.133891992 409.893924874 457.55497353 c 4
 409.893924874 464.757150456 413.176841813 477.736481753 413.176841813 480.112075607 c 4
 413.176841813 488.045383579 397.30296315 496.477854933 390.084704031 496.477854933 c 4
418.176841813 480.112075607 m 4
 418.176841813 476.549846879 414.893924874 465.522290735 414.893924874 457.55497353 c 4
 414.893924874 449.068170809 417.791700981 438.455483039 421.426136756 433.75474586 c 4
 423.7348194 430.76872244 424.996074069 427.356353574 424.996074069 424.111326762 c 4
 424.996074069 418.14729795 420.630971948 414.760128364 414.633667557 414.760128364 c 4
 395.635557878 414.760128364 384.866157574 425.923303294 381.738793034 444.252013429 c 4
 380.22722468 453.110941726 373.915048187 469.123621968 371.54799875 472.053028621 c 4
 368.880949406 472.550259714 368.546861041 475.565923936 368.546861041 477.649997693 c 4
 368.546861041 478.346654672 368.584192345 478.939214977 368.5841924 479.298812183 c 4
 368.5841924 493.384682621 376.400663889 501.477854933 390.084704031 501.477854933 c 4
 400.173010392 501.477854933 418.176841813 491.910589569 418.176841813 480.112075607 c 4
532.972741032 514.881311888 m 4
 532.972741032 494.285818682 549.825342976 475.471444993 572.822935117 475.471444993 c 4
 581.193536061 475.471444993 591.165743788 476.876073603 594.124477387 478.333101908 c 4
 598.538952841 480.507010262 620.216958846 507.969690537 620.216958846 522.847618626 c 4
 620.216958846 537.70927043 600.535043798 545.361018734 584.083267425 549.981436761 c 4
 579.203169794 551.351993384 576.441093492 551.932588584 574.429341507 551.932588584 c 4
 571.678487267 551.932588584 567.097776825 549.517430515 564.111055797 549.517430515 c 4
 564.007803016 549.517430515 563.879520205 549.509742166 563.730851397 549.509742166 c 4
 560.782715897 549.509742166 554.810210189 544.884187572 551.393788809 544.884187572 c 4
 548.209468899 544.884187572 548.406244777 546.943876675 544.574030495 546.943876675 c 4
 542.99211818 546.943876675 541.426902247 546.494099296 539.884672715 546.494099296 c 4
 536.231166234 546.494099296 535.941176957 549.541357881 532.223344444 546.547924879 c 4
 529.572731147 544.413769214 524.995917639 541.854450927 521.715247497 539.876760521 c 5
 525.589999269 539.433748404 529.165797494 533.644988845 531.852805825 533.244115112 c 4
 534.207522533 532.892815837 535.937313421 531.876504986 535.937313421 530.187373145 c 4
 535.937313421 529.998477162 535.920716547 529.872380407 535.920716547 529.848058216 c 4
 535.920716547 525.374294763 532.972741032 520.031318656 532.972741032 514.881311888 c 4
563.137848135 554.759827978 m 4
 566.708258381 554.759827978 570.63287616 556.932588584 574.429341507 556.932588584 c 4
 590.827603509 556.932588584 612.769098472 544.282891697 619.163162253 537.23663341 c 4
 623.052298854 532.950804875 625.216958846 528.302439011 625.216958846 522.847618626 c 4
 625.216958846 505.738687585 603.668896162 477.459337728 596.328647613 473.844632468 c 4
 591.70475659 471.56759742 581.689493187 470.471444993 572.822935117 470.471444993 c 4
 546.449849031 470.471444993 527.972741032 491.844566477 527.972741032 514.881311888 c 4
 527.972741032 519.680908848 529.446284534 524.071453672 530.600713926 528.37846445 c 5
 527.620664213 528.972803067 524.143125651 534.928893533 520.803790777 534.928893533 c 4
 519.704689607 534.928893533 518.622913307 534.457887824 517.638435944 534.457887824 c 4
 516.319112237 534.457887824 513.79435966 535.281947207 513.79435966 537.812569136 c 4
 513.79435966 542.57096794 530.049195382 553.034228493 534.75300915 553.034228493 c 4
 536.916413536 553.034228493 537.229075107 551.494099296 539.884672715 551.494099296 c 4
 541.417792019 551.494099296 543.02572321 551.943876675 544.574030495 551.943876675 c 4
 547.02365777 551.943876675 549.511817639 549.882028644 551.279456097 549.882028644 c 4
 551.312247531 549.882028644 551.348380442 549.884187572 551.393788809 549.884187572 c 4
 553.462998116 549.884187572 560.748933358 554.759827978 563.137848135 554.759827978 c 4
417.028615387 298.887549464 m 4
 395.57896464 298.887549464 387.66843128 290.376301455 387.66843128 268.475650136 c 4
 387.66843128 233.851804121 397.275281812 218.0850163 430.563070125 218.0850163 c 4
 453.198404699 218.0850163 463.91015625 236.715666711 463.91015625 262.379882812 c 4
 463.91015625 285.194394944 442.241546503 298.887549464 417.028615387 298.887549464 c 4
382.66843128 268.475650136 m 4
 382.66843128 292.113354119 392.72161841 303.887549464 417.028615387 303.887549464 c 4
 445.207735516 303.887549464 468.91015625 287.940179984 468.91015625 262.379882812 c 4
 468.91015625 235.265549781 456.934216078 213.0850163 430.563070125 213.0850163 c 4
 417.613920958 213.0850163 401.95148832 216.776895425 395.389461753 223.450824915 c 4
 387.889872495 231.078305449 382.66843128 251.042115115 382.66843128 268.475650136 c 4
252.289463911 382.008260216 m 4
 249.880580477 382.008260216 243.166670527 384.011781832 239.211067869 384.011781832 c 4
 237.706772179 384.011781832 236.466298379 382.661554931 235.05155465 382.661554931 c 4
 234.533843711 382.661554931 234.693959563 381.601498924 234.693959563 380.6209147 c 4
 234.693959563 370.124080538 236.787257273 355.669767184 237.36634174 354.179668553 c 4
 238.698854135 350.750851151 239.867252018 339.57009958 241.497789981 336.516893405 c 4
 242.209056067 335.185037258 242.649670678 333.830932957 242.649670678 332.438638188 c 4
 242.649670678 331.488275954 245.406892187 327.302650385 245.644758148 326.075353515 c 4
 247.844681423 314.724595538 271.999486396 304.789251231 297.508783202 304.789251231 c 4
 304.536389459 304.789251231 304.80816685 304.506580311 304.80816685 307.755416081 c 4
 304.80816685 309.428157439 306.436610656 310.886512288 307.966609595 310.886512288 c 4
 317.672658259 310.886512288 334.264326605 335.826078413 334.264326605 350.989857073 c 4
 334.264326605 355.884861222 330.143278055 360.435786911 325.450003548 363.553919628 c 5
 325.521162722 363.245625423 325.559683384 362.916320288 325.559683384 362.560024515 c 4
 325.559683384 360.837867371 323.789268481 359.749698007 322.689977296 359.749698007 c 4
 318.923810787 359.749698007 316.761098509 365.116751192 314.197968748 367.380745285 c 4
 311.935131494 369.379493164 276.848817787 376.591579972 272.045896123 378.046436975 c 4
 265.632627656 379.98908547 259.96587669 379.217934721 256.758227734 382.92112861 c 4
 256.450203444 383.276739115 255.787578163 383.687912457 254.878080514 384.120384769 c 5
 254.593847903 382.294758663 253.160938961 382.008260216 252.289463911 382.008260216 c 4
319.352537029 371.454478494 m 4
 328.961634461 371.454478494 339.264326605 359.421863063 339.264326605 350.989857073 c 4
 339.264326605 337.063268052 330.752904029 323.335197952 322.487788397 314.592140951 c 4
 319.698577205 311.641639891 314.812993429 311.10345513 314.269907675 308.222923051 c 4
 313.901285699 306.267748536 311.943117863 305.313956682 310.511179475 305.313956682 c 4
 310.416604724 305.313956682 310.235921152 305.414382149 310.229557145 305.321404331 c 4
 309.88753636 300.324498213 303.34036225 299.789251231 297.508783202 299.789251231 c 4
 270.478027348 299.789251231 243.772760849 309.451963283 240.736101228 325.119958985 c 4
 240.012049541 328.85578721 237.082501436 327.363726455 237.082501436 330.864861245 c 4
 237.082501436 348.7505425 229.693959563 356.14534598 229.693959563 380.6209147 c 4
 229.693959563 381.022914893 229.682767203 381.492754738 229.682767203 381.997063293 c 4
 229.682767203 384.243596759 229.904870396 387.174133427 232.327874287 387.838699526 c 5
 232.147122013 388.242414293 232.041015625 388.726130785 232.041015625 389.305664062 c 4
 232.041015625 392.995749046 235.958763445 393.160000902 237.776675813 393.160000902 c 4
 237.954327613 393.160000902 238.111926447 393.158432333 238.243856511 393.158432333 c 4
 246.113584954 393.158432333 255.876521526 386.358446798 262.912519808 385.820786674 c 4
 265.318763438 385.636912092 269.787361767 384.277588988 273.842775753 382.713328649 c 4
 279.18414926 380.653046083 306.815633182 375.561047482 314.380192185 372.756542575 c 4
 316.941817742 371.806838641 316.477011562 371.454478494 319.352537029 371.454478494 c 4
422 245 m 6
 425 245 l 5
 432.064259497 243.646157595 448 241.957744551 448 234 c 4
 448 228.549232367 439.37451627 227 435 227 c 4
 428.814462599 227 399.384100746 230.868981116 405 240 c 4
 406.438386119 242.338704848 412.651620891 243.36094556 416 243 c 4
 418.035376468 242.780592318 420.627557854 245 422 245 c 6
438 267 m 5
 438 267 442 264.894683768 442 263 c 4
 442 261.795154139 441 260.828666014 441 259 c 6
 441 257 l 6
 441 254.791992188 422.04795248 254.166015625 422 257 c 4
 421.790589874 269.377968101 427.253154338 267 438 267 c 5
400 282 m 5
 403.625192965 280.791602345 414 277.612632692 414 273 c 4
 414 270.284629603 413 270.529838614 413 268 c 4
 413 263.854858031 404.338763544 262 402 262 c 4
 397.615162794 262 391 265.096717352 391 269 c 4
 391 273.217901672 393.401975228 282 400 282 c 5
439 291 m 5
 444.93176614 289.02274462 457 284.712278158 457 277 c 4
 457 275.622243945 450.087779422 272 448 272 c 4
 442.621392097 272 407.449370046 283.059156327 422 291 c 5
 439 291 l 5
415.555664062 196.541992188 m 4
 411.576480409 207.455554578 384.420051414 186.822132962 381.874023438 184.750976562 c 5
 386.465706198 184.689421926 393.979495453 184.943649118 394.967773438 182.293945312 c 4
 396.627872757 177.842999779 410.374999999 180.231445314 418.586914062 186.396484375 c 4
 423.967363038 190.435820132 430.769513061 194.413085938 421.244140625 194.413085938 c 4
 418.506835938 194.413085938 415.98828125 195.35546875 415.555664062 196.541992188 c 4
513.208007812 311.676757812 m 4
 515.858300153 318.805756627 532.428710938 313.532758403 532.428710938 306.435546875 c 4
 532.428710938 296.936523438 525.508166547 291.164534906 517.936523438 294.348632812 c 4
 511.2578125 297.157226562 509.798202768 302.50475224 513.208007812 311.676757812 c 4
632.905273438 353.603515625 m 4
 630.669760427 354.970647026 620.990587925 347.1303998 618.252929688 345.91796875 c 4
 612.617842454 343.422348721 611.055664062 339.778320312 615.836914062 340.279296875 c 4
 621.633792039 340.88669034 624.209960938 340.09765625 624.209960938 337.716796875 c 4
 624.209960938 332.393960992 631.243258884 339.665800095 634.676757812 336.850585938 c 4
 637.245881206 334.744095532 638.057617188 335.10546875 647.879882812 342.740234375 c 4
 655.126211043 348.372745224 655.162109375 350 648.041015625 350 c 4
 645.625976562 350 643.532226562 350.760742188 643.532226562 351.637695312 c 4
 643.532226562 353.472989231 634.20177797 352.810636296 632.905273438 353.603515625 c 4
428.375976562 387.3671875 m 4
 435.106994975 390.897985028 452.691435813 386.841562356 447.837890625 377.53125 c 4
 446.141601562 374.27734375 434.010742188 367.377929688 429.985351562 367.377929688 c 4
 425.932705363 367.377929688 419.105981205 372.124329434 419.921875 376.548828125 c 4
 420.314453125 378.677734375 421.310546875 380.479492188 422.095703125 380.479492188 c 4
 422.636504301 380.479492188 424.86516411 385.525569015 428.375976562 387.3671875 c 4
257.40234375 367.609375 m 4
 256.591211476 383.334544038 293.379582105 363.890096772 266 366 c 4
 262.099216929 366.300598993 259.012695312 365.3515625 259.012695312 364.526367188 c 4
 259.012695312 363.843961579 248.344438746 365.683047674 253.860351562 367.939453125 c 4
 258.047322889 369.652225831 257.573790376 364.285592603 257.40234375 367.609375 c 4
271.736328125 376.53125 m 4
 272.89453125 376.893554687 272.138615727 377.661909869 270.045898438 378.250976562 c 4
 264.354711651 379.852955291 269.599619694 375.862853013 271.736328125 376.53125 c 4
277.2109375 374.56640625 m 4
 280.528993858 374.56640625 278.168597455 377.841796875 277.2109375 377.841796875 c 4
 276.266905712 377.841796875 273.877585263 374.56640625 277.2109375 374.56640625 c 4
311.508789062 368.506835938 m 4
 314.101037866 367.491501052 316.466802666 369.703089285 312.474609375 369.489257812 c 4
 310.541992188 369.385742188 310.186966078 369.02456903 311.508789062 368.506835938 c 4
305.389648438 365.921875 m 4
 309.771417859 364.760005601 307.066363757 368.015625 304.584960938 368.015625 c 4
 301.258789062 368.015625 301.686399106 366.903828102 305.389648438 365.921875 c 4
329.54296875 361.463867188 m 4
 329.54296875 362.400390625 328.818359375 363.1015625 327.852539062 363.1015625 c 4
 325.452424822 363.1015625 328.237138911 359.826171875 328.818359375 359.826171875 c 4
 329.252929688 359.826171875 329.54296875 360.481445312 329.54296875 361.463867188 c 4
331.314453125 349.017578125 m 4
 331.5335404 344.776975392 333.172371759 350.07505923 332.119140625 351.146484375 c 4
 331.610351562 351.6640625 331.229841999 350.655291548 331.314453125 349.017578125 c 4
326.322265625 329.528320312 m 4
 328.781554215 328.026388757 324.711914062 337.212489323 324.711914062 331.984375 c 4
 324.711914062 331.100585938 325.356879438 330.117898934 326.322265625 329.528320312 c 4
321.419921875 325.59765625 m 4
 323.612101188 322.057458127 325.687627231 325.091881457 322.66015625 328.217773438 c 4
 319.776367188 331.1953125 318.986329932 329.527716887 321.419921875 325.59765625 c 4
318.59375 318.227539062 m 4
 314.221759841 315.491399677 319.914227486 325.43359375 317.626953125 325.43359375 c 4
 315.853298757 325.43359375 315.614257812 312.577148438 315.614257812 312.577148438 c 5
 315.841796875 312.900390625 317.035346536 314.542829663 318.3515625 316.34375 c 4
 319.908203125 318.473632812 319.989118811 319.100808082 318.59375 318.227539062 c 4
294 423 m 4
 299.290803995 424.982321337 302.91507799 428 306 428 c 4
 313.196765499 428 318 426.399522958 318 424 c 4
 318 419.997018485 312.856152513 417 306 417 c 4
 290.005390836 417 284.847557657 419.570827088 294 423 c 4
306.415039062 437.766601562 m 4
 318.946078095 434.406542214 301.519382212 433.988437437 304 434 c 6
 306.040039062 432.979492188 l 5
 307.527288293 430.584768851 310.001445873 434.380828361 310.2265625 430.27734375 c 4
 310.334405878 428.311546516 309.396762408 429.912494083 311.916992188 431.750976562 c 4
 315 434 313.878886329 438.120363483 311.67578125 439.12109375 c 4
 293.607323684 447.328442791 301.203453501 439.164030517 306.415039062 437.766601562 c 4
285.90625 441.3046875 m 4
 296.798612489 441.599419025 318.491792779 448.740544726 323.702148438 437.620117188 c 4
 326.618164062 431.396484375 327.127929688 422.061523438 324.55078125 422.061523438 c 5
 324.55078125 422.061523438 319.464248572 408.203622623 315.534179688 406.619140625 c 4
 310.541992188 404.606445312 294.118164062 403.763671875 294.118164062 405.51953125 c 4
 294.118164062 406.549804688 293.15234375 407.321289062 291.864257812 407.321289062 c 4
 289.541992188 407.321289062 285.095638486 412.071240782 275.920898438 424.354492188 c 4
 271.76171875 429.922851562 269.958231856 433.8789933 270.287109375 436.71875 c 4
 270.765625 440.850585938 270.931638401 440.899496237 285.90625 441.3046875 c 4
301.60546875 480.774414062 m 4
 299.144711367 482.842317914 290.962718425 474.469726562 288.482421875 474.469726562 c 4
 285.90625 474.469726562 281.236328125 470.036132812 281.236328125 467.590820312 c 4
 281.236328125 467.158925219 308.610351562 460.50296845 308.610351562 464.970703125 c 4
 308.610351562 465.668945312 309.737304688 466.280273438 311.025390625 466.280273438 c 4
 312.313476562 466.280273438 313.440429688 467.044921875 313.440429688 467.91796875 c 4
 313.440429688 468.767578125 314.487304688 469.555664062 315.614257812 469.555664062 c 4
 316.810546875 469.555664062 319.092773438 471.030273438 320.686523438 472.83203125 c 4
 323.536638139 476.054127832 323.504882812 476.107421875 318.673828125 476.107421875 c 4
 311.855845414 476.107421875 314.08893661 481.923110876 307.64453125 480.283203125 c 4
 305.389781691 479.709437033 302.602539062 479.936523438 301.60546875 480.774414062 c 4
588.786132812 648.071289062 m 4
 588.786132812 649.053710938 588.141601562 649.708984375 587.17578125 649.708984375 c 4
 586.208984375 649.708984375 585.565429688 649.053710938 585.565429688 648.071289062 c 4
 585.565429688 647.088867188 586.208984375 646.43359375 587.17578125 646.43359375 c 4
 588.141601562 646.43359375 588.786132812 647.088867188 588.786132812 648.071289062 c 4
536.776367188 712.926757812 m 4
 536.776367188 718.058221057 533.559130323 712.39594367 535.407226562 711.2890625 c 4
 536.137695312 710.8515625 536.776367188 711.616210938 536.776367188 712.926757812 c 4
495.715820312 728.928710938 m 4
 498.341007941 730.084748751 518.633233933 742.090104826 521.80078125 733.725585938 c 4
 522.251953125 732.534179688 524.377929688 731.596679688 526.631835938 731.596679688 c 4
 532.487304688 731.596679688 531.784179688 729.8359375 523.733398438 724.33203125 c 4
 515.682617188 718.828125 502.753460525 717.0795376 501.158203125 721.279296875 c 4
 500.220396862 723.748215402 481.15111234 722.514939606 495.715820312 728.928710938 c 4
204.49609375 247.640625 m 4
 201.978515625 259.923828125 199.570654402 265.098691643 201.447265625 254.19140625 c 4
 204.141013237 238.53474086 208.989422719 225.717781023 204.49609375 247.640625 c 4
616.629815085 417.782087348 m 4
 628.436774558 417.782087348 645.693041653 414.330612874 645.693041653 403.098854995 c 4
 645.693041653 399.52533466 638.227238016 386.211549033 637.967866877 383.097627533 c 4
 637.521983832 377.744507661 626.211565404 362.882068639 621.295684082 359.433447556 c 4
 615.479871112 355.353500563 607.883019469 353.149638569 600.756589232 353.149638569 c 4
 587.705874174 353.149638569 579.623871773 360.252055618 579.623871773 371.84270469 c 4
 579.623871773 376.9550995 580.971289295 382.895828325 583.52915447 389.841471902 c 4
 590.186003649 407.91752305 597.131170522 417.782087348 616.629815085 417.782087348 c 4
640.693041653 403.098854995 m 4
 640.693041653 409.440621435 626.960897021 412.782087348 616.629815085 412.782087348 c 4
 599.499246949 412.782087348 594.546173192 405.286091312 588.222798654 388.115559348 c 4
 585.786873004 381.501031143 584.623871773 376.054847558 584.623871773 371.84270469 c 4
 584.623871773 362.708690162 590.563186318 358.149638569 600.756589232 358.149638569 c 4
 606.85733531 358.149638569 613.591920782 360.136156156 618.428925294 363.529443068 c 4
 621.682095059 365.81162791 632.981445312 378.554495056 632.981445312 383.41015625 c 4
 632.981445312 385.532163445 640.693041653 401.06734688 640.693041653 403.098854995 c 4
509.241210938 775.819335938 m 4
 550.78515625 779.864257812 604.280356668 771.449384641 634.999023438 756.037109375 c 4
 743.374191154 701.662747059 746.283046143 550.397191558 695.787109375 400.770507812 c 4
 673.291992188 334.114257812 644.009617283 282.299934854 601.381835938 233.719726562 c 4
 580.974609375 210.462890625 537.194335938 173.122070312 530.334960938 173.122070312 c 4
 528.725585938 173.122070312 527.029402194 172.03023408 526.51953125 170.666015625 c 4
 524.336914062 164.826171875 480.096314713 141.214835882 450.30859375 129.991210938 c 4
 421.002929688 118.94921875 411.240223651 116.86286683 386.705078125 116.39453125 c 4
 371.408203125 116.102539062 359.658066493 111.275488748 353.374023438 113.016601562 c 6
 263.524414062 137.911132812 l 5
 263.524414062 143.642578125 l 5
 222.947265625 190.728515625 l 5
 222.463867188 198.5078125 l 5
 192.755859375 286.127929688 l 5
 191.875 343.940429688 191.850540317 344.270186294 188.408203125 344.758789062 c 4
 185.064453125 345.233398438 184.906415806 346.233446303 183.739257812 374.075195312 c 4
 182.606445312 401.09765625 182.723066239 403.042421773 185.590820312 405.192382812 c 4
 192.076697206 410.054857862 201.705463985 408.09382768 198.47265625 421.2421875 c 4
 197.145831451 426.638601793 200.7265625 425.854629478 200.7265625 430.905273438 c 4
 200.7265625 435.05864779 209.551410882 481.683935364 217.633789062 486.342773438 c 4
 220.988859534 488.276700521 220.357637652 496.845214081 222.500976562 500.673828125 c 4
 225.434570313 505.9140625 225.426757812 507.224609375 222.463867188 507.224609375 c 5
 222.463867188 507.224609375 238.178653243 546.530273438 239.854492188 546.530273438 c 4
 247.744140625 546.530273438 250.900152918 549.165560993 252.283203125 551.116210938 c 6
 287.35546875 600.58203125 l 5
 330.831054688 673.046875 l 5
 349.067808098 688.890850757 366.918512192 705.120875829 385.578125 720.541992188 c 5
 392.717767608 735.248703747 410.949482337 742.96436391 426.959960938 744.69921875 c 4
 430.406885493 745.072718749 433.991389091 743.542556604 434.937933458 745.213688749 c 4
 435.81089988 746.754918406 438.493373008 748.890054284 444.189453125 751.659179688 c 6
 477.037109375 767.627929688 l 6
 483.549696983 770.793996776 487.342773438 768.165039062 487.342773438 770.083984375 c 4
 487.342773438 773.078125 491.045908113 774.047752189 509.241210938 775.819335938 c 4
443.706054688 744.69921875 m 6
 438.137532599 741.867278601 432.782410623 738.162469818 426.798828125 734.034179688 c 4
 404.893992333 718.921240672 396.044406172 711.36086801 371.569335938 686.846679688 c 4
 328.798828125 644.0078125 287.595583034 589.76764804 254.033203125 532.118164062 c 4
 219.155273438 472.208984375 210.685950837 440.404307962 209.202148438 363.756835938 c 4
 207.817912242 292.25256745 212.994390436 236.253520141 235.620117188 192.448242188 c 4
 254.137695312 156.596679688 308.126914886 132.176278182 381.874023438 126.296875 c 4
 404.08203125 124.526367188 440.163706073 135.086650701 480.096679688 155.04296875 c 4
 588.611248571 209.272620428 663.651184703 315.660966454 697.616210938 451.541015625 c 4
 718.41330507 534.741604188 724.462574494 617.019722687 691.642578125 682.627929688 c 4
 664.706063416 736.474871445 614.690177874 765.990234375 536.131835938 765.990234375 c 4
 499.580078125 765.990234375 477.005676158 761.634149326 454.655273438 750.267578125 c 6
 443.706054688 744.69921875 l 6
447.29526837 505.85799144 m 4
 435.387782898 505.85799144 391.89310468 519.657978528 391.89310468 536.386843881 c 4
 391.89310468 552.792357696 408.056990084 552.303078573 432.989399848 552.387680643 c 4
 446.321918696 552.432921304 459.258455375 553.500311649 459.736352794 553.718974745 c 4
 461.88942115 554.704116273 463.897488947 555.539803707 465.853280284 555.539803707 c 4
 472.607086423 555.539803707 478.065587366 547.302783033 478.065587366 539.447003691 c 4
 478.065587366 535.445823818 477.31022395 530.826248175 476.210658677 527.288474627 c 4
 475.688838969 525.609556599 473.054168492 523.912533066 472.919370877 521.532969229 c 4
 472.535895891 514.763537792 457.748408914 505.85799144 447.29526837 505.85799144 c 4
395.893554688 537.38671875 m 4
 395.893554688 524.255398184 438.705105081 511.858398438 446.294921875 511.858398438 c 4
 455.878092036 511.858398438 466.5625 519.810451495 466.5625 523.94921875 c 4
 466.5625 525.905414569 468.695168682 525.960886542 469.279296875 527.00390625 c 4
 470.037937092 528.358393334 472.065429688 535.241475662 472.065429688 540.447265625 c 4
 472.065429688 548.240490737 466.978761225 551.497219371 461.81247533 549.169697131 c 4
 458.742695628 547.765112152 446.726909428 547.434266195 433.006693902 547.387709981 c 4
 409.350788414 547.316700648 395.893554688 548.120703667 395.893554688 537.38671875 c 4
385.171931541 594.515303698 m 4
 385.171931541 575.010383465 356.981144213 553.857421875 342.424804688 553.857421875 c 4
 329.685803483 553.857421875 315.948533923 571.680869562 315.948533923 584.717934081 c 4
 315.948533923 594.919868193 341.979350061 624.3671875 356.272460938 624.3671875 c 4
 365.280394344 624.3671875 385.171931541 608.586865449 385.171931541 594.515303698 c 4
380.171931541 594.515303698 m 4
 380.171931541 606.822306652 363.630525654 617.151205329 356.272460938 619.3671875 c 4
 347.155474807 619.3671875 320.948533923 594.462148391 320.948533923 584.717934081 c 4
 320.948533923 574.006912546 333.697785239 558.857421875 342.424804688 558.857421875 c 4
 353.289417299 558.857421875 380.171931541 578.21635512 380.171931541 594.515303698 c 4
260 334 m 4
 260 329 270 325 282 325 c 4
 294 325 304 329 304 334 c 4
 304 339 294 343 282 343 c 4
 270 343 260 339 260 334 c 4
290 356 m 4
 290 352 296 349 303 349 c 4
 310 349 317 352 317 356 c 4
 317 360 310 363 303 363 c 4
 296 363 290 360 290 356 c 4
243 349 m 4
 243 345 245 342 247 342 c 4
 249 342 251 345 251 349 c 4
 251 353 249 357 247 357 c 4
 245 357 243 353 243 349 c 4
384 480 m 4
 384 475 387 471 391 471 c 4
 395 471 399 475 399 480 c 4
 399 485 395 489 391 489 c 4
 387 489 384 485 384 480 c 4
394 449 m 4
 394 446 396 443 399 443 c 4
 402 443 405 446 405 449 c 4
 405 452 402 455 399 455 c 4
 396 455 394 452 394 449 c 4
555 514 m 4
 555 509 564 505 576 505 c 4
 588 505 597 509 597 514 c 4
 597 519 588 524 576 524 c 4
 564 524 555 519 555 514 c 4
572 540 m 4
 572 537 577 535 584 535 c 4
 591 535 596 537 596 540 c 4
 596 543 591 546 584 546 c 4
 577 546 572 543 572 540 c 4
600 512 m 4
 600 505 602 500 605 500 c 4
 608 500 610 505 610 512 c 4
 610 519 608 525 605 525 c 4
 602 525 600 519 600 512 c 4
546 490 m 4
 546 485 552 481 560 481 c 4
 568 481 575 485 575 490 c 4
 575 495 568 498 560 498 c 4
 552 498 546 495 546 490 c 4
407 536 m 4
 407 533 411 531 415 531 c 4
 419 531 423 533 423 536 c 4
 423 539 419 541 415 541 c 4
 411 541 407 539 407 536 c 4
435 533 m 4
 435 531 437 528 440 528 c 4
 443 528 445 531 445 533 c 4
 445 535 443 537 440 537 c 4
 437 537 435 535 435 533 c 4
451 529 m 4
 451 526 455 523 459 523 c 4
 463 523 467 526 467 529 c 4
 467 532 463 535 459 535 c 4
 455 535 451 532 451 529 c 4
434 514 m 4
 434 511 438 509 444 509 c 4
 450 509 454 511 454 514 c 4
 454 517 450 519 444 519 c 4
 438 519 434 517 434 514 c 4
454 541 m 4
 454 539 458 536 462 536 c 4
 466 536 470 539 470 541 c 4
 470 543 466 545 462 545 c 4
 458 545 454 543 454 541 c 4
329 585 m 4
 329 579 333 575 337 575 c 4
 341 575 344 579 344 585 c 4
 344 591 341 596 337 596 c 4
 333 596 329 591 329 585 c 4
356 580 m 4
 356 577.5 360.5 575 365 575 c 4
 370 575 374 578 374 581 c 4
 374 583.5 370.444444444 586 366 586 c 4
 361 586 356 583 356 580 c 4
352 604 m 4
 352 600 357 597 363 597 c 4
 369 597 373 600 373 604 c 4
 373 608 369 611 363 611 c 4
 357 611 352 608 352 604 c 4
457 670 m 4
 457 674 460 677 463 677 c 4
 466 677 468 674 468 670 c 4
 468 666 466 664 463 664 c 4
 460 664 457 666 457 670 c 4
453 653 m 4
 453 655 456 656 460 656 c 4
 464 656 467 655 467 653 c 4
 467 651 464 650 460 650 c 4
 456 650 453 651 453 653 c 4
473 658 m 4
 473 660 475 662 478 662 c 4
 481 662 483 660 483 658 c 4
 483 656 481 654 478 654 c 4
 475 654 473 656 473 658 c 4
620 403 m 4
 620 400 624 398 628 398 c 4
 632 398 636 400 636 403 c 4
 636 406 632 408 628 408 c 4
 624 408 620 406 620 403 c 4
610 385 m 4
 610 381 614 378 618 378 c 4
 622 378 626 381 626 385 c 4
 626 389 622 391 618 391 c 4
 614 391 610 389 610 385 c 4
596 383 m 4
 596 380 597 377 599 377 c 4
 601 377 602 380 602 383 c 4
 602 386 601 388 599 388 c 4
 597 388 596 386 596 383 c 4
603 400 m 4
 603 398 605 396 609 396 c 4
 613 396 616 398 616 400 c 4
 616 402 613 404 609 404 c 4
 605 404 603 402 603 400 c 4
590 368 m 4
 590 366 595 365 601 365 c 4
 607 365 613 366 613 368 c 4
 613 370 607 371 601 371 c 4
 595 371 590 370 590 368 c 4
569 655 m 4
 569 653 570 652 572 652 c 4
 574 652 576 653 576 655 c 4
 576 657 574 658 572 658 c 4
 570 658 569 657 569 655 c 4
585 653 m 4
 585 650 588 648 592 648 c 4
 596 648 598 650 598 653 c 4
 598 656 596 658 592 658 c 4
 588 658 585 656 585 653 c 4
517 365.5 m 4
 488.335264836 365.5 473.106891831 392.5 447 392.5 c 6
 438 392.5 l 6
 437.782774694 392.5 437.245535131 392.474841495 436.509320352 392.474841495 c 4
 433.116978026 392.474841495 425.5 393.009006111 425.5 399 c 4
 425.5 410.570392087 436.5 423.597033825 436.5 435 c 4
 436.5 443.456966376 435.239976531 445.580596702 431.929082332 451.422614446 c 4
 430.913208164 453.215107519 429.257782773 455.762749367 429.257782773 458.714567602 c 4
 429.257782773 459.442661873 429.376585255 460.216379883 429.696453388 460.9723944 c 4
 439.362760927 483.818899162 474.455271633 486.906610852 491.343120953 501.871489903 c 4
 493.199585765 503.516564467 495.426387047 504.509511976 497.653533562 504.509511976 c 4
 499.374889114 504.509511976 502.5 503.464155548 502.5 501 c 6
 502.5 497 l 6
 502.5 493.903343497 503.5 490.741241766 503.5 487 c 4
 503.5 480.793720669 499.746014665 475.018407839 499.509672392 469.447913314 c 4
 502.032733872 468.924459853 501.887032303 466.5 506 466.5 c 4
 525.57325248 466.5 608.5 459.42892195 608.5 433 c 4
 608.5 432.731873482 608.535715798 432.476128993 608.535715798 432.12597615 c 4
 608.535715798 429.816543562 606.170277208 428.5 604 428.5 c 6
 599 428.5 l 6
 593.671828059 428.5 548.156553458 419.016445828 538.536752517 415.10990955 c 5
 539.342734439 405.326496247 553.248706692 396.657922315 564.78165417 389.9666048 c 4
 570.59457104 386.594000089 577.5 383.759386149 577.5 379 c 4
 577.5 365.393814444 526.966475335 365.5 517 365.5 c 4
506 461.5 m 4
 501.423539227 461.335847846 494.372613979 463.657225171 494.372613979 467.755125385 c 4
 494.372613979 468.384836285 494.5 468.577643222 494.5 469 c 4
 494.5 475.270940003 498.5 481.288280568 498.5 487 c 4
 498.5 490.525181999 497.5 493.632420998 497.5 497 c 6
 497.5 499.502738246 l 5
 496.816922985 499.445610535 495.667694934 499.02422732 494.656879047 498.128510097 c 4
 478.682481343 483.973070585 442.586406373 478.604304789 434.303546612 459.0276056 c 4
 434.286357797 458.986979504 434.257782773 458.895878096 434.257782773 458.714567602 c 4
 434.257782773 456.983038379 437.0448722 452.510438643 437.980220432 450.570039849 c 4
 440.526213489 445.288325848 441.5 442.82896027 441.5 435 c 4
 441.5 422.817420867 430.5 409.721757943 430.5 399 c 4
 430.5 398.659445179 434.32146378 397.5 438 397.5 c 6
 447 397.5 l 6
 474.327947797 397.5 489.384306475 370.5 517 370.5 c 4
 523.615455534 370.5 569.60308855 372.364373678 572.459259118 378.82815044 c 4
 571.774077725 379.652799979 567.774406315 382.449545367 562.277804095 385.63862717 c 4
 551.148352001 392.095840202 533.5 401.697972234 533.5 416 c 4
 533.5 425.108633353 595.377028616 433.5 599 433.5 c 6
 603.482103312 433.5 l 5
 602.04259435 454.843816087 521.622234032 462.060350782 506 461.5 c 4
536.897256015 725.927185875 m 4
 544.233214191 725.927185875 560.69140625 723.675602706 560.69140625 716.038085938 c 4
 560.69140625 711.031644707 553.829842289 709.897472993 552.19268241 707.322598249 c 4
 550.04893237 703.950974068 540.438879925 699.092595751 533.233398438 697.979492188 c 4
 529.967239577 697.474935612 525.684887153 697.998383247 525.684887153 701.675789294 c 4
 525.684887153 702.05555785 525.762938646 702.406146685 525.879859154 702.709317076 c 4
 525.462960637 704.907575505 523.513386825 707.152792773 523.513386825 710.024316247 c 4
 523.513386825 717.761305891 527.495262559 725.927185875 536.897256015 725.927185875 c 4
528.513386825 710.024316247 m 4
 528.513386825 707.010262852 530.201484977 702.979492188 533.233398438 702.979492188 c 4
 537.185531464 702.979492188 545.880563253 707.275494652 548.207708214 710.341464251 c 4
 549.640131626 712.228655084 554.35406276 713.764472221 555.646743199 716.097209133 c 4
 553.266726658 718.892452672 541.957174518 720.927185875 536.897256015 720.927185875 c 4
 529.029379086 720.927185875 529.455299571 712.816198667 528.513386825 710.024316247 c 4
EndSplineSet
EndChar
